<?xml version="1.0" encoding="utf-8"?>
<COLLADA version="1.5.0" xmlns="http://www.collada.org/2008/03/COLLADASchema">
	<asset>
		<contributor>
			<authoring_tool>BrawlCrate</authoring_tool>
		</contributor>
		<created>2022-10-20T21:32:16Z</created>
		<modified>2022-10-20T21:32:16Z</modified>
		<unit meter="0.01" name="centimeter" />
		<up_axis>Y_UP</up_axis>
	</asset>
	<library_images>
		<image id="lm_0-image" name="lm_0">
			<init_from>
				<ref>lm_0.png</ref>
			</init_from>
		</image>
		<image id="lm_1-image" name="lm_1">
			<init_from>
				<ref>lm_1.png</ref>
			</init_from>
		</image>
		<image id="mario_all-image" name="mario_all">
			<init_from>
				<ref>mario_all.png</ref>
			</init_from>
		</image>
		<image id="mario_eye.0-image" name="mario_eye.0">
			<init_from>
				<ref>mario_eye.0.png</ref>
			</init_from>
		</image>
	</library_images>
	<library_materials>
		<material id="mario_all_tx">
			<instance_effect url="#mario_all_tx-fx" />
		</material>
		<material id="mario_eye_tx">
			<instance_effect url="#mario_eye_tx-fx" />
		</material>
	</library_materials>
	<library_effects>
		<effect id="mario_all_tx-fx" name="mario_all_tx">
			<profile_COMMON>
				<newparam sid="mario_all-surface">
					<surface type="2D">
						<init_from>
							<ref>mario_all-image</ref>
						</init_from>
					</surface>
				</newparam>
				<newparam sid="mario_all-sampler">
					<sampler2D>
						<source>mario_all-surface</source>
						<instance_image url="#mario_all-image" />
						<wrap_s>WRAP</wrap_s>
						<wrap_t>WRAP</wrap_t>
						<minfilter>LINEAR</minfilter>
						<magfilter>LINEAR</magfilter>
					</sampler2D>
				</newparam>
				<newparam sid="lm_0-surface">
					<surface type="2D">
						<init_from>
							<ref>lm_0-image</ref>
						</init_from>
					</surface>
				</newparam>
				<newparam sid="lm_0-sampler">
					<sampler2D>
						<source>lm_0-surface</source>
						<instance_image url="#lm_0-image" />
						<wrap_s>CLAMP</wrap_s>
						<wrap_t>CLAMP</wrap_t>
						<minfilter>LINEAR</minfilter>
						<magfilter>LINEAR</magfilter>
					</sampler2D>
				</newparam>
				<newparam sid="lm_1-surface">
					<surface type="2D">
						<init_from>
							<ref>lm_1-image</ref>
						</init_from>
					</surface>
				</newparam>
				<newparam sid="lm_1-sampler">
					<sampler2D>
						<source>lm_1-surface</source>
						<instance_image url="#lm_1-image" />
						<wrap_s>CLAMP</wrap_s>
						<wrap_t>CLAMP</wrap_t>
						<minfilter>LINEAR</minfilter>
						<magfilter>LINEAR</magfilter>
					</sampler2D>
				</newparam>
				<technique sid="COMMON">
					<phong>
						<diffuse>
							<texture texture="mario_all-sampler" texcoord="TEXCOORD0" />
						</diffuse>
					</phong>
				</technique>
			</profile_COMMON>
		</effect>
		<effect id="mario_eye_tx-fx" name="mario_eye_tx">
			<profile_COMMON>
				<newparam sid="mario_eye.0-surface">
					<surface type="2D">
						<init_from>
							<ref>mario_eye.0-image</ref>
						</init_from>
					</surface>
				</newparam>
				<newparam sid="mario_eye.0-sampler">
					<sampler2D>
						<source>mario_eye.0-surface</source>
						<instance_image url="#mario_eye.0-image" />
						<wrap_s>MIRROR</wrap_s>
						<wrap_t>MIRROR</wrap_t>
						<minfilter>LINEAR</minfilter>
						<magfilter>LINEAR</magfilter>
					</sampler2D>
				</newparam>
				<newparam sid="lm_0-surface">
					<surface type="2D">
						<init_from>
							<ref>lm_0-image</ref>
						</init_from>
					</surface>
				</newparam>
				<newparam sid="lm_0-sampler">
					<sampler2D>
						<source>lm_0-surface</source>
						<instance_image url="#lm_0-image" />
						<wrap_s>CLAMP</wrap_s>
						<wrap_t>CLAMP</wrap_t>
						<minfilter>LINEAR</minfilter>
						<magfilter>LINEAR</magfilter>
					</sampler2D>
				</newparam>
				<newparam sid="lm_1-surface">
					<surface type="2D">
						<init_from>
							<ref>lm_1-image</ref>
						</init_from>
					</surface>
				</newparam>
				<newparam sid="lm_1-sampler">
					<sampler2D>
						<source>lm_1-surface</source>
						<instance_image url="#lm_1-image" />
						<wrap_s>CLAMP</wrap_s>
						<wrap_t>CLAMP</wrap_t>
						<minfilter>LINEAR</minfilter>
						<magfilter>LINEAR</magfilter>
					</sampler2D>
				</newparam>
				<technique sid="COMMON">
					<phong>
						<diffuse>
							<texture texture="mario_eye.0-sampler" texcoord="TEXCOORD0" />
						</diffuse>
					</phong>
				</technique>
			</profile_COMMON>
		</effect>
	</library_effects>
	<library_geometries>
		<geometry id="polygon0" name="polygon0">
			<mesh>
				<source id="polygon0_Positions">
					<float_array id="polygon0_PosArr" count="1032">50.70751 82.39481 4.43346 47.8822 90.10203 -4.223871 50.64954 87.6697 -3.730704 47.8822 86.60936 -13.07459 50.74252 82.012 -11.83693 47.8822 76.62784 -15.30681 47.8822 70.06487 -9.923101 45.44205 71.30402 -10.51899 47.8822 70.16174 1.560981 45.44205 71.07447 1.511563 47.8822 76.61053 6.835281 45.44205 82.18481 6.023559 47.8822 86.59866 4.626852 45.44205 89.49171 -3.603873 -13.67285 87.27131 -4.235548 -19.48623 87.93368 -4.246533 -12.58824 82.12772 -11.9769 -19.35945 82.12743 -11.97695 -21.16886 71.64606 -9.336044 -33.03941 72.48532 -9.29743 -21.52695 72.00149 2.566062 -33.58111 71.89992 -1.305583 -18.82567 82.10863 4.739112 -30.11047 80.59946 4.184828 -34.68365 87.80272 -3.47365 -32.05394 80.78065 4.198163 -47.59859 82.12579 4.394243 -47.87592 73.23557 0.7643461 -47.74731 73.15806 -9.380889 -50.86604 73.53774 1.072526 -47.8822 70.16176 1.560979 -50.63984 73.33073 -9.384366 -47.8822 70.06489 -9.923102 -47.8822 76.62785 -15.30681 -45.44205 71.30404 -10.51899 -45.44205 82.33949 -13.25915 -45.44205 82.18481 6.023557 -45.44205 89.49171 -3.603874 -47.8822 86.59867 4.626851 -47.8822 90.10204 -4.223873 -50.70751 82.39483 4.433459 -50.64954 87.66972 -3.730705 13.60116 99.35027 21.51086 16.33869 99.9819 18.79871 2.411546E-07 99.6385 26.87505 17.52339 103.6618 17.45594 16.22952 107.1424 17.61148 13.33265 101.6102 24.02665 6.265646 97.65268 27.88598 -6.265645 97.65268 27.88598 1.8444E-07 94.59743 26.49495 -3.709469 93.69194 25.06837 4.902061 104.485 22.65004 15.96526 106.7925 17.63328 6.257847 100.8631 24.26116 15.06357 99.83696 20.02971 9.381734 93.94399 22.26258 10.98787 93.38094 20.72676 8.214824 91.7711 21.76365 15.80627 91.69179 16.11933 4.71409 85.2524 20.26689 12.56997 87.31591 10.29249 3.213918 83.12872 11.25567 -20.75922 51.98027 -9.045317 -22.31957 62.47668 -9.190737 -23.23698 50.36103 3.979164 -24.09874 63.86807 2.345435 -16.23143 60.74856 16.824 -16.17286 73.90234 13.65097 8.571539E-08 77.01433 17.02533 -14.65414 83.51856 5.218056 3.510845E-07 87.09075 5.292918 -8.266928 86.89104 -4.235521 13.67285 87.27131 -4.235548 12.58824 82.12772 -11.9769 19.48623 87.93367 -4.246533 19.35945 82.12742 -11.97695 34.68365 87.80271 -3.47365 33.62875 82.27194 -11.80724 34.11942 82.2663 -11.80038 33.45984 72.53616 -9.300415 47.74731 73.15805 -9.380887 47.87592 73.23556 0.764348 -4.902061 104.485 22.65004 -6.257845 100.8631 24.26116 -15.96526 106.7925 17.63328 -15.06357 99.83696 20.02971 -16.50629 100.0727 17.70823 -15.24924 97.80066 19.05211 -20.83447 100.7801 10.7438 -15.80627 91.69179 16.11933 -18.66638 92.25748 7.728503 -12.56997 87.31591 10.29249 18.9173 99.47872 -4.618062 20.31864 110.0166 -7.60348 11.0936 96.89682 -16.65773 1.930518E-06 105.9257 -23.49181 7.729352E-07 96.47568 -19.99112 -11.0936 96.89682 -16.65773 -3.700955 89.42347 -22.06062 -9.962966 90.28113 -19.62702 5.576891E-07 88.91446 -9.862761 -12.38156 91.77278 -7.918952 -8.890352 107.4036 29.32199 -8.721783 103.3871 35.60754 -4.403489 109.7527 36.44072 1.401041E-07 103.8884 39.42955 4.40349 109.7527 36.44072 8.721784 103.3871 35.60754 8.890352 107.4036 29.32199 8.266929 86.89103 -4.235521 5.846772E-07 86.93121 -14.06397 5.276932E-07 79.79124 -16.52082 -12.304 70.36926 -16.0798 -20.31863 110.0166 -7.603481 -18.9173 99.47872 -4.618063 -19.94752 93.69405 -13.6208 -15.34308 92.09547 -17.43349 -21.66596 97.71432 0.8045095 -16.41235 90.49122 0.8719388 4.04072E-07 86.00217 -0.150324 16.41235 90.49122 0.8719391 47.86034 87.69451 -3.691979 47.59859 82.12578 4.394245 32.05394 80.78064 4.198164 30.11047 80.59946 4.184829 33.58111 71.89991 -1.305581 18.82567 82.10862 4.739113 21.52695 72.00149 2.566064 14.65414 83.51856 5.218057 -13.45762 146.2201 9.840432 -15.53655 139.4509 17.35192 -26.41172 130.4156 5.284012 -28.13618 121.8 4.772846 -24.14609 119.9311 -18.01505 -26.37926 114.8822 -4.282832 -16.54388 110.6996 -20.48084 50.63984 73.33073 -9.384365 50.86604 73.53773 1.072527 3.700959 89.42347 -22.06062 9.96297 90.28113 -19.62702 12.38157 91.77278 -7.918952 -13.60116 99.35027 21.51086 -16.33869 99.9819 18.79871 -17.52339 103.6618 17.45594 -13.33265 101.6102 24.02665 -16.22952 107.1424 17.61148 -33.62874 82.27196 -11.80724 -33.45984 72.53617 -9.300416 6.823746E-07 97.67783 -11.34642 6.929595 97.64233 -4.253017 4.953621E-07 97.81877 4.163771 -6.929594 97.64233 -4.253017 -14.78674 127.0587 -22.69746 2.180695E-06 117.4141 -32.56365 2.236748E-06 124.5733 -30.01098 14.78675 127.0587 -22.69746 9.949737 145.4857 -2.434919 -9.949732 145.4857 -2.43492 2.021979E-06 150.5091 13.57515 -15.03835 127.1102 18.15298 6.846696E-07 131.928 22.71516 -17.81309 123.5597 28.05189 4.620495E-07 127.961 37.04373 6.297285E-07 124.8205 20.12286 17.81309 123.5597 28.05189 13.51411 122.7968 16.45626 18.80018 118.26 10.20385 -45.44205 71.07449 1.511561 -47.8822 76.61054 6.83528 72.57182 75.73797 -13.42459 69.38926 83.97913 -15.64317 65.88087 71.63371 -14.18461 59.47363 83.98139 -15.96044 56.62998 72.00704 -14.03666 16.17286 73.90234 13.65097 16.23143 60.74856 16.824 24.09874 63.86806 2.345436 23.23698 50.36103 3.979164 55.46681 66.26326 6.628642 62.36946 65.67793 5.970891 67.2592 68.09765 -0.4843957 64.83224 70.03316 7.245994 72.75549 75.64945 8.72834 21.66596 97.71432 0.804511 26.22075 97.72555 -4.037319 24.85804 104.2791 -10.3839 30.33839 112.3564 -8.234317 26.37926 114.8822 -4.282831 2.021726E-06 108.5869 -28.32627 16.54388 110.6996 -20.48084 -21.52735 113.8623 0.6118204 -20.96905 107.6057 0.4477613 -18.80018 118.26 10.20384 -19.3241 107.6692 9.229422 -15.57473 117.7502 17.07344 -15.76999 112.2713 17.35336 -3.213917 83.12872 11.25567 -4.714089 85.2524 20.26689 -10.98787 93.38094 20.72676 -9.381733 93.94399 22.26258 12.73036 46.81286 13.91012 -2.97377E-07 49.51805 21.01275 -1.752242E-07 61.97368 23.42949 -30.33838 112.3564 -8.234319 -24.85804 104.2791 -10.38391 -26.22075 97.72556 -4.03732 24.14609 119.9311 -18.01505 28.13618 121.8 4.772847 21.52735 113.8623 0.6118219 15.03836 127.1102 18.15298 15.53656 139.4509 17.35192 26.41172 130.4156 5.284013 13.45762 146.2201 9.840433 22.08878 137.0564 1.739395 -22.08878 137.0564 1.739394 -12.73036 46.81286 13.91012 -3.008767E-07 43.03761 14.81992 -2.374179E-07 38.97544 5.542512 19.94752 93.69405 -13.6208 15.34308 92.09547 -17.43349 12.304 70.36926 -16.07979 -12.41923 56.06668 -18.14277 -4.318294 96.99064 35.61115 4.318295 96.99064 35.61115 69.76526 85.10998 9.465627 60.62465 85.41441 9.652938 56.91973 73.29337 10.30361 -13.18177 47.12357 -14.43069 9.385131E-08 44.62889 -16.02874 12.41923 56.06668 -18.14277 13.18177 47.12357 -14.43069 20.75922 51.98027 -9.045316 21.16886 71.64606 -9.336042 33.03941 72.48531 -9.297429 20.83447 100.7801 10.74381 20.96905 107.6057 0.4477618 19.3241 107.6692 9.229423 15.57473 117.7502 17.07345 45.44205 82.33947 -13.25915 16.5063 100.0727 17.70823 15.24925 97.80066 19.05211 22.31957 62.47668 -9.190736 -50.74252 82.01202 -11.83693 -47.8822 86.60938 -13.0746 4.095191E-07 108.815 22.2148 3.471889E-07 111.1482 29.67055 -60.62465 85.41441 9.652936 -71.19717 87.55785 -0.7754044 -69.38926 83.97915 -15.64317 8.340816E-07 144.7123 23.22033 11.97521 95.90348 22.14629 -69.76526 85.10999 9.465624 -72.75549 75.64946 8.728338 -74.75144 76.39138 -0.1779669 -72.57181 75.73798 -13.42459 47.972 82.05438 -11.83084 30.15707 104.3165 -8.36472 -13.51411 122.7968 16.45626 2.097342E-07 96.97607 26.79483 74.75144 76.39137 -0.1779648 -62.36946 65.67793 5.970889 -67.2592 68.09766 -0.4843982 -56.62998 72.00705 -14.03666 -65.88087 71.63372 -14.18461 -55.46681 66.26328 6.62864 -56.91973 73.29338 10.30361 -64.83224 70.03317 7.245992 18.66638 92.25748 7.728504 -34.11942 82.26631 -11.80038 -47.86034 87.69453 -3.691981 -47.972 82.05439 -11.83084 -11.97521 95.90348 22.14629 15.77 112.2713 17.35336 3.709469 93.69194 25.06837 7.347785 95.27485 24.02266 -7.347785 95.27485 24.02266 -30.15707 104.3165 -8.364721 -59.47363 83.9814 -15.96044 71.19717 87.55784 -0.7754012 -8.214823 91.7711 21.76365 -3.701867E-08 40.76282 -9.139525 -19.71074 1.420426E-06 -9.132985 -9.846822 6.467279E-07 -13.69859 -9.419305 5.485785 -15.96507 -1.791363 4.67631E-07 -7.454922 -0.583976 9.069746 -8.199073 -0.7391428 10.72394 18.23591 -1.756308 13.47188 6.865524 -6.124441 15.80734 19.94517 -11.50974 17.87453 11.65879 -17.69665 15.91897 20.02478 -22.78912 10.94721 2.082721 -23.88356 10.94722 18.39514 19.71074 3.510511E-07 -9.132984 21.43167 -3.90938E-06 14.32845 22.78912 10.94721 2.082722 23.88355 10.94721 18.39514 17.69665 15.91897 20.02478 11.62681 8.917199 24.60563 6.12444 15.80734 19.94517 0.739141 10.72394 18.23591 1.756305 13.47188 6.865525 0.5839725 9.069747 -8.199072 -21.43167 -3.605081E-06 14.32845 -16.52924 -2.795751E-07 21.56098 -11.62682 8.917199 24.60563 -7.013062 -8.849108E-07 21.43916 -2.399308 -3.862078E-06 14.0848 9.760549 10.55555 -14.4753 2.400076 25.04972 -12.87563 18.40951 24.78931 -13.59486 18.1874 30.01532 -13.72197 21.69798 27.04676 -1.871695 20.28228 45.40008 -8.606668 21.27323 45.65309 2.602876 20.63061 10.08622 -10.73936 11.85256 26.47194 10.07216 12.00348 26.78006 10.05858 1.360028 26.3478 4.285733 12.45625 42.56103 10.66699 -1.360029 26.3478 4.285734 -11.85256 26.47194 10.07216 -12.00348 26.78006 10.05858 -21.69799 27.04676 -1.871695 -21.27323 45.65309 2.602875 -20.28228 45.40008 -8.606668 -10.82626 41.43138 -13.65076 -1.924429 29.28439 -12.47834 -18.1874 30.01532 -13.72197 -2.400078 25.04972 -12.87563 -18.40951 24.78931 -13.59486 -9.760551 10.55555 -14.4753 -20.63061 10.08622 -10.73936 7.01306 -5.764887E-07 21.43916 2.399304 -3.594641E-06 14.0848 1.791359 1.271044E-06 -7.454921 9.419301 5.485786 -15.96506 11.50974 17.87453 11.65879 1.92443 29.28439 -12.47834 9.846818 9.419471E-07 -13.69859 10.82626 41.43138 -13.65075 -12.45625 42.56103 10.66699 16.52924 -1.210681E-06 21.56098</float_array>
					<technique_common>
						<accessor source="#polygon0_PosArr" count="344" stride="3">
							<param name="X" type="float" />
							<param name="Y" type="float" />
							<param name="Z" type="float" />
						</accessor>
					</technique_common>
				</source>
				<source id="polygon0_Normals">
					<float_array id="polygon0_NormArr" count="1188">0.7201535 0.3567506 0.5950931 0.3845823 0.9176637 0.09960956 0.7413328 0.6696779 -0.04418908 0.1681519 0.6851807 -0.7086791 0.780762 0.0279544 -0.6242062 0.08154337 -0.191101 -0.9781494 0.4310917 -0.7322387 -0.5272216 -0.840698 -0.4236452 -0.3372196 0.3884278 -0.8546142 0.3446656 -0.7338867 -0.5407717 0.4109494 0.2168576 -0.2423706 0.9456177 -0.9049684 0.1055906 0.4122311 0.123962 0.6397095 0.758545 -0.7351076 0.6776732 0.01843238 -0.005004871 0.9994507 0.0322876 0.041626 0.9863892 -0.1590576 -0.1904907 0.569519 -0.7996216 -0.01403807 0.342041 -0.9395752 -0.6445923 -0.149292 -0.7498169 -0.04351808 -0.7748413 -0.6306763 -0.729126 -0.3134766 0.6083984 -0.06182864 -0.7666626 0.6390991 -0.12146 0.4359741 0.8917236 -0.02062989 0.1191406 0.9926758 -0.004577614 0.9924927 0.1221924 0.02294921 0.1481323 0.9887085 0.03912352 0.2178955 0.9751587 0.01672362 -0.8399048 0.5424804 -0.04388427 -0.7816162 -0.6221924 -0.7876587 -0.4721069 0.395813 -0.3884277 -0.8546143 0.3446655 -0.8110962 -0.5129395 -0.2810669 -0.2887573 -0.8550415 -0.4307252 -0.2104492 -0.2331543 -0.9494019 0.8406982 -0.423645 -0.3372192 0.8964233 0.1244507 -0.4252929 0.9049683 0.1055908 0.4122315 0.7277832 0.6856079 0.01721196 -0.1239624 0.6397094 0.7585449 -0.3845825 0.9176636 0.09960941 -0.7201538 0.3567505 0.5950928 -0.741333 0.6696777 -0.04418943 0.5884399 -0.7721558 0.2399292 0.4674683 -0.8774414 -0.1075439 1.693296E-08 0.8217773 -0.5698242 0.7349854 -0.1309815 -0.6653442 0.3515015 0.8704224 0.3447266 0.6809082 0.06152344 0.7297363 0.2810059 -0.3150024 0.9065552 -0.2810059 -0.3150024 0.9065552 -1.692479E-08 -0.5675659 0.8233643 -0.3056641 -0.6749878 0.6715088 0.8041382 0.5491333 0.2275391 0.647522 0.1785278 0.7408447 0.8793945 -0.3170776 0.3551025 0.6577148 -0.02545166 0.7528076 0.4642334 -0.2807617 0.8400269 0.5679932 -0.3762817 0.7319946 0.4395752 -0.4185181 0.7947388 0.7277832 -0.4892578 0.4805298 0.3417358 -0.753418 0.5617676 0.5422974 -0.8352661 0.09069826 0.2244873 -0.9721069 -0.06774901 -0.8261719 -0.1433105 -0.5449219 -0.868042 -0.007568349 -0.49646 -0.9599609 -0.2250366 0.1668091 -0.9755859 0.1296387 0.1773071 -0.5953369 -0.00885009 0.8034058 -0.6820679 0.375 0.6277466 -3.737876E-09 0.5366211 0.843811 -0.3117065 0.7411499 0.5946045 1.66656E-09 0.7722778 0.6353149 -0.4638062 0.8826294 -0.07641602 0.1904907 0.569519 -0.7996216 -0.04162597 0.9863892 -0.1590576 0.0140381 0.342041 -0.9395752 0.004577635 0.9924927 0.1221924 0.01409913 0.3578492 -0.9336548 0.01178003 0.3535157 -0.9353638 0.06182905 -0.7666625 -0.6390991 0.04388471 -0.7816162 -0.6221924 -0.01672361 -0.8399048 0.5424804 -0.8041382 0.5491333 0.227539 -0.8793945 -0.3170776 0.3551025 -0.647522 0.1785278 0.7408447 -0.6577148 -0.02545164 0.7528076 -0.8505249 -0.04687499 0.5238037 -0.7355957 -0.2374878 0.6343994 -0.9487305 -0.01861571 0.3155518 -0.7277832 -0.4892578 0.4805298 -0.8179321 -0.5653076 0.1067505 -0.5422974 -0.8352661 0.09069824 0.9685059 -0.07788087 -0.2363891 0.7428589 -0.06237795 -0.6665039 0.5114746 0.1326294 -0.848999 1.062914E-08 -0.1193237 -0.9928589 1.015829E-08 -0.1533203 -0.9881592 -0.5114746 0.1326294 -0.848999 0.09082032 -0.291748 -0.9522095 -0.6359253 -0.664856 -0.3918457 -1.107252E-08 -0.9962769 -0.0863037 -0.3598633 -0.9314575 0.05316163 -0.7950439 0.5484009 -0.2591553 -0.8609009 -0.1130981 0.4960327 -0.3881836 0.7352905 0.555542 -1.268784E-08 -0.04370116 0.9990234 0.3881836 0.7352905 0.555542 0.8609009 -0.1130982 0.4960327 0.7950439 0.5484009 -0.2591553 0.4638062 0.8826294 -0.07641601 1.692999E-08 0.5690308 -0.8223267 1.485719E-08 0.2537231 -0.9672852 -0.3598022 0.1484375 -0.9211426 -0.7428589 -0.06237793 -0.6665039 -0.9685059 -0.07788085 -0.2363892 -0.9198608 -0.1864014 -0.3450317 0.01470947 -0.7509766 -0.6601563 -0.7497559 -0.4152222 -0.5151978 -0.9460449 -0.322998 -0.02453614 -0.6155396 -0.6676636 -0.4188232 -0.5014038 -0.8348999 -0.2269287 -8.361019E-09 -0.9616089 -0.2744751 -8.107768E-09 -0.9568481 -0.2905273 0.5014038 -0.8348999 -0.2269287 0.01257298 0.999939 0.003479057 -0.03912394 0.2178954 0.9751587 -0.02294962 0.1481323 0.9887085 0.02062987 0.1191406 0.9926758 0.0637207 -0.7713013 0.6333008 0.12146 0.4359741 0.8917236 0.729126 -0.3134766 0.6083984 0.3117065 0.7411499 0.5946045 -0.5855713 0.7863159 0.1969604 -0.6740112 0.3189087 0.6663208 -0.90271 0.4100342 0.1304321 -0.8655396 -0.2509765 0.4334106 -0.8604126 0.08685303 -0.5021362 -0.8345947 -0.5441284 -0.0859375 -0.5529175 -0.6585693 -0.510498 -0.5050659 -0.8413086 -0.192688 -7.676275E-09 -0.9483032 -0.3174438 0.7436526 -0.5864255 -0.3211058 0.7876587 -0.4721068 0.3958132 -0.09082031 -0.291748 -0.9522095 0.6359253 -0.664856 -0.3918457 0.3598633 -0.9314575 0.05316164 -0.5884399 -0.7721558 0.2399292 -0.4674683 -0.8774414 -0.1075439 -0.7349854 -0.1309814 -0.6653442 -0.6809082 0.06152346 0.7297363 -0.3515015 0.8704224 0.3447266 -0.0140991 0.3578492 -0.9336548 -0.0637207 -0.7713012 -0.6333008 1.427122E-08 0.1913452 -0.9815063 0.9901733 0.1392212 -0.01263427 -1.053631E-08 0.1260986 0.9920044 -0.9901733 0.1392212 -0.01263429 -0.4025268 0.6216431 -0.6719971 1.148099E-08 -0.05493165 -0.9984741 1.704956E-08 0.6047974 -0.7963867 0.4025269 0.6216431 -0.6719971 0.3168335 0.8693848 -0.3792114 -0.3168335 0.8693848 -0.3792114 1.107326E-08 0.9962769 0.08624266 -0.6734009 0.7354736 0.07507323 8.682597E-09 0.9672852 0.2537231 -0.6309204 -0.4034424 0.6627197 -1.394444E-08 -0.1586914 0.9873047 -1.381447E-08 -0.9892578 0.1460571 0.6309204 -0.4034424 0.6627197 -0.296936 -0.93927 0.171875 0.7040405 -0.6692505 0.2376709 0.7338867 -0.5407715 0.4109497 -0.2168579 -0.2423707 0.9456177 0.8623049 -0.269653 -0.4285276 0.3497926 0.5515139 -0.7572629 0.1701664 -0.5355833 -0.8271484 -0.2023313 0.3421021 -0.9176025 -0.3430782 -0.581665 -0.7375491 -0.5469968 0.1843872 -0.8165895 -0.4492794 -0.8165894 -0.362366 0.6820679 0.375 0.6277466 0.5953369 -0.008850105 0.8034058 0.9755859 0.1296387 0.1773071 0.9599609 -0.2250366 0.1668091 -0.8743897 -0.2954105 0.3848873 -0.6082153 -0.7000124 0.3743283 0.2248536 -0.8946533 0.3860473 0.4136355 -0.909851 -0.03289794 0.3925169 -0.4389649 0.8082276 0.7030028 -0.2575683 0.6629031 -0.2132569 -0.9556885 -0.2028808 -0.01708985 -0.8165283 -0.5770264 -0.3651733 -0.6813354 -0.6343384 -0.05957031 -0.2672119 -0.961792 -0.3609619 0.3403931 -0.8682251 -0.003173812 0.3874512 -0.921875 -0.2090454 0.7153931 -0.666748 3.416299E-10 -0.6929321 -0.7210083 0.5529175 -0.6585693 -0.510498 0.5050659 -0.8413086 -0.192688 -0.7039795 -0.06353758 0.7073364 -0.852478 -0.08959959 0.5150757 -0.8658447 0.02691652 0.4996338 -0.9359131 0.08489992 0.3419189 -0.9395752 0.1123657 0.3233643 -0.6065674 0.1688843 0.7769165 -0.2244873 -0.9721069 -0.06774902 -0.3417359 -0.753418 0.5617676 -0.5679932 -0.3762817 0.7319946 -0.4642334 -0.2807617 0.8400269 0.4440918 -0.5653076 0.6950684 -1.612493E-08 -0.4157104 0.9094849 -1.083338E-08 0.104248 0.9945679 0.2090454 0.7153931 -0.666748 0.3609619 0.340393 -0.8682251 0.05957032 -0.2672119 -0.961792 0.3651733 -0.6813354 -0.6343384 0.01708984 -0.8165283 -0.5770264 0.2132568 -0.9556885 -0.2028808 0.8604126 0.08685301 -0.5021362 0.8345947 -0.5441284 -0.08593749 0.8655396 -0.2509766 0.4334106 0.5571289 -0.6989136 0.4484253 0.5649414 -0.5598145 0.6062012 0.5026855 -0.09832763 0.8588867 0.6740112 0.3189087 0.6663208 0.90271 0.4100342 0.1304321 0.5855713 0.7863159 0.1969604 0.7351074 0.6286011 -0.2540283 -0.7351074 0.6286011 -0.2540284 -0.4440918 -0.5653076 0.6950684 -1.694855E-08 -0.8187866 0.5740967 -1.719141E-08 -0.675293 0.7375488 0.9198608 -0.1864014 -0.3450317 -0.01470947 -0.7509766 -0.6601563 0.3598022 0.1484375 -0.9211426 -0.390625 -0.1153564 -0.913269 -0.4249268 -0.8189087 0.3857422 0.4249268 -0.8189087 0.3857422 0.4721065 0.5603638 0.6805422 -0.124207 0.4826048 0.8669434 -0.3143924 -0.2053835 0.9268187 -0.3490601 -0.3513794 -0.8687134 3.065757E-09 -0.5698242 -0.8217773 0.390625 -0.1153565 -0.913269 0.3490601 -0.3513794 -0.8687134 0.8261719 -0.1433106 -0.5449219 0.6445923 -0.149292 -0.7498169 0.04351807 -0.7748413 -0.6306763 0.9460449 -0.322998 -0.02453612 0.9487305 -0.01861573 0.3155518 0.8658447 0.0269165 0.4996338 0.9395752 0.1123657 0.3233643 0.9359131 0.08489989 0.3419189 0.6065674 0.1688843 0.7769165 -0.8964232 0.1244505 -0.4252933 0.8505249 -0.046875 0.5238037 0.7355957 -0.2374878 0.6343994 0.868042 -0.00756837 -0.49646 -0.8188477 0.1660157 -0.5494995 -0.1681518 0.6851807 -0.7086791 6.684063E-12 0.7073975 0.7068481 1.335698E-08 0.9946899 -0.1030274 0.6712036 0.2684326 0.690979 0.1242065 0.482605 0.8669434 0.1921997 0.9776001 -0.0855102 -0.6772461 0.734375 0.04528811 -0.3497925 0.5515137 -0.7572632 -0.5026855 -0.09832762 0.8588867 -5.103653E-09 0.4655762 0.8850098 0.6275635 -0.5159302 0.5830688 -0.4721069 0.5603637 0.680542 -0.7030029 -0.2575684 0.6629028 -0.9761963 -0.2154541 0.02429197 -0.8623047 -0.2696533 -0.4285279 0.7039795 -0.0635376 0.7073364 0.6890259 -0.03613281 0.7238159 0.6942139 0.01092529 0.7197266 0.713501 0.0625 0.6978149 0.296936 -0.93927 0.171875 -0.7040405 -0.6692505 0.2376709 -1.606923E-08 -0.9133301 0.4072876 0.9761963 -0.2154538 0.02429231 -0.2248535 -0.8946533 0.3860473 0.4492798 -0.8165894 -0.3623658 -0.4136353 -0.9098511 -0.032898 0.3430786 -0.581665 -0.7375488 -0.170166 -0.5355834 -0.8271484 0.6082153 -0.7000122 0.3743286 0.3143921 -0.2053833 0.9268188 -0.3925171 -0.4389649 0.8082275 0.6155396 -0.6676636 -0.4188232 0.7497559 -0.4152222 -0.5151978 0.8179321 -0.5653076 0.1067505 -0.01177977 0.3535157 -0.9353638 -0.01257324 0.999939 0.003479052 -0.6712039 0.2684323 0.6909788 -0.6275635 -0.5159302 0.5831299 0.305664 -0.6749878 0.6715088 0.3966675 -0.7280273 0.5592041 -0.3966675 -0.7280273 0.5592041 0.3374634 -0.3355713 -0.8794556 -0.3374634 -0.3355713 -0.8794556 -0.6890259 -0.03613279 0.7238159 -0.6942139 0.01092531 0.7197266 -0.713501 0.06250001 0.6978149 0.8743896 -0.2954102 0.3848877 0.2023316 0.3421021 -0.9176025 -0.5571289 -0.6989136 0.4484253 -0.5648804 -0.5598145 0.6062012 0.5469971 0.1843872 -0.8165894 0.6734009 0.7354736 0.07507324 0.6772459 0.7343752 0.04528844 -0.4395752 -0.418518 0.7947388 7.653251E-09 -0.3188477 -0.9478149 -0.1921999 0.9776 -0.08551017 0.852478 -0.08959962 0.5150757 -0.6000366 0.3339234 0.7269897 0.6000366 0.3339233 0.7269897 -0.8011471 -0.2321175 -0.5515749 0.1010748 -0.3865957 -0.9166874 0.1290895 -0.09985241 -0.9865724 0.8944706 -0.2195417 -0.3895876 0.9042967 0.08032412 -0.4192505 0.9127196 0.0938732 0.3977051 0.7300404 0.6830456 0.02282773 0.3767077 0.7952883 0.4749763 -0.01208659 0.9994506 0.03045745 -0.3519911 0.8292837 0.4340218 -0.9545903 0.2773423 -0.1090085 -0.824524 0.1002789 0.5568849 0.8011474 -0.2320999 -0.5515819 0.9542236 -0.2669719 0.1346964 0.9545898 0.2772861 -0.1090004 0.824524 0.1002638 0.5568267 0.3519897 0.8293325 0.4339852 -0.02484124 0.1059878 0.9940828 -0.376709 0.7952736 0.4749998 -0.9127197 0.09385993 0.397708 -0.7300415 0.6830437 0.02284801 -0.9042969 0.08033502 -0.419248 -0.9542232 -0.2669694 0.1347044 -0.441833 -0.2712417 0.8551023 0.02484119 0.1060172 0.9940797 0.481934 -0.2509765 0.8394773 0.92804 -0.250365 0.2756955 -0.951416 -0.03832079 -0.3054821 -0.09405524 -0.08175688 -0.99219 -0.6662598 -0.02085134 -0.745423 0.5200805 0.02450111 -0.8537591 0.5282593 0.05631737 -0.8472302 0.9946289 -0.01421902 0.1025394 0.8632813 -0.0993758 -0.4948709 0.8674316 -0.2607942 0.4237116 0.8511962 -0.007552352 -0.5247806 0.8908081 0.1243764 0.4370154 0.1573487 0.1260688 0.979435 0.3209839 -0.06907165 0.9445816 -0.8585815 0.02167842 0.5122066 0.09417725 -0.3074139 0.946906 0.9514161 -0.03832825 -0.305481 0.7341917 0.1193854 0.668335 0.8585815 0.02166683 0.512207 -0.1573489 0.1260365 0.9794923 -0.320984 -0.06909002 0.9445801 -0.9946289 -0.0142195 0.102539 -0.8674321 -0.2608013 0.4237064 -0.8632814 -0.09936456 -0.494873 -0.01660149 0.02300892 -0.9995728 0.7563476 -0.04089562 -0.652832 -0.5282592 0.05627409 -0.8472291 0.6662598 -0.02087227 -0.7454224 -0.5200806 0.02453605 -0.8537598 0.09405525 -0.08172502 -0.9921876 -0.8511963 -0.007569269 -0.5247802 -0.4819335 -0.2509411 0.8394699 -0.9280396 -0.2503746 0.2756882 -0.8944702 -0.2195316 -0.389594 -0.1290894 -0.09982346 -0.9865753 -0.1395264 0.2878096 -0.94744 0.6856079 -0.01718973 -0.7277838 0.1140137 0.1758735 0.9777886 -0.7341918 0.1193644 0.6683387 -0.7563477 -0.04090747 -0.6528311 1.628441E-06 -1 -9.07726E-07 -0.1140139 0.1759022 0.9777834 -0.8908083 0.1243878 0.4370119 -0.1010743 -0.3866298 -0.9166988 -0.6776733 -0.01843305 -0.7351074 0.1395258 0.2877818 -0.9474485 0.01660155 0.02298893 -0.9995732 -0.09417776 -0.3074327 0.9468998 2.273773E-08 -1 -3.046646E-05 0.01208494 0.9994497 0.03042596 0.4418336 -0.2712663 0.8550943</float_array>
					<technique_common>
						<accessor source="#polygon0_NormArr" count="396" stride="3">
							<param name="X" type="float" />
							<param name="Y" type="float" />
							<param name="Z" type="float" />
						</accessor>
					</technique_common>
				</source>
				<source id="polygon0_Colors0">
					<float_array id="polygon0_ColorArr0" count="556">0.4627451 0.4627451 0.4627451 0.4627451 1 1 1 1 0.5686275 0.5686275 0.5686275 0.5686275 0.4509804 0.4509804 0.4509804 0.4509804 0.9686275 0.9686275 0.9686275 0.9686275 0.9843138 0.9843138 0.9843138 0.9843138 0.5254902 0.5254902 0.5254902 0.5254902 0.9137256 0.9137256 0.9137256 0.9137256 0.509804 0.509804 0.509804 0.509804 0.9803922 0.9803922 0.9803922 0.9803922 0.4941177 0.4941177 0.4941177 0.4941177 0.9882354 0.9882354 0.9882354 0.9882354 0.6352941 0.6352941 0.6352941 0.6352941 0.4352942 0.4352942 0.4352942 0.4352942 0.7450981 0.7450981 0.7450981 0.7450981 0.7098039 0.7098039 0.7098039 0.7098039 0.5215687 0.5215687 0.5215687 0.5215687 0.5647059 0.5647059 0.5647059 0.5647059 0.7372549 0.7372549 0.7372549 0.7372549 0.7882354 0.7882354 0.7882354 0.7882354 0.8196079 0.8196079 0.8196079 0.8196079 0.5019608 0.5019608 0.5019608 0.5019608 0.2509804 0.2509804 0.2509804 0.2509804 0.9215687 0.9215687 0.9215687 0.9215687 0.3882353 0.3882353 0.3882353 0.3882353 0.9647059 0.9647059 0.9647059 0.9647059 0.5294118 0.5294118 0.5294118 0.5294118 0.6392157 0.6392157 0.6392157 0.6392157 0.9960785 0.9960785 0.9960785 0.9960785 0.4666667 0.4666667 0.4666667 0.4666667 0.4745098 0.4745098 0.4745098 0.4745098 0.427451 0.427451 0.427451 0.427451 0 0 0 0 0.3333333 0.3333333 0.3333333 0.3333333 0.4470589 0.4470589 0.4470589 0.4470589 0.6784314 0.6784314 0.6784314 0.6784314 0.6745098 0.6745098 0.6745098 0.6745098 0.7411765 0.7411765 0.7411765 0.7411765 0.7529413 0.7529413 0.7529413 0.7529413 0.5450981 0.5450981 0.5450981 0.5450981 0.7960785 0.7960785 0.7960785 0.7960785 0.8000001 0.8000001 0.8000001 0.8000001 0.4705883 0.4705883 0.4705883 0.4705883 0.4196079 0.4196079 0.4196079 0.4196079 0.7607844 0.7607844 0.7607844 0.7607844 0.9019608 0.9019608 0.9019608 0.9019608 0.6 0.6 0.6 0.6 0.3176471 0.3176471 0.3176471 0.3176471 0.764706 0.764706 0.764706 0.764706 0.7803922 0.7803922 0.7803922 0.7803922 0.9058824 0.9058824 0.9058824 0.9058824 0.4980392 0.4980392 0.4980392 0.4980392 0.4039216 0.4039216 0.4039216 0.4039216 0.4313726 0.4313726 0.4313726 0.4313726 0.627451 0.627451 0.627451 0.627451 0.7843138 0.7843138 0.7843138 0.7843138 0.8470589 0.8470589 0.8470589 0.8470589 0.5411765 0.5411765 0.5411765 0.5411765 0.8156863 0.8156863 0.8156863 0.8156863 0.8117648 0.8117648 0.8117648 0.8117648 0.7333333 0.7333333 0.7333333 0.7333333 0.7294118 0.7294118 0.7294118 0.7294118 0.6039216 0.6039216 0.6039216 0.6039216 0.2862745 0.2862745 0.2862745 0.2862745 0.6627451 0.6627451 0.6627451 0.6627451 0.4 0.4 0.4 0.4 0.5803922 0.5803922 0.5803922 0.5803922 0.6980392 0.6980392 0.6980392 0.6980392 0.4392157 0.4392157 0.4392157 0.4392157 0.7490196 0.7490196 0.7490196 0.7490196 0.8078432 0.8078432 0.8078432 0.8078432 0.2588235 0.2588235 0.2588235 0.2588235 0.5607843 0.5607843 0.5607843 0.5607843 0.5882353 0.5882353 0.5882353 0.5882353 0.5921569 0.5921569 0.5921569 0.5921569 0.7764707 0.7764707 0.7764707 0.7764707 0.572549 0.572549 0.572549 0.572549 0.4784314 0.4784314 0.4784314 0.4784314 0.9254903 0.9254903 0.9254903 0.9254903 0.882353 0.882353 0.882353 0.882353 0.5960785 0.5960785 0.5960785 0.5960785 0.3921569 0.3921569 0.3921569 0.3921569 0.5764706 0.5764706 0.5764706 0.5764706 0.4117647 0.4117647 0.4117647 0.4117647 0.3372549 0.3372549 0.3372549 0.3372549 0.6941177 0.6941177 0.6941177 0.6941177 0.9921569 0.9921569 0.9921569 0.9921569 0.8627452 0.8627452 0.8627452 0.8627452 0.9333334 0.9333334 0.9333334 0.9333334 0.8901961 0.8901961 0.8901961 0.8901961 0.7725491 0.7725491 0.7725491 0.7725491 0.254902 0.254902 0.254902 0.254902 0.5490196 0.5490196 0.5490196 0.5490196 0.8509805 0.8509805 0.8509805 0.8509805 0.682353 0.682353 0.682353 0.682353 0.8392158 0.8392158 0.8392158 0.8392158 0.5843138 0.5843138 0.5843138 0.5843138 0.5137255 0.5137255 0.5137255 0.5137255 0.6235294 0.6235294 0.6235294 0.6235294 0.5568628 0.5568628 0.5568628 0.5568628 0.5529412 0.5529412 0.5529412 0.5529412 0.8235295 0.8235295 0.8235295 0.8235295 0.9490197 0.9490197 0.9490197 0.9490197 0.7568628 0.7568628 0.7568628 0.7568628 0.4156863 0.4156863 0.4156863 0.4156863 0.8666667 0.8666667 0.8666667 0.8666667 0.6196079 0.6196079 0.6196079 0.6196079 0.8784314 0.8784314 0.8784314 0.8784314 0.372549 0.372549 0.372549 0.372549 0.9725491 0.9725491 0.9725491 0.9725491 0.227451 0.227451 0.227451 0.227451 0.6901961 0.6901961 0.6901961 0.6901961 0.7686275 0.7686275 0.7686275 0.7686275 0.7137255 0.7137255 0.7137255 0.7137255 0.6666667 0.6666667 0.6666667 0.6666667 0.9764706 0.9764706 0.9764706 0.9764706 0.6431373 0.6431373 0.6431373 0.6431373 0.8431373 0.8431373 0.8431373 0.8431373 0.8862746 0.8862746 0.8862746 0.8862746 0.2627451 0.2627451 0.2627451 0.2627451 0.2196079 0.2196079 0.2196079 0.2196079 0.8039216 0.8039216 0.8039216 0.8039216 0.7215686 0.7215686 0.7215686 0.7215686 0.9411765 0.9411765 0.9411765 0.9411765 0.2745098 0.2745098 0.2745098 0.2745098 0.3019608 0.3019608 0.3019608 0.3019608 0.2470588 0.2470588 0.2470588 0.2470588 0.2352941 0.2352941 0.2352941 0.2352941 0.3647059 0.3647059 0.3647059 0.3647059 0.2980392 0.2980392 0.2980392 0.2980392 0.3254902 0.3254902 0.3254902 0.3254902 0.282353 0.282353 0.282353 0.282353 0.2666667 0.2666667 0.2666667 0.2666667 0.7019608 0.7019608 0.7019608 0.7019608 0.7058824 0.7058824 0.7058824 0.7058824 0.9450981 0.9450981 0.9450981 0.9450981 0.7176471 0.7176471 0.7176471 0.7176471 0.2784314 0.2784314 0.2784314 0.2784314 0.3215686 0.3215686 0.3215686 0.3215686</float_array>
					<technique_common>
						<accessor source="#polygon0_ColorArr0" count="139" stride="4">
							<param name="R" type="float" />
							<param name="G" type="float" />
							<param name="B" type="float" />
							<param name="A" type="float" />
						</accessor>
					</technique_common>
				</source>
				<source id="polygon0_UVs0">
					<float_array id="polygon0_UVArr0" count="766">0.7630005 0.05337524 0.7398376 0.1478271 0.7507324 0.2165527 0.7629395 0.2227478 0.7884827 0.2378845 0.8180237 0.1940613 0.8179016 0.1987915 0.8186951 0.1037598 0.8201294 0.1094055 0.7905579 0.05102539 0.76828 0.05648804 0.7523804 0.06716919 0.7435608 0.9844055 0.7435608 0.9248047 0.7779236 0.9946899 0.7779236 0.9257813 0.8145752 0.9079895 0.813446 0.7278748 0.8626404 0.9036865 0.8474426 0.722168 0.9378052 0.9310303 0.9298096 0.7574463 0.9984131 0.7113342 0.9309998 0.7377625 0.9382019 0.5844116 0.8582153 0.5818176 0.8124084 0.5819397 0.8190918 0.09280396 0.8188171 0.1998901 0.765625 0.2191772 0.6198425 0.1465454 0.59729 0.1366577 0.7318115 0.1420288 0.5875549 0.07919312 0.5982056 0.02484131 0.6220398 0.1112366 0.6802063 0.1730347 0.7318115 0.2207642 0.7012634 0.2348938 0.3424988 0.1915894 0.3864746 0.2041016 0.3233337 0.1644592 0.3815308 0.1511841 0.3503418 0.1066895 0.3539734 0.09616089 0.3439331 0.08837891 0.3649292 0.06454468 0.324707 0.03344727 0.3678284 0.03912354 0.3164673 0.00668335 0.7322998 0.3412781 0.7357483 0.4287415 0.6750183 0.3678894 0.6862488 0.488678 0.6302795 0.4901428 0.6325378 0.6097107 0.5222168 0.6517029 0.6453552 0.758606 0.5222168 0.8081055 0.5871582 0.8354797 0.7436218 0.9840698 0.7777405 0.9951172 0.7436218 0.9248352 0.7777405 0.9261475 0.7436218 0.7106628 0.7778931 0.7215271 0.7779236 0.7164612 0.813446 0.7232666 0.8124084 0.5812988 0.8579712 0.5810852 0.3894653 0.1502991 0.3773804 0.1295166 0.413208 0.1476746 0.4013062 0.07571411 0.08508301 0.1221008 0.09109497 0.2372131 0.05154419 0.09390259 0.003997803 0.1925049 0.003997803 0.08929443 0.01986694 0.01226807 0.04669189 0.02163696 0.003997803 0.00668335 0.05706787 0.03793335 0.236908 0.5174255 0.2492065 0.5484314 0.2483521 0.5868835 0.2280579 0.5919189 0.2073364 0.608429 0.186676 0.5917969 0.1663818 0.5866394 0.1656799 0.5481567 0.1781006 0.5172424 0.1844788 0.5073853 0.4815979 0.9372559 0.4416504 0.9639893 0.4706421 0.7356873 0.40625 0.9667358 0.40625 0.6923523 0.3418274 0.7356873 0.3588562 0.6199646 0.3099976 0.6170349 0.3047791 0.4988403 0.08950806 0.05889893 0.06976318 0.04144287 0.2828979 0.8693542 0.2805481 0.8677063 0.2774353 0.8766785 0.2760925 0.8725281 0.2758484 0.8878479 0.2744751 0.8882751 0.2718811 0.8842163 0.2744751 0.8768005 0.9978333 0.5791931 0.9378662 0.5837097 0.9978333 0.7106628 0.9309692 0.7377625 0.9300842 0.7578125 0.8476257 0.7220154 0.9376221 0.9315796 0.8625488 0.9040527 0.9403687 0.9866943 0.115448 0.9098206 0.1295776 0.8996887 0.1418762 0.9159851 0.1434021 0.9166565 0.1365967 0.9473877 0.1414795 0.9288635 0.1307068 0.9507141 0.1348267 0.9333496 0.1125793 0.9537048 0.7435608 0.7105713 0.7780762 0.7219543 0.813324 0.7230225 0.3713074 0.9646606 0.4060364 0.9663086 0.4060364 0.9953308 0.4418945 0.9638672 0.429718 0.9951172 0.4060364 0.9672546 0.4060364 0.9961548 0.3823547 0.9951172 0.07452393 0.4797363 0.0473938 0.4338379 0.0473938 0.4545593 0.02026367 0.4797363 0.02911377 0.5714111 0.06564331 0.5714111 0.0473938 0.6257935 0.06314087 0.4249573 0.007232666 0.3850098 0.05963135 0.2988281 0.007232666 0.2581482 0.007232666 0.397583 0.0557251 0.4321899 0.09234619 0.4359131 0.8591309 0.1263123 0.8124695 0.1017151 0.8684998 0.08016968 0.8008728 0.02920532 0.8811646 0.008270264 0.801239 0.003845215 0.8515625 0.002075195 0.993866 0.1022644 0.9761047 0.07000732 0.9829102 0.1597595 0.950531 0.0619812 0.937561 0.117981 0.9353333 0.06924438 0.9199829 0.04931641 0.2798462 0.8651428 0.2845764 0.8637085 0.2880859 0.8665466 0.2900085 0.8570251 0.2911072 0.8604126 0.1125793 0.9637146 0.1125793 0.9596252 0.2940979 0.6099548 0.285614 0.6669312 0.2498169 0.6449585 0.2848206 0.7898254 0.229126 0.7510376 0.263031 0.8682251 0.2305298 0.8552856 0.6225891 0.3154602 0.5222168 0.3129883 0.5222168 0.4859924 0.1361389 0.9222717 0.1331482 0.9093323 0.1296082 0.8986206 0.1378479 0.9207458 0.07208252 0.6072083 0.08792114 0.5671692 0.0916748 0.4793701 0.5222168 0.2718506 0.5222168 0.261261 0.003082275 0.4793701 0.006866455 0.5671692 0.02270508 0.6072083 0.4536133 0.6199646 0.35849 0.438446 0.3118591 0.3901367 0.4062805 0.0201416 0.411377 0.07150269 0.4023438 0.0715332 0.3935242 0.08755493 0.3846741 0.07159424 0.3756714 0.07159424 0.3806763 0.02020264 0.8049622 0.0994873 0.8519897 0.1119995 0.8005981 0.05349731 0.8753967 0.06906128 0.858429 0.03155518 0.8910217 0.04452515 0.8922119 0.02233887 0.3463135 0.3344421 0.40625 0.3058472 0.45401 0.438446 0.4661865 0.3344421 0.5006409 0.3901367 0.8148193 0.9077148 0.8135681 0.7276001 0.1915283 0.6199341 0.1838379 0.7432251 0.2778931 0.8701477 0.197998 0.8423767 0.7366943 0.5541687 0.6879578 0.5769348 0.2075195 0.5048218 0.207428 0.5504456 0.8165894 0.1037292 0.8437195 0.1048584 0.8164673 0.1869202 0.873291 0.1651917 0.8686523 0.2359009 0.9984131 0.925354 0.9984131 0.9847717 0.9404297 0.9870911 0.1368713 0.6439514 0.1438293 0.8554688 0.007110596 0.9489746 0.1125793 0.9028931 0.007110596 0.7212219 0.6332092 0.2003784 0.8680725 0.04904175 0.9145813 0.05252075 0.8678589 0.1314087 0.910553 0.1248779 0.9117126 0.2347717 0.7780457 0.5801697 0.7436218 0.5791931 0.2323303 0.9647217 0.2478333 0.9102173 0.1790771 0.9814453 0.2221375 0.869812 0.1767273 0.8799133 0.3934937 0.02099609 0.9158936 0.1245422 0.9146729 0.2344971 0.9374084 0.2350159 0.5077209 0.5054626 0.9504395 0.0619812 0.937439 0.117981 0.9685364 0.2472229 0.9372864 0.2350159 0.8921814 0.02218628 0.8909912 0.04428101 0.858429 0.03140259 0.8753662 0.06878662 0.8005676 0.05328369 0.2824097 0.8678284 0.9978333 0.9840698 0.9978333 0.9248352 0.7781067 0.7162781 0.7435608 0.5798645 0.7781982 0.5808411 0.8250122 0 0.7990417 0.02096558 0.6712952 0.2101746 0.2846069 0.8581848 0.007110596 0.983429 0.2305298 0.5075378 0.2323914 0.9646606 0.1790771 0.9815063 0.2477417 0.9104004 0.2221375 0.8696899 0.1766968 0.8799744 0.1567078 0.927063 0.6421204 0.8431396 0.3302307 0.9372559 0.3709717 0.9639893 0.9760437 0.07000732 0.8049622 0.09915161 0.8519592 0.1116028 0.8591309 0.1264038 0.8684998 0.08023071 0.8125 0.1017761 0.8377686 0.2345581 0.8181458 0.2314453 0.5025024 0.6298218 0.8777771 0.2480164 0.40625 0.2615356 0.8165894 0.1037903 0.8163757 0.1869202 0.843811 0.1048584 0.8734436 0.1652222 0.9352417 0.0692749 0.9198608 0.04931641 0.915741 0.1245728 0.9145508 0.2344971 0.8687744 0.2359314 0.8378601 0.2345581 0.7990417 0.02093506 0.9685974 0.2472229 0.8734436 0.1633301 0.8722839 0.1086731 0.1326904 0.6176758 0.13797 0.5140076 0.1062622 0.6113892 0.1565857 0.9268494 0.873291 0.1633301 0.8721313 0.1086731 0.9984131 0.5800171 0.5048218 0.04293823 0.5047913 0.02075195 0.5285645 0.006713867 0.5048218 0.06033325 0.5399475 0.05334473 0.5465698 0.1958008 0.5571289 0.1341248 0.5587463 0.2026672 0.5708313 0.1610413 0.5591736 0.203125 0.5473022 0.1056213 0.5474243 0.1967468 0.5050354 0.1799927 0.5380249 0.2439575 0.5050659 0.2021484 0.5050659 0.201416 0.5050354 0.1785583 0.7414551 0.2588806 0.7851257 0.2593689 0.7404175 0.3502197 0.8241577 0.3572693 0.8233032 0.3911438 0.8660278 0.3842773 0.844696 0.5048828 0.8768921 0.5104065 0.8362122 0.2583313 0.8771667 0.2590637 0.9184265 0.3277893 0.9186096 0.3936157 0.9639893 0.3765564 0.9191895 0.4838867 0.9572449 0.4594421 0.9885254 0.2588806 0.9584961 0.2582397 0.739563 0.4577332 0.7910461 0.4754333 0.7403259 0.3833313 0.5487976 0.01376343 0.5438538 0.03814697 0.9177551 0.2583313 0.9945679 0.3670959 0.9944763 0.3779297 0.9883423 0.458252 0.7290649 0.2597351 0.6810608 0.2850647 0.6203613 0.2870789 0.4528809 0.009277344 0.432373 0.03173828 0.4723511 0.0513916 0.4249573 0.2100525 0.4708862 0.2157288 0.4367981 0.2303162 0.4597473 0.2294922 0.4676208 0.2692261 0.4984741 0.3146973 0.3448486 0.2692261 0.3140259 0.3146973 0.7950745 0.5137939 0.7398071 0.4596558 0.7902222 0.4767456</float_array>
					<technique_common>
						<accessor source="#polygon0_UVArr0" count="383" stride="2">
							<param name="S" type="float" />
							<param name="T" type="float" />
						</accessor>
					</technique_common>
				</source>
				<vertices id="polygon0_Vertices">
					<input semantic="POSITION" source="#polygon0_Positions" />
				</vertices>
				<triangles material="mario_all_tx" count="635">
					<input semantic="VERTEX" source="#polygon0_Vertices" offset="0" />
					<input semantic="NORMAL" source="#polygon0_Normals" offset="1" />
					<input semantic="COLOR" source="#polygon0_Colors0" set="0" offset="2" />
					<input semantic="TEXCOORD" source="#polygon0_UVs0" set="0" offset="3" />
					<p>2 2 2 1 1 1 1 1 0 0 0 0 3 3 1 2 1 1 1 1 2 2 2 1 4 4 3 3 3 3 1 2 2 2 2 1 5 5 4 4 3 3 1 2 4 4 3 3 6 6 5 5 5 5 4 4 4 4 3 3 7 7 6 6 5 5 4 4 6 6 5 5 8 8 7 7 7 7 6 6 6 6 5 5 9 9 8 8 7 7 6 6 8 8 7 7 10 10 9 9 9 9 8 8 8 8 7 7 11 11 10 10 9 9 8 8 10 10 9 9 12 12 11 11 11 11 10 10 10 10 9 9 13 13 12 1 11 11 10 10 12 12 11 11 1 1 1 1 13 13 12 1 12 12 11 11 3 3 1 2 13 13 12 1 1 1 1 1 16 16 12 14 15 15 14 13 14 14 13 12 17 17 15 15 15 15 14 13 16 16 12 14 18 18 16 16 17 17 15 15 16 16 12 14 19 19 1 17 17 17 15 15 18 18 16 16 20 20 8 18 19 19 1 17 18 18 16 16 21 21 17 19 19 19 1 17 20 20 8 18 22 22 2 20 21 21 17 19 20 20 8 18 23 23 18 21 21 21 17 19 22 22 2 20 24 24 19 22 23 23 18 21 22 22 2 20 25 25 20 23 23 23 18 21 24 24 19 22 26 26 21 24 25 25 20 23 24 24 19 22 21 21 17 19 25 25 20 23 26 26 21 24 27 27 21 25 21 21 17 19 26 26 21 24 28 28 21 26 21 21 17 19 27 27 21 25 31 31 24 28 30 30 23 7 29 29 22 27 32 32 25 5 30 30 23 7 31 31 24 28 33 33 4 4 32 32 25 5 31 31 24 28 34 34 26 6 32 32 25 5 33 33 4 4 35 35 17 29 34 34 26 6 33 33 4 4 36 36 10 10 34 34 26 6 35 35 17 29 37 37 27 1 36 36 10 10 35 35 17 29 38 38 28 11 36 36 10 10 37 37 27 1 39 39 1 1 38 38 28 11 37 37 27 1 40 40 29 0 38 38 28 11 39 39 1 1 41 41 2 1 40 40 29 0 39 39 1 1 44 44 32 32 43 43 31 31 42 42 30 30 45 45 33 33 43 43 31 31 44 44 32 32 46 46 34 34 45 45 33 33 44 44 32 32 47 47 20 35 45 45 33 33 46 46 34 34 44 44 32 32 47 47 20 35 46 46 34 34 48 48 35 36 47 47 20 35 44 44 32 32 49 49 36 36 48 48 35 36 44 44 32 32 50 50 37 37 48 48 35 36 49 49 36 36 51 51 38 38 50 50 37 37 49 49 36 36 54 54 41 41 53 53 40 40 52 52 39 39 55 55 42 42 53 53 40 40 54 54 41 41 56 56 43 43 55 55 42 42 54 54 41 41 57 57 44 44 55 55 42 42 56 56 43 43 58 58 44 45 57 57 44 44 56 56 43 43 59 59 1 46 57 57 44 44 58 58 44 45 60 60 45 47 59 59 1 46 58 58 44 45 61 61 46 48 59 59 1 46 60 60 45 47 62 62 47 49 61 61 46 48 60 60 45 47 65 65 37 52 64 64 40 51 63 63 48 50 66 66 49 53 64 64 40 51 65 65 37 52 67 67 1 54 66 66 49 53 65 65 37 52 68 68 50 55 66 66 49 53 67 67 1 54 69 69 1 56 68 68 50 55 67 67 1 54 70 70 51 57 68 68 50 55 69 69 1 56 71 71 32 58 70 70 51 57 69 69 1 56 72 72 52 59 70 70 51 57 71 71 32 58 75 74 55 62 74 73 54 61 73 14 53 60 76 75 15 63 74 73 54 61 75 74 55 62 77 76 40 64 76 75 15 63 75 74 55 62 78 77 1 65 76 75 15 63 77 76 40 64 79 78 1 66 78 77 1 65 77 76 40 64 80 79 56 67 78 77 1 65 79 78 1 66 81 80 21 68 80 79 56 67 79 78 1 66 82 81 21 69 80 79 56 67 81 80 21 68 85 84 58 40 84 83 41 41 83 82 57 39 86 85 31 42 84 83 41 41 85 84 58 40 87 86 59 70 86 85 31 42 85 84 58 40 88 87 60 71 86 85 31 42 87 86 59 70 89 88 1 72 88 87 60 71 87 86 59 70 90 89 1 46 88 87 60 71 89 88 1 72 91 90 61 73 90 89 1 46 89 88 1 72 92 91 62 48 90 89 1 46 91 90 61 73 95 94 64 76 94 93 63 75 93 92 53 74 96 95 65 77 94 93 63 75 95 94 64 76 97 96 27 78 96 95 65 77 95 94 64 76 98 97 64 76 96 95 65 77 97 96 27 78 99 98 60 79 98 97 64 76 97 96 27 78 100 99 66 80 98 97 64 76 99 98 60 79 101 100 67 81 100 99 66 80 99 98 60 79 102 101 68 82 100 99 66 80 101 100 67 81 104 103 41 85 103 102 48 84 84 83 41 83 105 104 1 86 103 102 48 84 104 103 41 85 106 105 1 87 105 104 1 86 104 103 41 85 107 106 1 88 105 104 1 86 106 105 1 87 108 107 41 89 107 106 1 88 106 105 1 87 109 108 69 90 107 106 1 88 108 107 41 89 54 54 41 91 109 108 69 90 108 107 41 89 52 52 39 92 109 108 69 90 54 54 41 91 74 73 54 95 110 109 65 94 73 14 53 93 111 110 31 96 110 109 65 94 74 73 54 95 112 111 70 97 111 110 31 96 74 73 54 95 16 16 12 98 111 110 31 96 112 111 70 97 113 112 1 99 16 16 12 98 112 111 70 97 18 18 16 100 16 16 12 98 113 112 1 99 64 64 40 101 18 18 16 100 113 112 1 99 98 97 64 76 114 113 71 75 96 95 65 77 115 114 13 74 114 113 71 75 98 97 64 76 116 115 72 102 115 114 13 74 98 97 64 76 102 101 68 82 115 114 13 74 116 115 72 102 117 116 66 103 102 101 68 82 116 115 72 102 98 97 64 76 102 101 68 82 117 116 66 103 116 115 72 102 98 97 64 76 117 116 66 103 102 119 68 106 118 118 3 105 115 117 13 104 119 120 73 107 118 118 3 105 102 119 68 106 101 121 67 108 119 120 73 107 102 119 68 106 120 122 32 109 119 120 73 107 101 121 67 108 121 123 74 107 120 122 32 109 101 121 67 108 62 62 47 110 120 122 32 109 121 123 74 107 61 61 46 111 62 62 47 110 121 123 74 107 77 76 40 114 123 125 21 113 122 124 21 112 124 126 75 115 123 125 21 113 77 76 40 114 125 127 14 116 124 126 75 115 77 76 40 114 126 128 76 117 124 126 75 115 125 127 14 116 127 129 2 118 126 128 76 117 125 127 14 116 128 130 77 119 126 128 76 117 127 129 2 118 129 131 10 120 128 130 77 119 127 129 2 118 132 134 78 123 131 133 1 122 130 132 1 121 133 135 58 124 131 133 1 122 132 134 78 123 134 136 79 125 133 135 58 124 132 134 78 123 135 137 80 126 133 135 58 124 134 136 79 125 136 138 14 127 135 137 80 126 134 136 79 125 114 139 71 128 135 137 80 126 136 138 14 127 96 140 65 129 114 139 71 128 136 138 14 127 137 141 81 28 6 6 5 5 4 4 3 3 8 8 7 7 6 6 5 5 137 141 81 28 138 142 22 27 8 8 7 7 137 141 81 28 10 10 9 9 8 8 7 7 138 142 22 27 0 0 0 0 10 10 9 9 138 142 22 27 12 12 11 11 10 10 9 9 0 0 0 0 1 1 1 1 12 12 11 11 0 0 0 0 97 96 27 78 101 100 67 81 99 98 60 79 139 143 37 79 101 100 67 81 97 96 27 78 95 94 64 76 139 143 37 79 97 96 27 78 140 144 82 80 139 143 37 79 95 94 64 76 141 145 83 82 140 144 82 80 95 94 64 76 101 100 67 81 140 144 82 80 141 145 83 82 143 147 53 31 44 44 32 32 142 146 42 30 144 148 84 33 44 44 32 32 143 147 53 31 145 149 85 35 144 148 84 33 143 147 53 31 146 150 3 34 144 148 84 33 145 149 85 35 44 44 32 32 146 150 3 34 145 149 85 35 144 148 84 33 146 150 3 34 44 44 32 32 17 17 15 15 24 24 19 130 15 15 14 13 147 151 86 131 24 24 19 130 17 17 15 15 19 19 1 17 147 151 86 131 17 17 15 15 148 152 87 132 147 151 86 131 19 19 1 17 21 21 17 19 148 152 87 132 19 19 1 17 28 28 21 26 148 152 87 132 21 21 17 19 149 153 32 135 111 110 31 134 72 72 52 133 110 109 65 136 111 110 31 134 149 153 32 135 150 154 32 137 110 109 65 136 149 153 32 135 71 71 32 138 110 109 65 136 150 154 32 137 151 155 32 139 71 71 32 138 150 154 32 137 152 156 32 140 71 71 32 138 151 155 32 139 155 159 1 143 154 158 89 142 153 157 88 141 156 160 88 144 154 158 89 142 155 159 1 143 153 157 88 141 156 160 88 144 155 159 1 143 157 161 1 145 156 160 88 144 153 157 88 141 158 162 1 146 157 161 1 145 153 157 88 141 159 163 1 147 157 161 1 145 158 162 1 146 162 166 90 150 161 165 66 149 160 164 62 148 163 167 55 151 161 165 66 149 162 166 90 150 164 168 63 152 163 167 55 151 162 166 90 150 165 169 75 150 163 167 55 151 164 168 63 152 166 170 91 153 165 169 75 150 164 168 63 152 167 171 92 154 165 169 75 150 166 170 91 153 34 34 26 6 30 30 23 7 32 32 25 5 168 172 6 8 30 30 23 7 34 34 26 6 36 36 10 10 168 172 6 8 34 34 26 6 169 173 4 9 168 172 6 8 36 36 10 10 38 38 28 11 169 173 4 9 36 36 10 10 40 40 29 0 169 173 4 9 38 38 28 11 172 176 41 157 171 175 1 156 170 174 93 155 173 177 40 158 171 175 1 156 172 176 41 157 174 178 94 159 173 177 40 158 172 176 41 157 4 179 3 160 173 177 40 158 174 178 94 159 137 180 81 161 4 179 3 160 174 178 94 159 69 69 1 56 129 131 10 57 71 71 32 58 175 181 95 55 129 131 10 57 69 69 1 56 176 182 1 54 175 181 95 55 69 69 1 56 177 183 20 53 175 181 95 55 176 182 1 54 178 184 18 52 177 183 20 53 176 182 1 54 137 180 81 164 179 186 96 163 138 185 22 162 180 187 35 165 179 186 96 163 137 180 81 164 181 188 40 166 180 187 35 165 137 180 81 164 182 189 70 167 180 187 35 165 181 188 40 166 183 190 59 168 182 189 70 167 181 188 40 166 93 193 53 104 185 192 98 169 184 191 97 105 186 194 12 170 185 192 98 169 93 193 53 104 94 195 63 171 186 194 12 170 93 193 53 104 187 196 9 172 186 194 12 170 94 195 63 171 188 197 80 173 187 196 9 172 94 195 63 171 154 158 89 174 136 138 14 127 134 136 79 125 189 198 48 175 136 138 14 127 154 158 89 174 190 199 14 127 189 198 48 175 154 158 89 174 96 140 65 129 189 198 48 175 190 199 14 127 94 200 63 128 96 140 65 129 190 199 14 127 192 203 99 178 191 202 81 177 135 201 80 176 193 204 100 179 191 202 81 177 192 203 99 178 194 205 101 180 193 204 100 179 192 203 99 178 195 206 18 181 193 204 100 179 194 205 101 180 196 149 102 182 195 206 18 181 194 205 101 180 198 208 45 47 92 91 62 48 197 207 47 49 90 89 1 46 92 91 62 48 198 208 45 47 199 209 103 44 90 89 1 46 198 208 45 47 88 87 60 71 90 89 1 46 199 209 103 44 200 210 104 43 88 87 60 71 199 209 103 44 176 182 1 54 201 211 67 183 178 184 18 52 202 212 105 184 201 211 67 183 176 182 1 54 203 213 1 185 202 212 105 184 176 182 1 54 67 67 1 54 202 212 105 184 203 213 1 185 69 69 1 56 67 67 1 54 203 213 1 185 114 215 71 171 204 196 28 172 135 214 80 173 205 216 12 170 204 196 28 172 114 215 71 171 115 217 13 104 205 216 12 170 114 215 71 171 206 218 106 169 205 216 12 170 115 217 13 104 118 219 3 105 206 218 106 169 115 217 13 104 207 220 107 125 190 199 14 127 154 158 89 174 188 221 80 126 190 199 14 127 207 220 107 125 208 222 58 124 188 221 80 126 207 220 107 125 209 223 108 186 188 221 80 126 208 222 58 124 167 224 92 187 209 223 108 186 208 222 58 124 208 222 58 124 210 225 46 188 167 224 92 187 211 226 11 122 210 225 46 188 208 222 58 124 212 227 78 123 211 226 11 122 208 222 58 124 213 228 1 121 211 226 11 122 212 227 78 123 214 229 109 189 213 228 1 121 212 227 78 123 158 162 1 146 130 132 1 190 159 163 1 147 215 230 109 191 130 132 1 190 158 162 1 146 153 157 88 141 215 230 109 191 158 162 1 146 134 136 79 192 215 230 109 191 153 157 88 141 154 158 89 142 134 136 79 192 153 157 88 141 216 231 67 183 67 67 1 54 65 65 37 52 202 212 105 184 67 67 1 54 216 231 67 183 217 232 82 193 202 212 105 184 216 231 67 183 201 211 67 183 202 212 105 184 217 232 82 193 218 233 110 194 201 211 67 183 217 232 82 193 156 160 88 144 207 220 107 195 154 158 89 142 214 229 109 196 207 220 107 195 156 160 88 144 157 161 1 145 214 229 109 196 156 160 88 144 213 228 1 197 214 229 109 196 157 161 1 145 159 163 1 147 213 228 1 197 157 161 1 145 141 145 83 82 219 234 72 102 93 92 53 74 220 235 6 103 219 234 72 102 141 145 83 82 95 94 64 76 220 235 6 103 141 145 83 82 219 234 72 102 220 235 6 103 95 94 64 76 93 92 53 74 219 234 72 102 95 94 64 76 221 236 11 198 112 111 70 97 74 73 54 95 113 112 1 99 112 111 70 97 221 236 11 198 222 237 28 199 113 112 1 99 221 236 11 198 64 64 40 101 113 112 1 99 222 237 28 199 63 63 48 200 64 64 40 101 222 237 28 199 223 238 111 203 104 103 41 202 84 83 41 201 106 105 1 204 104 103 41 202 223 238 111 203 224 239 67 205 106 105 1 204 223 238 111 203 108 107 41 206 106 105 1 204 224 239 67 205 54 54 41 207 108 107 41 206 224 239 67 205 226 241 112 210 183 190 59 209 225 240 86 208 182 189 70 211 183 190 59 209 226 241 112 210 227 242 113 212 182 189 70 211 226 241 112 210 180 187 35 213 182 189 70 211 227 242 113 212 179 186 96 214 180 187 35 213 227 242 113 212 222 237 28 199 228 243 76 215 63 63 48 200 229 244 114 216 228 243 76 215 222 237 28 199 230 245 115 217 229 244 114 216 222 237 28 199 231 246 116 218 229 244 114 216 230 245 115 217 232 247 48 219 231 246 116 218 230 245 115 217 234 249 28 221 128 130 77 119 233 248 26 220 126 128 76 117 128 130 77 119 234 249 28 221 80 79 56 67 126 128 76 117 234 249 28 221 82 81 21 69 126 128 76 117 80 79 56 67 236 252 99 178 235 251 1 223 184 250 97 222 237 253 101 180 235 251 1 223 236 252 99 178 167 254 92 179 237 253 101 180 236 252 99 178 238 255 18 181 237 253 101 180 167 254 92 179 197 207 47 110 120 122 32 109 62 62 47 110 119 120 73 107 120 122 32 109 197 207 47 110 92 91 62 111 119 120 73 107 197 207 47 110 91 90 61 224 119 120 73 107 92 91 62 111 194 205 101 180 85 84 58 225 196 149 102 182 89 88 1 223 85 84 58 225 194 205 101 180 192 203 99 178 89 88 1 223 194 205 101 180 118 118 3 222 89 88 1 223 192 203 99 178 66 66 49 53 18 18 16 226 64 64 40 51 20 20 8 227 18 18 16 226 66 66 49 53 68 68 50 55 20 20 8 227 66 66 49 53 70 70 51 57 20 20 8 227 68 68 50 55 11 11 10 10 7 7 6 6 9 9 8 8 239 256 17 29 7 7 6 6 11 11 10 10 13 13 12 1 239 256 17 29 11 11 10 10 3 3 1 2 239 256 17 29 13 13 12 1 240 257 117 70 235 251 1 72 53 53 40 40 241 258 48 71 235 251 1 72 240 257 117 70 55 55 42 42 241 258 48 71 240 257 117 70 57 57 44 44 241 258 48 71 55 55 42 42 242 259 70 51 178 184 18 52 232 247 48 50 177 183 20 53 178 184 18 52 242 259 70 51 233 248 26 226 177 183 20 53 242 259 70 51 128 130 77 227 177 183 20 53 233 248 26 226 243 260 3 3 33 33 4 4 31 31 24 28 244 261 1 2 33 33 4 4 243 260 3 3 41 41 2 1 244 261 1 2 243 260 3 3 39 39 1 1 244 261 1 2 41 41 2 1 245 262 85 228 109 108 69 90 52 52 39 92 246 263 45 229 109 108 69 90 245 262 85 228 103 102 48 84 246 263 45 229 245 262 85 228 105 104 1 86 246 263 45 229 103 102 48 84 76 75 15 63 233 248 26 220 74 73 54 61 234 249 28 221 233 248 26 220 76 75 15 63 78 77 1 65 234 249 28 221 76 75 15 63 80 79 56 67 234 249 28 221 78 77 1 65 41 266 2 232 247 265 75 231 40 264 29 230 248 267 1 233 247 265 75 231 41 266 2 232 249 268 28 234 248 267 1 233 41 266 2 232 22 22 2 20 15 15 14 235 24 24 19 22 14 14 13 236 15 15 14 235 22 22 2 20 70 70 51 237 14 14 13 236 22 22 2 20 250 270 86 240 131 133 1 239 160 269 62 238 130 132 1 121 131 133 1 239 250 270 86 240 159 163 1 241 130 132 1 121 250 270 86 240 250 270 86 240 210 225 46 238 211 226 11 239 161 105 66 242 210 225 46 238 250 270 86 240 160 269 62 238 161 105 66 242 250 270 86 240 47 47 20 35 43 43 31 31 45 45 33 33 42 42 30 30 43 43 31 31 47 47 20 35 251 271 70 243 42 42 30 30 47 47 20 35 248 267 1 246 253 273 70 245 252 272 5 244 254 274 118 247 253 273 70 245 248 267 1 246 255 275 93 248 254 274 118 247 248 267 1 246 79 78 1 66 256 78 21 249 81 80 21 68 122 124 21 250 256 78 21 249 79 78 1 66 77 76 40 64 122 124 21 250 79 78 1 66 236 252 99 253 187 277 9 252 188 276 80 251 257 278 7 254 187 277 9 252 236 252 99 253 185 279 98 255 257 278 7 254 236 252 99 253 162 166 90 150 258 280 119 153 164 168 63 152 193 281 100 154 258 280 119 153 162 166 90 150 160 164 62 148 193 281 100 154 162 166 90 150 259 282 120 256 223 238 111 203 84 83 41 201 224 239 67 205 223 238 111 203 259 282 120 256 54 54 41 207 224 239 67 205 259 282 120 256 181 188 40 166 260 283 118 257 183 190 59 168 170 174 93 258 260 283 118 257 181 188 40 166 172 176 41 259 170 174 93 258 181 188 40 166 230 245 115 217 242 259 70 260 232 247 48 219 221 236 11 198 242 259 70 260 230 245 115 217 222 237 28 199 221 236 11 198 230 245 115 217 262 286 40 262 31 285 24 164 261 284 94 261 263 287 36 263 31 285 24 164 262 286 40 262 264 288 41 264 263 287 36 263 262 286 40 262 266 290 113 267 261 284 94 266 265 289 82 265 267 291 121 268 261 284 94 266 266 290 113 267 247 265 75 269 267 291 121 268 266 290 113 267 141 292 83 106 121 123 74 107 101 121 67 108 184 250 97 105 121 123 74 107 141 292 83 106 93 293 53 104 184 250 97 105 141 292 83 106 268 294 122 224 184 250 97 105 235 251 1 270 121 123 74 107 184 250 97 105 268 294 122 224 61 61 46 111 121 123 74 107 268 294 122 224 127 129 2 118 73 14 53 271 129 131 10 120 75 74 55 272 73 14 53 271 127 129 2 118 77 76 40 114 75 74 55 272 127 129 2 118 269 295 1 273 24 24 19 130 147 151 86 131 270 296 21 274 24 24 19 130 269 295 1 273 271 295 21 275 270 296 21 274 269 295 1 273 269 295 1 273 28 28 21 26 271 295 21 275 148 152 87 132 28 28 21 26 269 295 1 273 147 151 86 131 148 152 87 132 269 295 1 273 227 242 113 212 138 185 22 276 179 186 96 214 0 297 0 277 138 185 22 276 227 242 113 212 226 241 112 210 0 297 0 277 227 242 113 212 145 149 85 35 49 49 36 36 44 44 32 32 272 298 59 243 49 49 36 36 145 149 85 35 273 47 123 182 237 253 101 180 238 255 18 181 53 53 40 225 237 253 101 180 273 47 123 182 274 299 38 38 48 48 35 36 50 50 37 37 275 300 113 278 48 48 35 36 274 299 38 38 251 271 70 243 48 48 35 36 275 300 113 278 47 47 20 35 48 48 35 36 251 271 70 243 276 301 122 278 49 49 36 36 272 298 59 243 51 51 38 38 49 49 36 36 276 301 122 278 186 194 12 170 257 302 7 279 185 192 98 169 187 196 9 172 257 302 7 279 186 194 12 170 250 270 86 240 213 228 1 121 159 163 1 280 211 226 11 122 213 228 1 121 250 270 86 240 246 263 45 229 107 106 1 88 109 108 69 90 105 104 1 86 107 106 1 88 246 263 45 229 83 82 57 281 103 102 48 84 245 262 85 228 84 83 41 83 103 102 48 84 83 82 57 281 277 303 11 279 205 216 12 170 206 218 106 169 204 196 28 172 205 216 12 170 277 303 11 279 118 118 3 105 91 90 61 224 89 88 1 270 119 120 73 107 91 90 61 224 118 118 3 105 204 304 28 284 192 203 99 283 135 201 80 282 277 305 11 285 192 203 99 283 204 304 28 284 206 306 106 286 192 203 99 283 277 305 11 285 118 118 3 287 192 203 99 283 206 306 106 286 110 109 65 59 129 131 10 57 73 14 53 288 71 71 32 58 129 131 10 57 110 109 65 59 128 130 77 227 175 181 95 55 177 183 20 53 129 131 10 57 175 181 95 55 128 130 77 227 72 72 52 290 16 16 12 98 14 14 13 289 111 110 31 96 16 16 12 98 72 72 52 290 265 289 82 291 31 285 24 164 29 307 22 162 261 284 94 261 31 285 24 164 265 289 82 291 253 273 70 293 247 265 75 269 252 272 5 292 267 291 121 268 247 265 75 269 253 273 70 293 249 268 28 296 264 288 41 295 255 275 93 294 278 308 121 158 264 288 41 295 249 268 28 296 212 227 78 123 207 220 107 125 214 229 109 189 208 222 58 124 207 220 107 125 212 227 78 123 191 309 81 186 133 135 58 124 135 137 80 126 193 310 100 187 133 135 58 124 191 309 81 186 133 135 58 124 160 269 62 188 131 133 1 122 193 310 100 187 160 269 62 188 133 135 58 124 215 230 109 189 132 134 78 123 130 132 1 121 134 136 79 125 132 134 78 123 215 230 109 189 278 308 121 158 263 287 36 159 264 288 41 295 243 311 3 160 263 287 36 159 278 308 121 158 41 266 2 232 278 308 121 297 249 268 28 234 243 311 3 298 278 308 121 297 41 266 2 232 268 294 122 73 59 59 1 46 61 61 46 48 235 251 1 72 59 59 1 46 268 294 122 73 86 85 31 42 200 210 104 43 84 83 41 41 88 87 60 71 200 210 104 43 86 85 31 42 60 60 45 47 197 207 47 49 62 62 47 49 198 208 45 47 197 207 47 49 60 60 45 47 210 312 46 148 165 169 75 150 167 171 92 154 161 165 66 149 165 169 75 150 210 312 46 148 183 190 59 245 279 313 1 246 225 240 86 244 260 283 118 247 279 313 1 246 183 190 59 245 233 248 26 299 221 236 11 198 74 73 54 95 242 259 70 260 221 236 11 198 233 248 26 299 199 209 103 44 280 314 38 45 200 210 104 43 198 208 45 47 280 314 38 45 199 209 103 44 170 174 93 248 279 313 1 246 260 283 118 247 171 175 1 300 279 313 1 246 170 174 93 248 281 315 124 301 229 244 114 216 231 246 116 218 228 243 76 215 229 244 114 216 281 315 124 301 226 241 112 304 2 316 2 303 0 297 0 302 279 313 1 305 2 316 2 303 226 241 112 304 267 291 121 306 262 286 40 262 261 284 94 261 253 273 70 307 262 286 40 262 267 291 121 306 254 274 118 308 262 286 40 262 253 273 70 307 255 275 93 309 262 286 40 262 254 274 118 308 171 175 1 310 2 316 2 303 279 313 1 305 173 177 40 311 2 316 2 303 171 175 1 310 29 307 22 276 266 290 113 267 265 289 82 265 40 264 29 312 266 290 113 267 29 307 22 276 239 256 17 29 5 5 4 4 7 7 6 6 3 3 1 2 5 5 4 4 239 256 17 29 174 178 94 313 181 188 40 166 137 180 81 164 172 176 41 259 181 188 40 166 174 178 94 313 37 37 27 1 244 261 1 2 39 39 1 1 35 35 17 29 244 261 1 2 37 37 27 1 59 59 1 46 241 258 48 71 57 57 44 44 235 251 1 72 241 258 48 71 59 59 1 46 29 29 22 27 169 173 4 9 40 40 29 0 30 30 23 7 169 173 4 9 29 29 22 27 123 125 21 113 126 128 76 117 82 81 21 69 124 126 75 115 126 128 76 117 123 125 21 113 142 146 42 30 145 149 85 35 143 147 53 31 272 298 59 243 145 149 85 35 142 146 42 30 209 317 108 177 236 252 99 178 188 276 80 176 167 254 92 179 236 252 99 178 209 317 108 177 72 72 52 133 152 156 32 140 149 153 32 135 71 71 32 138 152 156 32 140 72 72 52 133 225 240 86 315 279 313 1 314 226 241 112 304 2 316 2 303 173 177 40 311 4 179 3 298 77 76 40 114 127 129 2 118 125 127 14 116 195 206 18 318 258 318 119 317 193 204 100 316 235 251 1 223 237 253 101 180 53 53 40 225 236 252 99 253 184 250 97 319 185 279 98 255 238 255 18 318 167 254 92 316 166 319 91 317 203 213 1 185 176 182 1 54 69 69 1 56 72 72 52 59 14 14 13 288 70 70 51 57 218 233 110 194 217 232 82 193 216 231 67 183 249 268 28 300 255 275 93 248 248 267 1 246 252 272 5 321 247 265 75 231 248 267 1 320 31 285 24 161 263 287 36 159 243 311 3 160 70 70 51 237 22 22 2 20 20 20 8 18 21 21 17 19 23 23 18 21 25 25 20 23 26 26 21 24 24 24 19 22 270 296 21 322 87 86 59 70 85 84 58 40 89 88 1 72 55 55 42 42 240 257 117 70 53 53 40 40 140 144 82 80 101 100 67 81 139 143 37 79 100 99 66 80 102 101 68 82 98 97 64 76 190 199 14 127 188 221 80 126 94 200 63 128 96 140 65 129 136 138 14 127 189 198 48 175 163 167 55 151 165 169 75 150 161 165 66 149 255 275 93 309 264 288 41 264 262 286 40 262 266 290 113 267 40 264 29 312 247 265 75 269 244 261 1 2 35 35 17 29 33 33 4 4 168 172 6 8 169 173 4 9 30 30 23 7 284 322 69 325 283 321 22 324 282 320 125 323 285 323 126 326 283 321 22 324 284 322 69 325 286 324 127 327 285 323 126 326 284 322 69 325 287 325 128 328 285 323 126 326 286 324 127 327 288 326 91 329 287 325 128 328 286 324 127 327 289 327 102 330 287 325 128 328 288 326 91 329 290 328 16 331 289 327 102 330 288 326 91 329 291 329 28 332 289 327 102 330 290 328 16 331 292 330 12 333 291 329 28 332 290 328 16 331 293 331 59 334 291 329 28 332 292 330 12 333 296 334 12 333 295 333 125 335 294 332 129 323 297 335 20 334 295 333 125 335 296 334 12 333 298 336 115 332 297 335 20 334 296 334 12 333 299 337 49 336 297 335 20 334 298 336 115 332 300 338 88 330 299 337 49 336 298 336 115 332 301 339 128 328 299 337 49 336 300 338 88 330 302 340 91 329 301 339 128 328 300 338 88 330 303 341 127 327 301 339 128 328 302 340 91 329 304 342 125 335 292 330 12 333 282 320 125 323 293 331 59 334 292 330 12 333 304 342 125 335 305 343 130 337 293 331 59 334 304 342 125 335 306 344 101 336 293 331 59 334 305 343 130 337 307 345 131 338 306 344 101 336 305 343 130 337 287 325 128 328 306 344 101 336 307 345 131 338 308 346 132 339 287 325 128 328 307 345 131 338 285 323 126 326 287 325 128 328 308 346 132 339 310 349 73 342 309 348 66 341 303 347 127 340 311 350 60 343 309 348 66 341 310 349 73 342 312 351 61 344 311 350 60 343 310 349 73 342 313 352 133 345 311 350 60 343 312 351 61 344 314 353 37 346 313 352 133 345 312 351 61 344 315 354 134 347 313 352 133 345 314 353 37 346 313 352 133 345 296 356 12 349 316 355 74 348 317 357 9 350 296 356 12 349 313 352 133 345 318 358 89 351 317 357 9 350 313 352 133 345 319 359 52 352 317 357 9 350 318 358 89 351 320 360 74 353 319 359 52 352 318 358 89 351 218 233 110 354 319 359 52 352 320 360 74 353 321 363 52 352 288 362 91 356 286 361 127 355 322 364 86 350 288 362 91 356 321 363 52 352 323 365 135 351 322 364 86 350 321 363 52 352 324 366 133 345 322 364 86 350 323 365 135 351 325 367 134 347 324 366 133 345 323 365 135 351 326 368 37 346 324 366 133 345 325 367 134 347 328 370 17 359 327 369 136 358 281 315 124 357 329 371 69 344 327 369 136 358 328 370 17 359 330 372 74 342 329 371 69 344 328 370 17 359 331 373 18 343 329 371 69 344 330 372 74 342 332 374 82 341 331 373 18 343 330 372 74 342 333 375 74 348 331 373 18 343 332 374 82 341 301 339 128 328 335 377 132 339 334 376 137 338 336 378 22 326 335 377 132 339 301 339 128 328 303 341 127 327 336 378 22 326 301 339 128 328 337 379 59 325 336 378 22 326 303 341 127 327 309 380 66 360 337 379 59 325 303 341 127 327 316 381 74 361 337 379 59 325 309 380 66 360 317 357 9 350 338 382 16 362 296 356 12 349 302 383 91 356 338 382 16 362 317 357 9 350 319 359 52 352 302 383 91 356 317 357 9 350 303 347 127 355 302 383 91 356 319 359 52 352 310 349 73 363 303 347 127 355 319 359 52 352 218 233 110 354 281 315 124 365 339 384 17 364 328 370 17 364 281 315 124 365 218 233 110 354 321 363 52 352 328 370 17 364 218 233 110 354 330 372 74 363 328 370 17 364 321 363 52 352 286 361 127 355 330 372 74 363 321 363 52 352 178 184 18 52 314 353 37 366 232 247 48 50 315 354 134 367 314 353 37 366 178 184 18 52 201 211 67 183 315 354 134 367 178 184 18 52 320 360 74 368 315 354 134 367 201 211 67 183 218 233 110 194 320 360 74 368 201 211 67 183 285 385 126 371 282 385 125 370 283 385 22 369 304 385 125 372 282 385 125 370 285 385 126 371 308 385 132 373 304 385 125 372 285 385 126 371 305 385 130 374 304 385 125 372 308 385 132 373 307 385 131 375 305 385 130 374 308 385 132 373 329 371 69 344 326 368 37 346 327 369 136 358 324 366 133 345 326 368 37 346 329 371 69 344 331 373 18 343 324 366 133 345 329 371 69 344 333 375 74 348 324 366 133 345 331 373 18 343 322 364 86 350 290 386 16 362 288 362 91 356 292 387 12 349 290 386 16 362 322 364 86 350 324 366 133 345 292 387 12 349 322 364 86 350 333 375 74 348 292 387 12 349 324 366 133 345 337 379 59 325 340 388 22 324 336 378 22 326 294 332 129 323 340 388 22 324 337 379 59 325 316 381 74 361 294 332 129 323 337 379 59 325 296 334 12 333 294 332 129 323 316 381 74 361 333 389 74 361 282 320 125 323 292 330 12 333 284 322 69 325 282 320 125 323 333 389 74 361 332 390 82 360 284 322 69 325 333 389 74 361 286 324 127 327 284 322 69 325 332 390 82 360 312 351 61 344 341 391 122 358 314 353 37 346 339 384 17 359 341 391 122 358 312 351 61 344 310 349 73 342 339 384 17 359 312 351 61 344 342 392 80 353 321 363 52 352 218 233 110 354 323 365 135 351 321 363 52 352 342 392 80 353 325 367 134 347 323 365 135 351 342 392 80 353 294 393 129 370 336 393 22 371 340 393 22 369 295 393 125 372 336 393 22 371 294 393 129 370 311 350 60 343 316 355 74 348 309 348 66 341 313 352 133 345 316 355 74 348 311 350 60 343 318 358 89 351 315 354 134 347 320 360 74 353 313 352 133 345 315 354 134 347 318 358 89 351 319 359 52 352 339 384 17 364 310 349 73 363 218 233 110 354 339 384 17 364 319 359 52 352 231 246 116 218 314 353 37 377 341 391 122 376 232 247 48 219 314 353 37 377 231 246 116 218 326 368 37 366 65 65 37 52 63 63 48 50 325 367 134 367 65 65 37 52 326 368 37 366 325 367 134 367 216 231 67 183 65 65 37 52 342 392 80 368 216 231 67 183 325 367 134 367 326 368 37 379 228 243 76 215 327 369 136 378 63 63 48 200 228 243 76 215 326 368 37 379 295 393 125 372 335 393 132 373 336 393 22 371 343 393 138 374 335 393 132 373 295 393 125 372 300 338 88 330 338 394 16 331 302 340 91 329 298 336 115 332 338 394 16 331 300 338 88 330 297 335 20 334 343 395 138 337 295 333 125 335 299 337 49 336 343 395 138 337 297 335 20 334 299 337 49 336 334 376 137 338 343 395 138 337 301 339 128 328 334 376 137 338 299 337 49 336 289 327 102 330 306 344 101 336 287 325 128 328 291 329 28 332 306 344 101 336 289 327 102 330 339 384 17 359 281 315 124 357 341 391 122 358 341 391 122 382 281 315 124 381 231 246 116 380 281 315 124 381 327 369 136 382 228 243 76 380 216 231 67 183 342 392 80 368 218 233 110 194 330 372 74 342 286 361 127 340 332 374 82 341 334 393 137 375 335 393 132 373 343 393 138 374 338 394 16 331 298 336 115 332 296 334 12 333 293 331 59 334 306 344 101 336 291 329 28 332</p>
				</triangles>
			</mesh>
		</geometry>
		<geometry id="polygon1" name="polygon1">
			<mesh>
				<source id="polygon1_Positions">
					<float_array id="polygon1_PosArr" count="84">13.51367 122.7967 16.45547 15.57422 117.7498 17.07266 6.297166E-07 124.8201 20.12344 5.267405E-07 118.3592 22.12539 -15.57422 117.7498 17.07266 -7.982421 112.576 19.8793 -15.76953 112.2713 17.35391 -15.96484 106.7928 17.63321 7.982422 112.576 19.8793 4.512611E-07 112.2146 22.18399 4.09505E-07 108.8142 22.21524 -4.902343 104.4842 22.65079 6.257813 100.8631 24.26211 9.380859 93.94315 22.26211 2.097317E-07 96.97635 26.79532 1.687837E-07 91.92947 25.11368 -9.380859 93.94315 22.26211 -1.177734 90.26151 23.90079 -8.214844 91.77127 21.76407 -4.714844 85.25174 20.26602 4.902344 104.4842 22.65079 15.96484 106.7928 17.63321 15.76953 112.2713 17.35391 8.214844 91.77127 21.76407 4.714844 85.25174 20.26602 1.177734 90.26151 23.90079 -13.51367 122.7967 16.45547 -6.257812 100.8631 24.26211</float_array>
					<technique_common>
						<accessor source="#polygon1_PosArr" count="28" stride="3">
							<param name="X" type="float" />
							<param name="Y" type="float" />
							<param name="Z" type="float" />
						</accessor>
					</technique_common>
				</source>
				<source id="polygon1_Normals">
					<float_array id="polygon1_NormArr" count="84">0.6000366 0.3339233 0.7269897 0.6065674 0.1688843 0.7769165 -8.453111E-09 0.2685547 0.9632568 -1.057419E-08 0.1233521 0.9923706 -0.6065674 0.1688843 0.7769165 -0.2936401 0.03424074 0.9553223 -0.6809082 0.06152346 0.7297363 -0.647522 0.1785278 0.7408447 0.2936401 0.03424073 0.9553223 -1.205434E-08 0.009277356 0.999939 6.684063E-12 0.7073975 0.7068481 -0.8041382 0.5491333 0.227539 0.8793945 -0.3170776 0.3551025 0.4642334 -0.2807617 0.8400269 -1.606923E-08 -0.9133301 0.4072876 -1.578033E-08 -0.366394 0.930481 -0.4642334 -0.2807617 0.8400269 -0.1749268 -0.4944458 0.8514404 -0.4395752 -0.418518 0.7947388 -0.3417359 -0.753418 0.5617676 0.8041382 0.5491333 0.2275391 0.647522 0.1785278 0.7408447 0.6809082 0.06152344 0.7297363 0.4395752 -0.4185181 0.7947388 0.3417358 -0.753418 0.5617676 0.1749267 -0.4944458 0.8514404 -0.6000366 0.3339234 0.7269897 -0.8793945 -0.3170776 0.3551025</float_array>
					<technique_common>
						<accessor source="#polygon1_NormArr" count="28" stride="3">
							<param name="X" type="float" />
							<param name="Y" type="float" />
							<param name="Z" type="float" />
						</accessor>
					</technique_common>
				</source>
				<source id="polygon1_Colors0">
					<float_array id="polygon1_ColorArr0" count="96">0.254902 0.254902 0.254902 0.254902 0.7372549 0.7372549 0.7372549 0.7372549 0.2862745 0.2862745 0.2862745 0.2862745 0.6078432 0.6078432 0.6078432 0.6078432 1 1 1 1 0.9490197 0.9490197 0.9490197 0.9490197 0.8156863 0.8156863 0.8156863 0.8156863 0.9921569 0.9921569 0.9921569 0.9921569 0.6941177 0.6941177 0.6941177 0.6941177 0.5411765 0.5411765 0.5411765 0.5411765 0.8000001 0.8000001 0.8000001 0.8000001 0.4196079 0.4196079 0.4196079 0.4196079 0.2196079 0.2196079 0.2196079 0.2196079 0.509804 0.509804 0.509804 0.509804 0.4156863 0.4156863 0.4156863 0.4156863 0.7411765 0.7411765 0.7411765 0.7411765 0.7529413 0.7529413 0.7529413 0.7529413 0.9019608 0.9019608 0.9019608 0.9019608 0.5450981 0.5450981 0.5450981 0.5450981 0.7960785 0.7960785 0.7960785 0.7960785 0.9411765 0.9411765 0.9411765 0.9411765 0.7607844 0.7607844 0.7607844 0.7607844 0.7450981 0.7450981 0.7450981 0.7450981 0.2627451 0.2627451 0.2627451 0.2627451</float_array>
					<technique_common>
						<accessor source="#polygon1_ColorArr0" count="24" stride="4">
							<param name="R" type="float" />
							<param name="G" type="float" />
							<param name="B" type="float" />
							<param name="A" type="float" />
						</accessor>
					</technique_common>
				</source>
				<source id="polygon1_UVs0">
					<float_array id="polygon1_UVArr0" count="56">0.9279785 0.9251709 0.9932251 0.8109741 0.5 0.9709473 0.5 0.8247681 0.006774902 0.8109741 0.2471924 0.6939087 0.0006103516 0.6870728 -0.005615234 0.5631104 0.7528076 0.6939087 0.5 0.685791 0.5 0.6088257 0.3447266 0.5108643 0.8259888 0.4886475 0.9887085 0.2730103 0.5 0.3728638 0.5 0.2235718 0.0112915 0.2730103 0.4385986 0.1690674 0.07208252 0.2061768 0.2544556 0.005554199 0.6552734 0.5108643 1.005615 0.5631104 0.9993896 0.6870728 0.9279175 0.2061768 0.7455444 0.005554199 0.5614014 0.1690674 0.07202148 0.9251709 0.1740112 0.4886475</float_array>
					<technique_common>
						<accessor source="#polygon1_UVArr0" count="28" stride="2">
							<param name="S" type="float" />
							<param name="T" type="float" />
						</accessor>
					</technique_common>
				</source>
				<vertices id="polygon1_Vertices">
					<input semantic="POSITION" source="#polygon1_Positions" />
				</vertices>
				<triangles material="mario_eye_tx" count="31">
					<input semantic="VERTEX" source="#polygon1_Vertices" offset="0" />
					<input semantic="NORMAL" source="#polygon1_Normals" offset="1" />
					<input semantic="COLOR" source="#polygon1_Colors0" set="0" offset="2" />
					<input semantic="TEXCOORD" source="#polygon1_UVs0" set="0" offset="3" />
					<p>2 2 2 2 1 1 1 1 0 0 0 0 3 3 3 3 1 1 1 1 2 2 2 2 4 4 1 4 3 3 3 3 2 2 2 2 5 5 4 5 3 3 3 3 4 4 1 4 6 6 5 6 5 5 4 5 4 4 1 4 7 7 6 7 5 5 4 5 6 6 5 6 3 3 3 3 8 8 4 8 1 1 1 1 9 9 7 9 8 8 4 8 3 3 3 3 5 5 4 5 9 9 7 9 3 3 3 3 10 10 8 10 9 9 7 9 5 5 4 5 7 7 6 7 10 10 8 10 5 5 4 5 11 11 9 11 10 10 8 10 7 7 6 7 14 14 12 14 13 13 11 13 12 12 10 12 15 15 13 15 13 13 11 13 14 14 12 14 16 16 14 16 15 15 13 15 14 14 12 14 17 17 15 17 15 15 13 15 16 16 14 16 18 18 16 18 17 17 15 17 16 16 14 16 19 19 17 19 17 17 15 17 18 18 16 18 21 21 19 21 10 10 8 10 20 20 18 20 8 8 4 8 10 10 8 10 21 21 19 21 22 22 20 22 8 8 4 8 21 21 19 21 1 1 1 1 8 8 4 8 22 22 20 22 25 25 22 25 24 24 17 24 23 23 21 23 19 19 17 19 24 24 17 24 25 25 22 25 17 17 15 17 19 19 17 19 25 25 22 25 25 25 22 25 15 15 13 15 17 17 15 17 13 13 11 13 15 15 13 15 25 25 22 25 23 23 21 23 13 13 11 13 25 25 22 25 10 10 8 10 8 8 4 8 9 9 7 9 26 26 23 26 4 4 1 4 2 2 2 2 14 14 12 14 27 27 10 27 16 16 14 16</p>
				</triangles>
			</mesh>
		</geometry>
	</library_geometries>
	<library_controllers>
		<controller id="polygon0_Controller">
			<skin source="#polygon0">
				<bind_shape_matrix>1 0 0 0 0 1 0 0 0 0 1 0 0 0 0 1</bind_shape_matrix>
				<source id="polygon0_Joints">
					<Name_array id="polygon0_JointArr" count="15">skl_root leg_l1 leg_l2 ankle_l1 leg_r1 leg_r2 ankle_r1 spin arm_l1 arm_l2 wrist_l1 arm_r1 arm_r2 wrist_r1 face_1</Name_array>
					<technique_common>
						<accessor source="#polygon0_JointArr" count="15">
							<param name="JOINT" type="Name" />
						</accessor>
					</technique_common>
				</source>
				<source id="polygon0_Matrices">
					<float_array id="polygon0_MatArr" count="240">0 1 0 -49.15403 0 0 1 3.79062 1 0 0 0 0 0 0 1 0 -1 2.115734E-05 49.97998 0 2.115734E-05 1 1.331859 -1 0 0 11.55 0 0 0 1 3.490276E-08 -1.000001 -3.062097E-05 27.00677 -1.353898E-19 3.062097E-05 -1.000001 -1.333256 1 3.490279E-08 1.068756E-12 -11.55 0 0 0 1 3.490275E-08 -3.062097E-05 1.000001 1.333256 3.490276E-08 -1.000001 -3.062097E-05 10.94062 1 3.490386E-08 -3.490172E-08 -11.55 0 0 0 1 -1.553173E-06 -1 1.310631E-06 49.97992 5.398545E-20 1.310631E-06 1 1.332851 -1 1.553173E-06 -2.035636E-12 -11.55008 0 0 0 1 1.64043E-06 -1 -9.40597E-07 27.0068 3.496545E-12 9.405968E-07 -1 -1.332915 1 1.64043E-06 5.039529E-12 11.54999 0 0 0 1 6.980202E-08 -9.405967E-07 1 1.334869 1.64043E-06 -1 -9.40597E-07 10.94065 1 1.64043E-06 -6.980046E-08 11.54999 0 0 0 1 0 1 0 -56.93344 0 0 1 3.79062 1 0 0 0 0 0 0 1 1 0 0 -18.1 0 0 -1 -4.051446 0 1 0 -80.53291 0 0 0 1 1 2.617707E-07 3.490276E-07 -33.77002 -3.490276E-07 -1.757888E-22 1 4.051463 2.617707E-07 -1 9.136517E-14 80.5329 0 0 0 1 1 2.617707E-07 3.490276E-07 -48.77002 -3.490275E-07 -1.047083E-07 1 4.051471 2.617707E-07 -1 -1.047082E-07 80.5329 0 0 0 1 -1 0 0 -18.1 0 0 -1 -4.051446 0 -1 0 80.53291 0 0 0 1 -1 -1.745138E-08 0 -33.77 0 0 1 4.051446 -1.745138E-08 1 0 -80.53291 0 0 0 1 -1 -1.745138E-08 0 -48.77 0 0 1 4.051446 -1.745138E-08 1 0 -80.53291 0 0 0 1 0 0 1 3.79062 0 -1 0 91.14627 1 0 0 0 0 0 0 1</float_array>
					<technique_common>
						<accessor source="#polygon0_MatArr" count="15" stride="16">
							<param type="float4x4" />
						</accessor>
					</technique_common>
				</source>
				<source id="polygon0_Weights">
					<float_array id="polygon0_WeightArr" count="1">1</float_array>
					<technique_common>
						<accessor source="#polygon0_WeightArr" count="1">
							<param type="float" />
						</accessor>
					</technique_common>
				</source>
				<joints>
					<input semantic="JOINT" source="#polygon0_Joints" />
					<input semantic="INV_BIND_MATRIX" source="#polygon0_Matrices" />
				</joints>
				<vertex_weights count="344">
					<input semantic="JOINT" offset="0" source="#polygon0_Joints" />
					<input semantic="WEIGHT" offset="1" source="#polygon0_Weights" />
					<vcount>1 1 1 1 1 1 1 1 1 1 1 1 1 1 1 1 1 1 1 1 1 1 1 1 1 1 1 1 1 1 1 1 1 1 1 1 1 1 1 1 1 1 1 1 1 1 1 1 1 1 1 1 1 1 1 1 1 1 1 1 1 1 1 1 1 1 1 1 1 1 1 1 1 1 1 1 1 1 1 1 1 1 1 1 1 1 1 1 1 1 1 1 1 1 1 1 1 1 1 1 1 1 1 1 1 1 1 1 1 1 1 1 1 1 1 1 1 1 1 1 1 1 1 1 1 1 1 1 1 1 1 1 1 1 1 1 1 1 1 1 1 1 1 1 1 1 1 1 1 1 1 1 1 1 1 1 1 1 1 1 1 1 1 1 1 1 1 1 1 1 1 1 1 1 1 1 1 1 1 1 1 1 1 1 1 1 1 1 1 1 1 1 1 1 1 1 1 1 1 1 1 1 1 1 1 1 1 1 1 1 1 1 1 1 1 1 1 1 1 1 1 1 1 1 1 1 1 1 1 1 1 1 1 1 1 1 1 1 1 1 1 1 1 1 1 1 1 1 1 1 1 1 1 1 1 1 1 1 1 1 1 1 1 1 1 1 1 1 1 1 1 1 1 1 1 1 1 1 1 1 1 1 1 1 1 1 1 1 1 1 1 1 1 1 1 1 1 1 1 1 1 1 1 1 1 1 1 1 1 1 1 1 1 1 1 1 1 1 1 1 1 1 1 1 1 1 1 1 1 1 1 1 1 1 1 1 1 1 1 1 1 1 1 1</vcount>
					<v>10 0 9 0 10 0 9 0 10 0 9 0 9 0 9 0 9 0 9 0 9 0 9 0 9 0 9 0 7 0 11 0 7 0 11 0 7 0 11 0 7 0 11 0 11 0 11 0 11 0 12 0 12 0 12 0 12 0 13 0 12 0 13 0 12 0 12 0 12 0 12 0 12 0 12 0 12 0 12 0 13 0 13 0 14 0 14 0 14 0 14 0 14 0 14 0 14 0 14 0 14 0 14 0 14 0 14 0 14 0 14 0 14 0 14 0 14 0 14 0 14 0 14 0 14 0 0 0 7 0 0 0 7 0 7 0 7 0 7 0 7 0 7 0 7 0 7 0 7 0 8 0 8 0 8 0 8 0 9 0 9 0 9 0 9 0 14 0 14 0 14 0 14 0 14 0 14 0 14 0 14 0 14 0 14 0 14 0 14 0 14 0 14 0 14 0 14 0 14 0 14 0 14 0 14 0 14 0 14 0 14 0 14 0 14 0 14 0 14 0 7 0 7 0 7 0 7 0 14 0 14 0 14 0 14 0 14 0 14 0 14 0 14 0 9 0 9 0 9 0 8 0 8 0 8 0 7 0 7 0 14 0 14 0 14 0 14 0 14 0 14 0 14 0 10 0 10 0 14 0 14 0 14 0 14 0 14 0 14 0 14 0 14 0 11 0 12 0 14 0 14 0 14 0 14 0 14 0 14 0 14 0 14 0 14 0 14 0 14 0 14 0 14 0 14 0 14 0 14 0 14 0 14 0 14 0 12 0 12 0 10 0 10 0 10 0 10 0 10 0 7 0 7 0 7 0 0 0 10 0 10 0 10 0 10 0 10 0 14 0 14 0 14 0 14 0 14 0 14 0 14 0 14 0 14 0 14 0 14 0 14 0 14 0 14 0 14 0 14 0 14 0 0 0 0 0 7 0 14 0 14 0 14 0 14 0 14 0 14 0 14 0 14 0 14 0 14 0 14 0 14 0 0 0 0 0 0 0 14 0 14 0 7 0 0 0 14 0 14 0 10 0 10 0 10 0 0 0 0 0 0 0 0 0 0 0 7 0 8 0 14 0 14 0 14 0 14 0 9 0 14 0 14 0 7 0 13 0 12 0 14 0 14 0 13 0 13 0 13 0 14 0 14 0 13 0 13 0 13 0 13 0 9 0 14 0 14 0 14 0 10 0 13 0 13 0 13 0 13 0 13 0 13 0 13 0 14 0 12 0 12 0 12 0 14 0 14 0 14 0 14 0 14 0 14 0 13 0 10 0 14 0 0 0 6 0 6 0 6 0 6 0 6 0 6 0 6 0 6 0 6 0 6 0 6 0 6 0 3 0 3 0 3 0 3 0 3 0 3 0 3 0 3 0 3 0 3 0 6 0 6 0 6 0 6 0 6 0 3 0 2 0 2 0 1 0 1 0 1 0 1 0 3 0 2 0 1 0 1 0 1 0 4 0 5 0 4 0 4 0 4 0 4 0 4 0 4 0 4 0 5 0 5 0 6 0 6 0 3 0 3 0 3 0 3 0 3 0 1 0 3 0 1 0 4 0 3 0</v>
				</vertex_weights>
			</skin>
		</controller>
		<controller id="polygon1_Controller">
			<skin source="#polygon1">
				<bind_shape_matrix>1 0 0 0 0 1 0 0 0 0 1 0 0 0 0 1</bind_shape_matrix>
				<source id="polygon1_Joints">
					<Name_array id="polygon1_JointArr" count="15">skl_root leg_l1 leg_l2 ankle_l1 leg_r1 leg_r2 ankle_r1 spin arm_l1 arm_l2 wrist_l1 arm_r1 arm_r2 wrist_r1 face_1</Name_array>
					<technique_common>
						<accessor source="#polygon1_JointArr" count="15">
							<param name="JOINT" type="Name" />
						</accessor>
					</technique_common>
				</source>
				<source id="polygon1_Matrices">
					<float_array id="polygon1_MatArr" count="240">0 1 0 -49.15403 0 0 1 3.79062 1 0 0 0 0 0 0 1 0 -1 2.115734E-05 49.97998 0 2.115734E-05 1 1.331859 -1 0 0 11.55 0 0 0 1 3.490276E-08 -1.000001 -3.062097E-05 27.00677 -1.353898E-19 3.062097E-05 -1.000001 -1.333256 1 3.490279E-08 1.068756E-12 -11.55 0 0 0 1 3.490275E-08 -3.062097E-05 1.000001 1.333256 3.490276E-08 -1.000001 -3.062097E-05 10.94062 1 3.490386E-08 -3.490172E-08 -11.55 0 0 0 1 -1.553173E-06 -1 1.310631E-06 49.97992 5.398545E-20 1.310631E-06 1 1.332851 -1 1.553173E-06 -2.035636E-12 -11.55008 0 0 0 1 1.64043E-06 -1 -9.40597E-07 27.0068 3.496545E-12 9.405968E-07 -1 -1.332915 1 1.64043E-06 5.039529E-12 11.54999 0 0 0 1 6.980202E-08 -9.405967E-07 1 1.334869 1.64043E-06 -1 -9.40597E-07 10.94065 1 1.64043E-06 -6.980046E-08 11.54999 0 0 0 1 0 1 0 -56.93344 0 0 1 3.79062 1 0 0 0 0 0 0 1 1 0 0 -18.1 0 0 -1 -4.051446 0 1 0 -80.53291 0 0 0 1 1 2.617707E-07 3.490276E-07 -33.77002 -3.490276E-07 -1.757888E-22 1 4.051463 2.617707E-07 -1 9.136517E-14 80.5329 0 0 0 1 1 2.617707E-07 3.490276E-07 -48.77002 -3.490275E-07 -1.047083E-07 1 4.051471 2.617707E-07 -1 -1.047082E-07 80.5329 0 0 0 1 -1 0 0 -18.1 0 0 -1 -4.051446 0 -1 0 80.53291 0 0 0 1 -1 -1.745138E-08 0 -33.77 0 0 1 4.051446 -1.745138E-08 1 0 -80.53291 0 0 0 1 -1 -1.745138E-08 0 -48.77 0 0 1 4.051446 -1.745138E-08 1 0 -80.53291 0 0 0 1 0 0 1 3.79062 0 -1 0 91.14627 1 0 0 0 0 0 0 1</float_array>
					<technique_common>
						<accessor source="#polygon1_MatArr" count="15" stride="16">
							<param type="float4x4" />
						</accessor>
					</technique_common>
				</source>
				<source id="polygon1_Weights">
					<float_array id="polygon1_WeightArr" count="1">1</float_array>
					<technique_common>
						<accessor source="#polygon1_WeightArr" count="1">
							<param type="float" />
						</accessor>
					</technique_common>
				</source>
				<joints>
					<input semantic="JOINT" source="#polygon1_Joints" />
					<input semantic="INV_BIND_MATRIX" source="#polygon1_Matrices" />
				</joints>
				<vertex_weights count="28">
					<input semantic="JOINT" offset="0" source="#polygon1_Joints" />
					<input semantic="WEIGHT" offset="1" source="#polygon1_Weights" />
					<vcount>1 1 1 1 1 1 1 1 1 1 1 1 1 1 1 1 1 1 1 1 1 1 1 1 1 1 1 1</vcount>
					<v>14 0 14 0 14 0 14 0 14 0 14 0 14 0 14 0 14 0 14 0 14 0 14 0 14 0 14 0 14 0 14 0 14 0 14 0 14 0 14 0 14 0 14 0 14 0 14 0 14 0 14 0 14 0 14 0</v>
				</vertex_weights>
			</skin>
		</controller>
	</library_controllers>
	<library_visual_scenes>
		<visual_scene id="RootNode" name="RootNode">
			<node id="skl_root" name="skl_root" sid="skl_root" type="JOINT">
				<translate>0 49.15403 -3.79062</translate>
				<rotate>0 0 1 90</rotate>
				<rotate>1 0 0 90</rotate>
				<node id="leg_l1" name="leg_l1" sid="leg_l1" type="JOINT">
					<translate>0.825913 2.457704 11.55</translate>
					<rotate>0 0 1 179.9988</rotate>
					<rotate>1 0 0 180</rotate>
					<node id="leg_l2" name="leg_l2" sid="leg_l2" type="JOINT">
						<translate>22.97315 2E-06 0</translate>
						<rotate>0 0 1 -0.002967</rotate>
						<rotate>0 1 0 2E-06</rotate>
						<rotate>1 0 0 180</rotate>
						<node id="ankle_l1" name="ankle_l1" sid="ankle_l1" type="JOINT">
							<translate>16.06616 0 0</translate>
							<rotate>0 0 1 -90</rotate>
							<rotate>0 1 0 -2E-06</rotate>
						</node>
					</node>
				</node>
				<node id="leg_r1" name="leg_r1" sid="leg_r1" type="JOINT">
					<translate>0.825913 2.457704 -11.55</translate>
					<rotate>0 0 1 179.9999</rotate>
					<rotate>0 1 0 8.9E-05</rotate>
					<rotate>1 0 0 -180</rotate>
					<node id="leg_r2" name="leg_r2" sid="leg_r2" type="JOINT">
						<translate>22.97315 -4E-06 0</translate>
						<rotate>0 0 1 -0.000129</rotate>
						<rotate>0 1 0 0.000183</rotate>
						<rotate>1 0 0 180</rotate>
						<node id="ankle_r1" name="ankle_r1" sid="ankle_r1" type="JOINT">
							<translate>16.06616 0 -1E-06</translate>
							<rotate>0 0 1 -90</rotate>
							<rotate>0 1 0 -4E-06</rotate>
						</node>
					</node>
				</node>
				<node id="spin" name="spin" sid="spin" type="JOINT">
					<translate>7.779414 0 0</translate>
					<node id="arm_l1" name="arm_l1" sid="arm_l1" type="JOINT">
						<translate>23.59947 -0.260826 18.1</translate>
						<rotate>0 1 0 -90</rotate>
						<rotate>1 0 0 -180</rotate>
						<node id="arm_l2" name="arm_l2" sid="arm_l2" type="JOINT">
							<translate>15.67 5E-06 -5E-06</translate>
							<rotate>0 0 1 -2E-05</rotate>
							<rotate>0 1 0 -1.5E-05</rotate>
							<rotate>1 0 0 -180</rotate>
							<node id="wrist_l1" name="wrist_l1" sid="wrist_l1" type="JOINT">
								<translate>15 0 0</translate>
								<rotate>1 0 0 6E-06</rotate>
							</node>
						</node>
					</node>
					<node id="arm_r1" name="arm_r1" sid="arm_r1" type="JOINT">
						<translate>23.59947 -0.260826 -18.1</translate>
						<rotate>0 1 0 90</rotate>
						<rotate>1 0 0 180</rotate>
						<node id="arm_r2" name="arm_r2" sid="arm_r2" type="JOINT">
							<translate>15.67 0 0</translate>
							<rotate>0 1 0 -1E-06</rotate>
							<rotate>1 0 0 180</rotate>
							<node id="wrist_r1" name="wrist_r1" sid="wrist_r1" type="JOINT">
								<translate>15 0 0</translate>
							</node>
						</node>
					</node>
					<node id="face_1" name="face_1" sid="face_1" type="JOINT">
						<translate>34.21283 0 0</translate>
						<rotate>0 0 1 90</rotate>
					</node>
				</node>
			</node>
			<node id="polygon0" name="polygon0" type="NODE">
				<instance_controller url="#polygon0_Controller">
					<skeleton>#skl_root</skeleton>
					<bind_material>
						<technique_common>
							<instance_material symbol="mario_all_tx" target="#mario_all_tx">
								<bind_vertex_input semantic="TEXCOORD0" input_semantic="TEXCOORD" input_set="0" />
								<bind_vertex_input semantic="TEXCOORD0" input_semantic="TEXCOORD" input_set="0" />
								<bind_vertex_input semantic="TEXCOORD0" input_semantic="TEXCOORD" input_set="0" />
							</instance_material>
						</technique_common>
					</bind_material>
				</instance_controller>
			</node>
			<node id="polygon1" name="polygon1" type="NODE">
				<instance_controller url="#polygon1_Controller">
					<skeleton>#skl_root</skeleton>
					<bind_material>
						<technique_common>
							<instance_material symbol="mario_eye_tx" target="#mario_eye_tx">
								<bind_vertex_input semantic="TEXCOORD0" input_semantic="TEXCOORD" input_set="0" />
								<bind_vertex_input semantic="TEXCOORD0" input_semantic="TEXCOORD" input_set="0" />
								<bind_vertex_input semantic="TEXCOORD0" input_semantic="TEXCOORD" input_set="0" />
							</instance_material>
						</technique_common>
					</bind_material>
				</instance_controller>
			</node>
		</visual_scene>
	</library_visual_scenes>
	<scene>
		<instance_visual_scene url="#RootNode" />
	</scene>
</COLLADA>