# Blender 4.5.11 LTS
# www.blender.org
mtllib lemming.mtl
o lemming
v -3.686400 25.560801 4.178800
v -1.478000 25.250900 6.983600
v -2.009000 26.636700 4.816700
v -2.348500 27.946301 2.232700
v -4.124700 26.008200 1.152000
v -3.837500 23.153999 3.980100
v -2.186000 23.374001 7.060100
v 0.000000 23.501600 7.837000
v 0.000000 25.480600 7.063500
v 0.000000 27.022100 4.984700
v 0.000000 28.041401 3.503800
v -2.091900 21.254700 3.615900
v 0.000000 21.333799 6.854200
v 0.000000 20.720400 3.755900
v -4.753500 7.098000 5.650600
v 0.000000 6.862300 6.733900
v -3.723300 11.948500 3.914100
v -3.645300 12.689800 3.699800
v -5.329100 12.614100 0.336200
v -5.312100 11.880800 0.451300
v -3.408600 15.499400 3.323200
v -4.930200 15.154900 0.313400
v -7.483200 6.753500 0.767500
v -8.215400 3.601100 0.785200
v -7.519500 4.213800 5.119400
v -6.238500 7.099800 4.543300
v -4.114500 12.464000 -1.736600
v -3.799500 15.273400 -1.923300
v 0.000000 13.325200 -3.490400
v 0.000000 12.063400 -3.324600
v -4.402300 11.725000 -1.847500
v 0.000000 11.311600 -4.098700
v -6.461000 9.753500 0.350300
v -5.074500 9.702400 -2.552900
v -6.154100 6.682600 -3.364300
v -6.950600 3.337700 -3.775700
v 0.000000 1.195200 -6.684400
v -2.310000 1.295900 -6.231500
v -2.021000 2.670900 -6.212000
v 0.000000 2.673500 -6.641100
v 0.000000 9.451400 -5.045000
v 0.000000 6.131300 -5.887900
v 0.000000 14.228000 4.701100
v 0.000000 15.759400 4.535100
v 0.000000 11.703900 5.064700
v 0.000000 12.869400 4.876300
v -4.043500 23.237101 0.740200
v -3.510800 21.668900 0.892300
v 0.000000 20.688400 0.501800
v 0.000000 18.374300 3.510200
v -3.639700 18.773600 1.391800
v 0.000000 19.783199 2.273000
v -3.686000 19.767599 1.319900
v -14.307900 18.318100 2.146500
v -14.276900 19.052099 2.309900
v -17.182199 19.088400 2.129700
v -17.148500 18.470800 2.074100
v -13.078600 18.746300 4.438300
v -3.122900 17.745501 -1.416800
v -12.499700 19.283100 1.401800
v -12.440100 18.149401 1.787500
v -12.440100 18.149401 1.787500
v -13.078600 18.746300 4.438300
v -14.307900 18.318100 2.146500
v -12.261000 19.755699 0.080200
v -14.404300 20.120199 0.035200
v -19.137100 18.101299 2.023400
v -17.311399 19.709700 0.023100
v -19.459400 18.743601 0.014100
v -19.371799 17.931499 0.006600
v -19.043400 18.070000 -1.403300
v -1.654000 4.551100 7.440600
v 0.000000 4.295200 8.333000
v -2.017300 3.572000 7.965900
v 0.000000 2.948300 8.618700
v -17.276600 18.775801 -1.500000
v -14.305900 18.291000 -1.865800
v -17.459600 18.483900 -1.557900
v -14.108700 19.142900 -1.673500
v -12.361500 18.591499 -0.666500
v -13.995100 18.272499 0.326600
v -14.305900 18.291000 -1.865800
v -12.359600 17.954399 0.449200
v -19.043400 18.070000 -1.403300
v -17.459600 18.483900 -1.557900
v -17.040899 18.195299 0.365500
v -19.371799 17.931499 0.006600
v -4.332600 17.666700 0.437400
v -7.921100 19.008200 1.342700
v -12.499700 19.283100 1.401800
v -12.440100 18.149401 1.787500
v -8.198700 17.594900 0.373900
v -4.712400 17.635900 0.356300
v -4.263400 18.915100 1.293000
v -4.332600 17.666700 0.437400
v -3.639700 18.773600 1.391800
v -12.359600 17.954399 0.449200
v -7.737000 18.805700 -0.629300
v -12.361500 18.591499 -0.666500
v -8.072100 19.939100 0.358200
v -7.737000 18.805700 -0.629300
v -12.361500 18.591499 -0.666500
v -12.261000 19.755699 0.080200
v -3.686000 19.767599 1.319900
v -4.161200 19.665100 1.003900
v -4.443200 18.994301 -0.671800
v -4.314100 20.177000 0.289400
v -4.443200 18.994301 -0.671800
v 0.000000 18.149799 -2.882100
v 0.000000 15.523800 -3.478200
v -3.235000 19.063000 -0.786800
v -3.023900 20.559700 0.337900
v 0.000000 20.688400 0.501800
v -3.023900 20.559700 0.337900
v -3.023900 20.559700 0.337900
v -3.235000 19.063000 -0.786800
v -3.023900 20.559700 0.337900
v 0.000000 19.454500 -2.175500
v -3.235000 19.063000 -0.786800
v -17.148500 18.470800 2.074100
v 3.686400 25.560801 4.178800
v 2.009000 26.636700 4.816700
v 1.478000 25.250900 6.983600
v 2.348500 27.946301 2.232700
v 4.124700 26.008200 1.152000
v 2.186000 23.374001 7.060100
v 3.837500 23.153999 3.980100
v 2.091900 21.254700 3.615900
v 0.000000 20.720400 3.755900
v 3.645300 12.689800 3.699800
v 3.723300 11.948500 3.914100
v 5.248900 11.880800 0.451300
v 5.112600 12.614000 0.336200
v 3.408600 15.499400 3.323200
v 4.834000 15.154900 0.313400
v 4.331000 12.464000 -1.736600
v 3.895600 15.273400 -1.923300
v 4.834000 15.154900 0.313400
v 5.112600 12.614000 0.336200
v 5.248900 11.880800 0.451300
v 4.420300 11.725000 -1.847500
v 4.043500 23.237101 0.740200
v 0.000000 20.688400 0.501800
v 3.510800 21.668900 0.892300
v 3.639700 18.773600 1.391800
v 3.686000 19.767599 1.319900
v 3.122900 17.745501 -1.416800
v 4.332600 17.666700 0.437400
v 7.921100 19.008200 1.342700
v 12.440100 18.149401 1.787500
v 12.499700 19.283100 1.401800
v 4.263400 18.915100 1.293000
v 4.712400 17.635900 0.356300
v 8.198700 17.594900 0.373900
v 3.639700 18.773600 1.391800
v 4.332600 17.666700 0.437400
v 12.359600 17.954399 0.449200
v 7.737000 18.805700 -0.629300
v 12.361500 18.591499 -0.666500
v 8.072100 19.939100 0.358200
v 12.261000 19.755699 0.080200
v 12.361500 18.591499 -0.666500
v 7.737000 18.805700 -0.629300
v 4.161200 19.665100 1.003900
v 3.686000 19.767599 1.319900
v 4.443200 18.994301 -0.671800
v 4.314100 20.177000 0.289400
v 4.443200 18.994301 -0.671800
v 3.235000 19.063000 -0.786800
v 3.023900 20.559700 0.337900
v 3.023900 20.559700 0.337900
v 3.023900 20.559700 0.337900
v 3.235000 19.063000 -0.786800
v 3.023900 20.559700 0.337900
v 4.332600 17.666700 0.437400
v 3.235000 19.063000 -0.786800
v -1.274300 30.451401 -8.452600
v -0.034600 31.459400 -11.208700
v -0.368400 29.906000 -8.548100
v 0.093900 30.682501 -8.495700
v -0.481300 31.536501 -8.227700
v -0.515000 30.273399 -5.514500
v 0.315300 30.614500 -5.362900
v 1.018400 32.622700 -7.408700
v 0.383700 31.993099 -8.094800
v 1.741200 33.870300 -9.469800
v 0.609400 31.302900 -8.230200
v 0.609400 31.302900 -8.230200
v 1.547900 31.233500 -7.920900
v 0.217300 30.309200 -5.930200
v 0.553100 30.223301 -5.703200
v 0.217300 30.309200 -5.930200
v -0.808200 29.845699 -5.952500
v -0.818900 30.162800 -5.913200
v -0.482500 30.580299 -5.949900
v -0.436900 30.120199 -5.915100
v -0.436900 30.120199 -5.915100
v 0.093900 30.682501 -8.495700
v -5.165900 4.510000 6.824700
v -7.100000 2.035800 -3.935800
v -4.520500 28.674000 7.440000
v -5.021000 26.724100 8.645400
v -3.034800 28.376400 7.425100
v -2.711000 31.389299 6.894600
v -5.152400 30.913099 6.508500
v -5.401200 33.124500 -0.546400
v -2.605000 34.590000 0.629700
v -1.137000 33.314701 -4.069200
v -4.298000 31.329599 -4.886600
v -6.756500 31.244400 -1.003000
v -5.401200 33.124500 -0.546400
v -1.137000 33.314701 -4.069200
v -5.456400 32.442402 4.393100
v -2.704400 33.896000 5.016300
v -5.625100 29.691601 2.470600
v -5.456400 32.442402 4.393100
v -1.519300 30.743500 5.552200
v -1.130000 33.508598 4.377300
v -2.704400 33.896000 5.016300
v -2.711000 31.389299 6.894600
v -0.297600 31.576500 6.388100
v 0.381300 34.125198 5.338500
v -1.130000 33.508598 4.377300
v -1.519300 30.743500 5.552200
v 2.548700 31.430599 7.118300
v 3.070400 33.873501 4.824600
v 0.381300 34.125198 5.338500
v -0.297600 31.576500 6.388100
v -1.306000 34.405899 0.502500
v -2.605000 34.590000 0.629700
v 0.433200 35.613602 0.649100
v -1.306000 34.405899 0.502500
v 3.069200 35.031502 0.142100
v 0.433200 35.613602 0.649100
v -0.314200 29.552700 7.759300
v 2.891100 29.397900 8.264800
v -0.041300 33.750702 -4.455700
v -1.137000 33.314701 -4.069200
v 2.179100 33.507198 -4.652700
v -0.041300 33.750702 -4.455700
v 5.163300 33.314201 -0.323000
v 5.425700 32.424702 4.494000
v 4.825600 30.936501 6.504300
v 4.670700 29.495300 7.209300
v 5.163300 33.314201 -0.323000
v 5.425700 32.424702 4.494000
v 5.625100 29.691601 2.470600
v 6.756500 31.244400 -1.003000
v 4.825600 30.936501 6.504300
v 3.018800 28.363100 8.708800
v 4.400300 28.087500 8.044400
v 0.185800 30.315701 -7.342700
v 0.185800 30.315701 -7.342700
v -5.899400 28.881701 -5.828500
v -4.298000 31.329599 -4.886600
v -3.763600 25.249100 -7.728800
v 3.763600 25.249100 -7.728800
v 0.000000 24.717300 -7.871100
v 4.298000 31.329599 -4.886600
v 2.179100 33.507198 -4.652700
v 5.899400 28.881701 -5.828500
v 4.298000 31.329599 -4.886600
v 6.756500 31.244400 -1.003000
v 8.053800 28.196400 -2.223000
v 5.625100 29.691601 2.470600
v 7.402200 26.186701 1.700500
v 8.053800 28.196400 -2.223000
v 7.325400 27.012100 -2.837800
v 5.899400 28.881701 -5.828500
v -4.520500 28.674000 7.440000
v -5.152400 30.913099 6.508500
v -5.765200 28.827801 4.003700
v -5.402800 27.326500 6.248800
v 0.932300 28.065599 8.262200
v 4.508400 26.419701 9.797200
v 4.222100 28.290800 2.453100
v 4.670700 29.495300 7.209300
v 4.400300 28.087500 8.044400
v 8.055100 26.638300 -3.632700
v 8.055100 26.638300 -3.632700
v 6.674000 23.376200 -5.106300
v 7.950500 25.052200 -1.105300
v 7.247800 22.500500 -2.399200
v 5.229400 21.388901 -5.790000
v 0.000000 21.479401 -5.697100
v 2.348500 27.946301 2.232700
v 4.508400 26.419701 9.797200
v 6.707800 25.321600 4.599700
v 7.902900 23.084600 3.003100
v 7.950500 25.052200 -1.105300
v 6.459600 24.971500 1.038000
v 6.707800 25.321600 4.599700
v 7.402200 26.186701 1.700500
v 6.933500 22.359400 1.601500
v 7.902900 23.084600 3.003100
v 4.124700 26.008200 1.152000
v 4.043500 23.237101 0.740200
v 6.933500 22.359400 1.601500
v 5.731300 19.930401 -3.162400
v -5.021000 26.724100 8.645400
v -1.822400 28.116600 5.943700
v -1.822400 28.116600 5.943700
v -0.314200 29.552700 7.759300
v -3.034800 28.376400 7.425100
v 0.932300 28.065599 8.262200
v 0.000000 28.041401 3.503800
v -2.348500 27.946301 2.232700
v -4.222100 28.290800 2.453100
v -2.348500 27.946301 2.232700
v 0.000000 19.506800 -3.674900
v 3.023900 20.559700 0.337900
v 0.000000 19.454500 -2.175500
v 5.731300 19.930401 -3.162400
v 3.023900 20.559700 0.337900
v 3.510800 21.668900 0.892300
v -5.899400 28.881701 -5.828500
v -8.053800 28.196400 -2.223000
v -6.756500 31.244400 -1.003000
v -4.298000 31.329599 -4.886600
v -7.402200 26.186701 1.700500
v -5.625100 29.691601 2.470600
v -8.053800 28.196400 -2.223000
v -5.899400 28.881701 -5.828500
v -7.325400 27.012100 -2.837800
v -8.055100 26.638300 -3.632700
v -3.763600 25.249100 -7.728800
v -6.674000 23.376200 -5.106300
v -8.055100 26.638300 -3.632700
v -7.247800 22.500500 -2.399200
v -7.950500 25.052200 -1.105300
v 0.000000 24.717300 -7.871100
v 0.000000 21.479401 -5.697100
v -5.229400 21.388901 -5.790000
v -6.707800 25.321600 4.599700
v -7.902900 23.084600 3.003100
v -6.459600 24.971500 1.038000
v -7.950500 25.052200 -1.105300
v -4.222100 28.290800 2.453100
v -6.707800 25.321600 4.599700
v -7.402200 26.186701 1.700500
v -6.933500 22.359400 1.601500
v -7.902900 23.084600 3.003100
v -4.124700 26.008200 1.152000
v -4.043500 23.237101 0.740200
v -6.933500 22.359400 1.601500
v -5.731300 19.930401 -3.162400
v 0.000000 19.506800 -3.674900
v 0.000000 19.454500 -2.175500
v -3.023900 20.559700 0.337900
v -5.731300 19.930401 -3.162400
v -3.023900 20.559700 0.337900
v -3.510800 21.668900 0.892300
v -2.348500 27.946301 2.232700
v -5.402800 27.326500 6.248800
v -5.765200 28.827801 4.003700
v -4.222100 28.290800 2.453100
v -5.625100 29.691601 2.470600
v -5.267200 3.689400 7.326200
v -7.435700 3.043500 5.353000
v -19.137100 18.101299 2.023400
v -12.361500 18.591499 -0.666500
v -8.164800 2.278300 0.792600
v 4.753500 7.098000 5.650600
v 3.723300 11.948500 3.914100
v 7.483200 6.753500 0.767500
v 7.519500 4.213800 5.119400
v 8.215400 3.601100 0.785200
v 6.238500 7.099800 4.543300
v 7.483200 6.753500 0.767500
v 6.154100 6.682600 -3.364300
v 5.074500 9.702400 -2.552900
v 6.461000 9.753500 0.350300
v 8.215400 3.601100 0.785200
v 6.950600 3.337700 -3.775700
v 2.021000 2.670900 -6.212000
v 2.310000 1.295900 -6.231500
v 14.307900 18.318100 2.146500
v 17.148500 18.470800 2.074100
v 17.182199 19.088400 2.129700
v 14.276900 19.052099 2.309900
v 13.078600 18.746300 4.438300
v 12.499700 19.283100 1.401800
v 12.440100 18.149401 1.787500
v 12.440100 18.149401 1.787500
v 14.307900 18.318100 2.146500
v 13.078600 18.746300 4.438300
v 14.404300 20.120199 0.035200
v 12.261000 19.755699 0.080200
v 19.137100 18.101299 2.023400
v 19.459400 18.743601 0.014100
v 17.311399 19.709700 0.023100
v 19.371799 17.931499 0.006600
v 19.043400 18.070000 -1.403300
v 1.654000 4.551100 7.440600
v 2.017300 3.572000 7.965900
v 17.276600 18.775801 -1.500000
v 14.305900 18.291000 -1.865800
v 14.108700 19.142900 -1.673500
v 17.459600 18.483900 -1.557900
v 12.361500 18.591499 -0.666500
v 13.995100 18.272499 0.326600
v 12.359600 17.954399 0.449200
v 14.305900 18.291000 -1.865800
v 19.043400 18.070000 -1.403300
v 19.371799 17.931499 0.006600
v 17.040899 18.195299 0.365500
v 17.459600 18.483900 -1.557900
v 17.148500 18.470800 2.074100
v 5.165900 4.510000 6.824700
v 7.100000 2.035800 -3.935800
v 6.461000 9.753500 0.350300
v 5.267200 3.689400 7.326200
v 7.435700 3.043500 5.353000
v 4.420300 11.725000 -1.847500
v 5.248900 11.880800 0.451300
v 5.248900 11.880800 0.451300
v 19.137100 18.101299 2.023400
v 12.361500 18.591499 -0.666500
v 8.164800 2.278300 0.792600
v 8.164800 2.278300 0.792600
v 2.310000 1.295900 -6.231500
v 0.000000 3.018300 0.792600
v 0.000000 1.195200 -6.684400
v -6.477500 -0.196800 8.818200
v -6.349900 1.046900 9.152500
v -7.387000 0.985900 6.911900
v -7.365200 -0.215600 6.848600
v -5.795500 1.127400 -3.446100
v -4.120500 0.910000 -3.383600
v -4.071900 -0.009000 -3.062300
v -5.615100 -0.008200 -3.179200
v -5.442200 2.794800 -2.648200
v -7.656000 0.908100 3.959000
v -6.698500 2.958600 3.819900
v -6.048300 2.627200 8.405700
v -4.240800 1.032100 9.925500
v -4.175700 2.897800 9.198400
v -5.615100 -0.008200 -3.179200
v -4.071900 -0.009000 -3.062300
v -7.504200 -0.228300 3.738500
v -4.129500 -0.211800 9.624000
v -6.477500 -0.196800 8.818200
v -7.365200 -0.215600 6.848600
v -6.437300 3.114900 7.442800
v -4.029600 2.771100 -2.770100
v -7.504200 -0.228300 3.738500
v -4.129500 -0.211800 9.624000
v -1.995700 -0.196800 8.980500
v -0.760700 -0.215600 6.783800
v -0.623000 0.937200 6.911900
v -1.852300 1.046900 9.152500
v -2.614300 1.192700 -3.337900
v -2.602400 -0.008200 -3.179200
v -2.775300 2.794800 -2.648200
v -1.517800 2.958600 3.506000
v -0.641400 0.909500 3.760300
v -2.153900 2.627200 8.405700
v -2.602400 -0.008200 -3.179200
v -0.712100 -0.228300 3.738500
v -0.760700 -0.215600 6.783800
v -1.995700 -0.196800 8.980500
v -1.329700 3.114900 7.442800
v -0.712100 -0.228300 3.738500
v -4.088800 3.608200 7.938400
v -4.030400 3.291200 3.506000
v 6.477500 -0.196800 8.818200
v 7.365200 -0.215600 6.848600
v 7.387000 0.985900 6.911900
v 6.349900 1.046900 9.152500
v 5.795500 1.127400 -3.446100
v 5.615100 -0.008200 -3.179200
v 4.071900 -0.009000 -3.815700
v 4.120500 0.910000 -3.383600
v 5.442200 2.794800 -2.648200
v 6.698500 2.958600 3.819900
v 7.656000 0.908100 3.959000
v 6.048300 2.627200 8.405700
v 4.175700 2.897800 9.198400
v 4.240800 1.032100 9.925500
v 5.615100 -0.008200 -3.179200
v 7.504200 -0.228300 3.738500
v 4.071900 -0.009000 -3.815700
v 4.129500 -0.211800 9.624000
v 7.365200 -0.215600 6.848600
v 6.477500 -0.196800 8.818200
v 6.437300 3.114900 7.442800
v 4.029600 2.771100 -2.770100
v 7.504200 -0.228300 3.738500
v 4.129500 -0.211800 9.624000
v 1.995700 -0.196800 8.980500
v 1.852300 1.046900 9.152500
v 0.623000 0.937200 6.911900
v 0.760700 -0.215600 6.783800
v 2.614300 1.192700 -3.337900
v 2.602400 -0.008200 -3.179200
v 2.775300 2.794800 -2.648200
v 0.641400 0.909500 3.760300
v 1.517800 2.958600 3.506000
v 2.153900 2.627200 8.405700
v 2.602400 -0.008200 -3.179200
v 0.712100 -0.228300 3.738500
v 1.995700 -0.196800 8.980500
v 0.760700 -0.215600 6.783800
v 1.329700 3.114900 7.442800
v 0.712100 -0.228300 3.738500
v 4.088800 3.608200 7.938400
v 4.030400 3.291200 3.506000
v -5.442200 2.794800 -2.648200
v -6.698500 2.958600 3.819900
v -4.345800 4.037000 0.192600
v -4.345800 4.037000 0.192600
v -4.219300 4.002000 -0.576500
v -5.442200 2.794800 -2.648200
v -4.029600 2.771100 -2.770100
v -5.442200 2.794800 -2.648200
v -4.219300 4.002000 -0.576500
v -1.517800 2.958600 3.506000
v -2.775300 2.794800 -2.648200
v -3.950700 4.002000 -0.576500
v -3.950700 4.002000 -0.576500
v -4.345800 4.037000 0.192600
v -1.517800 2.958600 3.506000
v -2.775300 2.794800 -2.648200
v -4.029600 2.771100 -2.770100
v -4.219300 4.002000 -0.576500
v -4.219300 4.002000 -0.576500
v -3.950700 4.002000 -0.576500
v -2.775300 2.794800 -2.648200
v -4.030400 3.291200 3.506000
v -1.517800 2.958600 3.506000
v -4.345800 4.037000 0.192600
v -6.698500 2.958600 3.819900
v -4.030400 3.291200 3.506000
v -4.345800 4.037000 0.192600
v 6.698500 2.958600 3.819900
v 5.442200 2.794800 -2.648200
v 4.076200 4.007400 -0.705900
v 4.076200 4.007400 -0.705900
v 4.076300 4.076900 0.215300
v 6.698500 2.958600 3.819900
v 5.442200 2.794800 -2.648200
v 4.029600 2.771100 -2.770100
v 4.076200 4.007400 -0.705900
v 2.775300 2.794800 -2.648200
v 1.517800 2.958600 3.506000
v 4.076300 4.076900 0.215300
v 4.076300 4.076900 0.215300
v 3.931600 3.998400 -0.629100
v 2.775300 2.794800 -2.648200
v 4.029600 2.771100 -2.770100
v 2.775300 2.794800 -2.648200
v 3.931600 3.998400 -0.629100
v 3.931600 3.998400 -0.629100
v 4.076200 4.007400 -0.705900
v 4.029600 2.771100 -2.770100
v 4.030400 3.291200 3.506000
v 6.698500 2.958600 3.819900
v 4.076300 4.076900 0.215300
v 1.517800 2.958600 3.506000
v 4.030400 3.291200 3.506000
v 4.076300 4.076900 0.215300
v 8.164800 2.278300 0.792600
v 7.435700 3.043500 5.353000
v 0.000000 2.948300 8.618700
v -2.017300 3.572000 7.965900
v -2.310000 1.295900 -6.231500
v -7.435700 3.043500 5.353000
v -8.164800 2.278300 0.792600
v -5.267200 3.689400 7.326200
v 2.017300 3.572000 7.965900
v 5.267200 3.689400 7.326200
v -7.100000 2.035800 -3.935800
v 7.100000 2.035800 -3.935800
vn -0.8516 0.3586 0.3823
vn -0.4044 0.5023 0.7643
vn -0.4227 0.7439 0.5177
vn -0.5667 0.7372 0.3680
vn -0.9502 0.2726 0.1509
vn -0.8967 -0.3205 0.3052
vn -0.6475 -0.2090 0.7329
vn -0.0000 -0.0634 0.9980
vn -0.0000 0.6193 0.7851
vn -0.0000 0.8189 0.5740
vn -0.0000 0.8544 0.5195
vn -0.4745 -0.8554 0.2075
vn -0.0000 -0.7888 0.6146
vn -0.0000 -0.9945 0.1047
vn -0.3758 0.4058 0.8331
vn -0.0000 0.4096 0.9123
vn -0.5820 0.3599 0.7293
vn -0.6506 0.2052 0.7312
vn -0.9966 0.0594 -0.0568
vn -0.9600 0.2792 0.0208
vn -0.6351 0.2386 0.7347
vn -0.9807 0.1927 -0.0314
vn -0.9505 0.3073 -0.0461
vn -0.9934 0.0932 -0.0671
vn -0.8589 0.2243 0.4605
vn -0.7399 0.4280 0.5190
vn -0.6505 0.1782 -0.7383
vn -0.6675 0.1653 -0.7261
vn -0.0046 -0.0800 -0.9968
vn -0.0036 0.3809 -0.9246
vn -0.6445 0.4195 -0.6393
vn -0.0002 0.5651 -0.8250
vn -0.9152 0.3984 -0.0607
vn -0.6529 0.4021 -0.6419
vn -0.7001 0.3189 -0.6389
vn -0.7573 0.1957 -0.6231
vn -0.0000 0.0390 -0.9992
vn -0.3185 0.0850 -0.9441
vn -0.3073 0.1538 -0.9391
vn -0.0000 0.1202 -0.9927
vn -0.0000 0.3622 -0.9321
vn -0.0000 0.2615 -0.9652
vn -0.0000 0.1202 0.9927
vn -0.0000 0.2377 0.9714
vn -0.0000 0.2599 0.9656
vn -0.0000 0.1505 0.9886
vn -0.9822 -0.1786 0.0579
vn -0.6033 -0.7328 0.3148
vn -0.0001 -0.9806 0.1962
vn -0.0000 0.5200 0.8542
vn -0.4620 0.1309 0.8772
vn -0.0000 0.7434 0.6689
vn -0.3913 0.4998 0.7727
vn -0.2431 -0.8504 0.4666
vn -0.2910 0.6559 0.6965
vn -0.1969 0.5746 0.7944
vn 0.0245 -0.6539 0.7562
vn 0.1279 0.0228 0.9915
vn -0.6238 0.2843 -0.7280
vn 0.3643 0.8626 0.3509
vn 0.4197 -0.8785 0.2282
vn 0.4197 -0.8785 0.2281
vn 0.1642 0.9228 -0.3486
vn 0.0662 0.9931 -0.0964
vn -0.6057 -0.2802 0.7447
vn -0.2758 0.9547 -0.1114
vn -0.8309 0.5514 -0.0754
vn -0.6481 -0.7603 -0.0444
vn -0.4934 -0.3251 -0.8068
vn -0.2466 0.4850 0.8390
vn -0.0000 0.4060 0.9139
vn -0.2259 0.4677 0.8545
vn -0.0000 0.2075 0.9782
vn -0.1872 0.6002 -0.7776
vn 0.1359 -0.5634 -0.8149
vn -0.0486 -0.4758 -0.8782
vn 0.2474 0.5656 -0.7867
vn 0.5311 -0.1267 -0.8378
vn -0.0791 -0.9966 0.0250
vn 0.1360 -0.5634 -0.8149
vn -0.0517 -0.9976 -0.0460
vn 0.0556 -0.9984 0.0102
vn -0.9406 -0.3392 0.0136
vn 0.0800 0.1271 0.9887
vn -0.0036 0.6687 0.7435
vn 0.0094 -0.4573 0.8893
vn 0.0374 -0.9992 -0.0107
vn 0.0547 -0.9983 -0.0213
vn -0.1224 -0.0613 0.9906
vn -0.9406 -0.3393 0.0136
vn -0.0340 -0.9748 -0.2204
vn -0.0322 -0.0028 -0.9995
vn 0.0476 -0.2677 -0.9623
vn -0.0094 0.9985 -0.0549
vn -0.0322 -0.0029 -0.9995
vn 0.0475 -0.2678 -0.9623
vn -0.0190 0.9421 -0.3347
vn -0.2685 0.5776 0.7709
vn -0.0465 0.0062 -0.9989
vn -0.1659 0.9758 -0.1422
vn -0.0000 0.3396 -0.9406
vn -0.0030 0.1339 -0.9910
vn -0.4183 0.3611 -0.8334
vn -0.0287 -0.4570 0.8890
vn -0.0000 0.8736 0.4866
vn -0.4567 0.8822 0.1146
vn -0.4183 0.3612 -0.8334
vn 0.0001 -0.5166 -0.8562
vn 0.8516 0.3586 0.3823
vn 0.4227 0.7439 0.5177
vn 0.4044 0.5023 0.7643
vn 0.5667 0.7372 0.3680
vn 0.9502 0.2726 0.1509
vn 0.6475 -0.2090 0.7329
vn 0.8967 -0.3205 0.3052
vn 0.4745 -0.8554 0.2075
vn 0.6629 0.2108 0.7184
vn 0.6094 0.2787 0.7423
vn 0.9804 0.1923 0.0420
vn 0.9888 0.1492 0.0036
vn 0.6474 0.2325 0.7258
vn 0.9841 0.1774 0.0011
vn 0.7089 0.1216 -0.6947
vn 0.6830 0.1903 -0.7052
vn 0.9804 0.1923 0.0419
vn 0.6633 0.2304 -0.7120
vn 0.9822 -0.1786 0.0579
vn 0.0001 -0.9806 0.1962
vn 0.6033 -0.7328 0.3148
vn 0.4634 0.1264 0.8771
vn 0.3913 0.4998 0.7727
vn 0.6261 0.2870 -0.7250
vn 0.9276 -0.3722 0.0325
vn -0.0800 0.1271 0.9887
vn -0.0094 -0.4573 0.8893
vn 0.0036 0.6687 0.7435
vn 0.1224 -0.0613 0.9906
vn -0.0547 -0.9983 -0.0213
vn -0.0374 -0.9992 -0.0107
vn 0.9276 -0.3722 0.0326
vn 0.0340 -0.9748 -0.2204
vn 0.0322 -0.0028 -0.9995
vn -0.0476 -0.2677 -0.9623
vn 0.0094 0.9985 -0.0549
vn 0.0190 0.9421 -0.3347
vn -0.0476 -0.2678 -0.9623
vn 0.0322 -0.0029 -0.9995
vn 0.2685 0.5776 0.7709
vn 0.0465 0.0062 -0.9989
vn 0.1659 0.9758 -0.1422
vn 0.4183 0.3611 -0.8334
vn 0.0287 -0.4570 0.8890
vn 0.4567 0.8822 0.1146
vn 0.4183 0.3612 -0.8334
vn 0.9276 -0.3722 0.0327
vn -0.9703 -0.1935 -0.1451
vn 0.1639 0.2672 -0.9496
vn 0.2097 -0.9524 -0.2211
vn 0.9987 -0.0151 0.0477
vn -0.0059 0.9839 0.1786
vn -0.9588 0.2123 0.1887
vn 0.2313 0.6534 0.7208
vn 0.1134 0.8005 0.5885
vn -0.9047 0.2623 -0.3358
vn 0.3021 0.7397 -0.6013
vn -0.3728 -0.5815 -0.7231
vn 0.8214 -0.5311 -0.2077
vn -0.0867 -0.9091 -0.4075
vn 0.8733 -0.4521 0.1815
vn -0.5264 -0.8433 -0.1088
vn -0.9787 0.1986 0.0517
vn 0.2681 0.8252 0.4971
vn 0.8836 -0.4407 0.1582
vn -0.3710 0.4746 0.7982
vn -0.7393 0.1651 -0.6528
vn 0.0988 0.4487 0.8882
vn 0.1092 0.5022 0.8578
vn 0.0087 0.3814 0.9244
vn -0.2969 0.4649 0.8341
vn -0.1934 0.5625 0.8038
vn -0.4282 0.8980 -0.1009
vn -0.4322 0.8981 -0.0812
vn -0.3204 0.8842 -0.3400
vn -0.3987 0.7396 -0.5423
vn -0.8151 0.5779 0.0399
vn -0.8159 0.5671 -0.1126
vn -0.3779 0.7782 -0.5015
vn -0.4495 0.7960 0.4054
vn -0.4959 0.7544 0.4301
vn -0.8738 0.2692 0.4049
vn -0.9974 0.0109 0.0719
vn -0.0002 0.3801 0.9249
vn -0.1802 0.8024 0.5689
vn 0.4986 0.6654 0.5556
vn 0.7791 0.2090 0.5911
vn -0.6704 0.3982 0.6261
vn -0.5781 0.6520 0.4906
vn -0.0001 0.3801 0.9250
vn 0.0864 0.5400 0.8372
vn 0.3454 0.8101 0.4737
vn 0.0773 0.7702 0.6331
vn -0.1745 0.4688 0.8659
vn -0.2288 0.9732 -0.0238
vn 0.1639 0.9861 0.0276
vn -0.5611 0.8277 0.0089
vn -0.2289 0.9731 -0.0238
vn 0.4024 0.9116 -0.0840
vn 0.1905 0.9815 -0.0212
vn -0.3779 0.7782 -0.5016
vn -0.1176 0.4520 0.8842
vn 0.1260 0.4257 0.8960
vn -0.4802 0.7301 -0.4862
vn -0.3780 0.7782 -0.5015
vn 0.1293 0.8493 -0.5119
vn 0.0542 0.8338 -0.5495
vn 0.6180 0.7801 -0.0975
vn 0.5389 0.7386 0.4050
vn 0.3937 0.5423 0.7422
vn 0.4605 0.3632 0.8099
vn 0.8459 0.5271 -0.0819
vn 0.9931 -0.0135 0.1161
vn 0.8495 -0.1060 0.5168
vn 0.7971 0.6030 0.0321
vn 0.9729 -0.2099 0.0972
vn 0.0605 0.4443 0.8939
vn 0.4495 0.5217 0.7251
vn -0.0436 0.6052 -0.7949
vn 0.0390 0.3401 -0.9396
vn -0.5956 0.3437 -0.7261
vn -0.5070 0.5778 -0.6396
vn -0.3165 -0.0965 -0.9437
vn 0.3194 -0.0818 -0.9441
vn -0.0002 -0.2716 -0.9624
vn 0.5571 0.5957 -0.5786
vn 0.5145 0.5695 -0.6411
vn 0.5270 0.3631 -0.7684
vn 0.5072 0.5139 -0.6918
vn 0.9110 0.4120 0.0183
vn 0.9066 0.4221 -0.0000
vn 0.8793 0.3260 0.3473
vn 0.8702 0.3696 0.3258
vn 0.8749 -0.3866 -0.2918
vn 0.9758 0.2178 0.0191
vn 0.9217 0.2891 -0.2587
vn -0.9343 0.1846 0.3050
vn -0.9748 -0.0370 0.2202
vn -0.9723 0.1658 0.1649
vn -0.7680 -0.6350 0.0837
vn -0.1825 0.2606 0.9481
vn 0.1565 0.5712 0.8057
vn 0.0542 -0.6991 0.7129
vn 0.9828 -0.1785 -0.0475
vn 0.9151 -0.3335 -0.2266
vn 0.6635 0.6925 0.2834
vn 0.8573 -0.1179 -0.5011
vn 0.7978 -0.2149 -0.5633
vn 0.9542 -0.2932 -0.0585
vn 0.9183 -0.3800 -0.1108
vn 0.4113 -0.5682 -0.7128
vn -0.0000 -0.6150 -0.7885
vn 0.0489 -0.9648 0.2584
vn 0.2016 -0.9474 -0.2487
vn 0.8716 0.3717 0.3197
vn -0.2082 0.3073 0.9286
vn 0.6197 0.6507 0.4388
vn 0.3737 -0.0144 0.9274
vn -0.5625 -0.7088 0.4257
vn 0.8098 -0.5841 -0.0549
vn 0.8608 -0.4945 -0.1205
vn 0.7894 -0.5572 -0.2577
vn -0.0956 -0.3873 0.9170
vn -0.2538 0.0781 0.9641
vn -0.2170 -0.6774 0.7029
vn 0.5328 -0.8122 -0.2374
vn -0.4306 -0.8861 0.1718
vn 0.3287 -0.8413 0.4292
vn -0.7732 -0.3857 0.5034
vn 0.7326 -0.2187 0.6446
vn -0.5119 -0.8588 0.0207
vn -0.0270 -0.9957 0.0882
vn -0.0755 -0.9361 0.3435
vn 0.3094 -0.6414 0.7021
vn -0.0000 -0.9527 -0.3040
vn -0.0000 -0.5166 -0.8562
vn 0.2836 -0.8814 0.3778
vn 0.1619 -0.7780 0.6071
vn -0.1537 -0.2260 0.9619
vn -0.9066 0.4221 -0.0000
vn -0.9110 0.4120 0.0183
vn -0.5071 0.5778 -0.6395
vn -0.8702 0.3696 0.3258
vn -0.9956 -0.0264 0.0900
vn -0.8749 -0.3866 -0.2918
vn -0.9217 0.2891 -0.2587
vn -0.9758 0.2178 0.0191
vn -0.6635 0.6925 0.2834
vn -0.3165 -0.0966 -0.9437
vn -0.7978 -0.2149 -0.5633
vn -0.8573 -0.1179 -0.5011
vn -0.5956 0.3436 -0.7261
vn -0.9183 -0.3800 -0.1108
vn -0.9542 -0.2932 -0.0585
vn -0.0002 -0.2717 -0.9624
vn -0.4113 -0.5682 -0.7128
vn -0.8716 0.3717 0.3197
vn 0.2082 0.3073 0.9286
vn -0.3737 -0.0144 0.9274
vn -0.6197 0.6507 0.4388
vn 0.5625 -0.7088 0.4257
vn -0.8098 -0.5841 -0.0549
vn -0.8608 -0.4945 -0.1205
vn -0.7894 -0.5572 -0.2577
vn 0.0956 -0.3873 0.9170
vn 0.2538 0.0781 0.9641
vn 0.2170 -0.6774 0.7029
vn -0.5328 -0.8122 -0.2374
vn -0.0001 -0.5166 -0.8562
vn -0.2836 -0.8814 0.3778
vn -0.1619 -0.7780 0.6071
vn 0.1537 -0.2260 0.9619
vn -0.0756 -0.9361 0.3435
vn -0.6132 -0.6988 -0.3683
vn -0.6243 -0.6791 -0.3861
vn -0.6310 -0.6665 -0.3971
vn 0.5625 -0.7088 0.4258
vn -0.8738 0.2693 0.4049
vn -0.3774 0.4747 0.7951
vn -0.8826 0.0304 0.4691
vn -0.6058 -0.2802 0.7447
vn 0.5311 -0.1266 -0.8378
vn -0.9977 -0.0224 -0.0633
vn 0.3758 0.4058 0.8331
vn 0.5594 0.4319 0.7075
vn 0.9505 0.3073 -0.0461
vn 0.8589 0.2243 0.4605
vn 0.9934 0.0932 -0.0671
vn 0.7399 0.4280 0.5190
vn 0.7001 0.3189 -0.6389
vn 0.6531 0.4001 -0.6429
vn 0.9132 0.4031 -0.0598
vn 0.7573 0.1957 -0.6231
vn 0.3073 0.1538 -0.9391
vn 0.3185 0.0850 -0.9441
vn 0.2431 -0.8504 0.4666
vn -0.0245 -0.6539 0.7562
vn 0.1969 0.5746 0.7944
vn 0.2910 0.6559 0.6965
vn -0.1280 0.0228 0.9915
vn -0.3643 0.8626 0.3509
vn -0.4197 -0.8785 0.2281
vn 0.2431 -0.8504 0.4667
vn -0.1278 0.0228 0.9915
vn -0.0662 0.9931 -0.0964
vn -0.1642 0.9228 -0.3486
vn 0.6057 -0.2802 0.7447
vn 0.8309 0.5514 -0.0754
vn 0.2758 0.9547 -0.1114
vn 0.6481 -0.7603 -0.0444
vn 0.4934 -0.3251 -0.8067
vn 0.2466 0.4850 0.8390
vn 0.2259 0.4677 0.8545
vn 0.1872 0.6002 -0.7776
vn -0.1360 -0.5634 -0.8149
vn -0.2474 0.5656 -0.7867
vn 0.0486 -0.4759 -0.8782
vn -0.5311 -0.1268 -0.8378
vn 0.0791 -0.9966 0.0250
vn 0.0517 -0.9976 -0.0460
vn -0.0556 -0.9984 0.0102
vn 0.0486 -0.4758 -0.8782
vn 0.3710 0.4746 0.7982
vn 0.7393 0.1651 -0.6528
vn 0.3774 0.4747 0.7951
vn 0.8826 0.0304 0.4691
vn 0.6483 0.4479 -0.6157
vn 0.8691 0.4936 0.0328
vn 0.8691 0.4936 0.0330
vn -0.5311 -0.1267 -0.8378
vn 0.9977 -0.0224 -0.0633
vn 0.9977 -0.0224 -0.0634
vn 0.0131 -0.9701 0.2422
vn -0.0000 -0.9905 0.1377
vn -0.0000 -0.9715 0.2369
vn -0.5363 -0.6634 0.5218
vn -0.6335 0.1412 0.7608
vn -0.9553 0.1690 0.2427
vn -0.7077 -0.6828 0.1814
vn -0.5716 0.0948 -0.8150
vn 0.0301 -0.0136 -0.9995
vn 0.0122 -0.7996 -0.6004
vn -0.4253 -0.6797 -0.5976
vn -0.6103 0.4169 -0.6736
vn -0.9864 0.1461 -0.0756
vn -0.7274 0.6829 -0.0674
vn -0.5603 0.5549 0.6149
vn -0.0290 0.0852 0.9959
vn -0.0121 0.6337 0.7735
vn -0.6920 -0.7150 -0.0994
vn 0.0013 -0.7283 0.6853
vn -0.5362 -0.6633 0.5219
vn -0.7078 -0.6828 0.1814
vn -0.6214 0.7395 0.2589
vn 0.0074 0.3127 -0.9498
vn -0.6919 -0.7151 -0.0994
vn 0.0012 -0.7283 0.6853
vn 0.4499 -0.6943 0.5617
vn 0.6874 -0.7051 0.1739
vn 0.9659 0.0721 0.2488
vn 0.6203 0.1302 0.7735
vn 0.5554 0.1324 -0.8210
vn 0.4704 -0.6144 -0.6334
vn 0.6492 0.3436 -0.6786
vn 0.7421 0.6598 -0.1180
vn 0.9821 0.1418 -0.1241
vn 0.4938 0.5286 0.6905
vn 0.7060 -0.7013 -0.0985
vn 0.6875 -0.7051 0.1739
vn 0.4500 -0.6943 0.5617
vn 0.6633 0.6716 0.3300
vn -0.0060 0.9661 0.2582
vn 0.0032 0.9986 -0.0521
vn 0.5362 -0.6634 0.5219
vn 0.7077 -0.6828 0.1814
vn 0.9553 0.1690 0.2427
vn 0.6335 0.1412 0.7608
vn 0.6182 0.1607 -0.7694
vn 0.5422 -0.7036 -0.4594
vn -0.0257 -0.5358 -0.8440
vn -0.0168 0.3998 -0.9165
vn 0.6103 0.4169 -0.6736
vn 0.7274 0.6829 -0.0674
vn 0.9864 0.1461 -0.0756
vn 0.5603 0.5549 0.6149
vn 0.0121 0.6337 0.7735
vn 0.0290 0.0852 0.9959
vn 0.5422 -0.7035 -0.4594
vn 0.6921 -0.7150 -0.0992
vn -0.0258 -0.5357 -0.8440
vn -0.0012 -0.7283 0.6853
vn 0.7078 -0.6828 0.1814
vn 0.5363 -0.6633 0.5219
vn 0.6214 0.7395 0.2589
vn -0.0074 0.3127 -0.9498
vn 0.6920 -0.7151 -0.0992
vn -0.4499 -0.6943 0.5617
vn -0.6203 0.1302 0.7735
vn -0.9659 0.0721 0.2488
vn -0.6874 -0.7051 0.1739
vn -0.6018 0.2115 -0.7702
vn -0.5899 -0.6399 -0.4925
vn -0.6492 0.3436 -0.6786
vn -0.9821 0.1418 -0.1241
vn -0.7421 0.6598 -0.1180
vn -0.4938 0.5286 0.6905
vn -0.5899 -0.6398 -0.4926
vn -0.7060 -0.7013 -0.0985
vn -0.6875 -0.7051 0.1739
vn -0.6633 0.6716 0.3300
vn 0.0060 0.9661 0.2582
vn -0.0032 0.9986 -0.0521
vn -0.5739 0.8082 -0.1319
vn -0.5748 0.8077 -0.1313
vn -0.0278 0.8707 -0.4910
vn 0.5789 0.8033 -0.1397
vn 0.2608 0.9612 0.0902
vn 0.0308 0.8728 -0.4871
vn -0.0000 0.8640 -0.5035
vn 0.1284 0.9701 0.2061
vn -0.0941 0.9693 0.2271
vn 0.5506 0.8250 -0.1278
vn 0.4674 0.8815 -0.0666
vn 0.0300 0.8572 -0.5141
vn -0.5340 0.8352 -0.1313
vn -0.7797 0.6215 0.0760
vn -0.0320 0.8665 -0.4982
vn -0.3079 0.8193 -0.4837
vn 0.0933 0.9681 0.2325
vn -0.1278 0.9651 0.2286
vn -0.0897 -0.9897 0.1118
vn -0.0494 -0.9855 0.1623
vn -0.0000 -1.0000 -0.0089
vn -0.1329 -0.9884 0.0730
vn -0.0131 -0.9701 0.2422
vn 0.0494 -0.9855 0.1623
vn 0.0897 -0.9897 0.1118
vn -0.1154 -0.8995 0.4213
vn 0.1329 -0.9884 0.0730
vn 0.1154 -0.8995 0.4213
vn 0.0335 -0.9874 0.1549
vn -0.0335 -0.9874 0.1549
vt 0.269700 0.731800
vt 0.442600 0.649800
vt 0.378900 0.780200
vt 0.306800 0.929800
vt 0.126400 0.827200
vt 0.226100 0.602100
vt 0.398900 0.559200
vt 0.496800 0.545600
vt 0.497300 0.661100
vt 0.498000 0.805400
vt 0.498400 0.905900
vt 0.242900 0.454900
vt 0.496100 0.409400
vt 0.293500 0.339200
vt 0.989000 0.982700
vt 0.991300 0.983900
vt 0.987900 0.985300
vt 0.987700 0.985800
vt 0.985700 0.985500
vt 0.985800 0.985100
vt 0.987200 0.987200
vt 0.985600 0.986900
vt 0.986100 0.982000
vt 0.986100 0.980300
vt 0.988400 0.980700
vt 0.988100 0.982400
vt 0.984400 0.985500
vt 0.984400 0.987000
vt 0.982100 0.986400
vt 0.981900 0.985800
vt 0.984400 0.985200
vt 0.981800 0.985300
vt 0.985900 0.983700
vt 0.984200 0.983800
vt 0.983900 0.982000
vt 0.983700 0.980300
vt 0.979500 0.980400
vt 0.980700 0.980000
vt 0.980800 0.980700
vt 0.979800 0.981100
vt 0.981400 0.984300
vt 0.980600 0.982800
vt 0.989200 0.987300
vt 0.988900 0.988000
vt 0.989800 0.986100
vt 0.989500 0.986700
vt 0.049000 0.635300
vt 0.064600 0.514100
vt 0.098200 0.293100
vt 0.988400 0.989200
vt 0.986200 0.988900
vt 0.988000 0.990000
vt 0.986100 0.989500
vt 0.284600 0.112100
vt 0.300600 0.105600
vt 0.298500 0.171900
vt 0.286200 0.173300
vt 0.266700 0.060800
vt 0.984400 0.988400
vt 0.333700 0.073000
vt 0.326200 0.047700
vt 0.477800 0.071700
vt 0.429400 0.094600
vt 0.478000 0.108300
vt 0.365500 0.074700
vt 0.354900 0.119200
vt 0.290400 0.220100
vt 0.344400 0.179500
vt 0.335700 0.226800
vt 0.334000 0.242100
vt 0.369400 0.233700
vt 0.991300 0.982300
vt 0.992200 0.982600
vt 0.991500 0.981700
vt 0.992600 0.982000
vt 0.381200 0.191900
vt 0.413500 0.130500
vt 0.385300 0.198400
vt 0.396300 0.124000
vt 0.396900 0.079600
vt 0.511100 0.095600
vt 0.553500 0.093200
vt 0.502700 0.064600
vt 0.562400 0.184900
vt 0.559900 0.153600
vt 0.521800 0.153300
vt 0.537100 0.196200
vt 0.985600 0.988300
vt 0.985200 0.985300
vt 0.991000 0.984800
vt 0.991000 0.986300
vt 0.985500 0.987500
vt 0.981100 0.987400
vt 0.980500 0.985400
vt 0.980600 0.987300
vt 0.979700 0.985600
vt 0.990700 0.988000
vt 0.984800 0.989500
vt 0.990700 0.989600
vt 0.985300 0.983500
vt 0.985000 0.981600
vt 0.990800 0.981400
vt 0.990700 0.983200
vt 0.979600 0.984500
vt 0.980300 0.984300
vt 0.981000 0.981200
vt 0.980500 0.983100
vt 0.980600 0.989500
vt 0.982700 0.988800
vt 0.982300 0.987500
vt 0.979100 0.989600
vt 0.023600 0.457600
vt 0.987600 0.990900
vt 0.986100 0.990300
vt 0.978800 0.983000
vt 0.984700 0.989100
vt 0.985000 0.990000
vt 0.982900 0.989500
vt 0.979500 0.980900
vt 0.489500 0.161400
vt 0.725600 0.729700
vt 0.616800 0.779100
vt 0.551900 0.649300
vt 0.690300 0.928100
vt 0.869700 0.823800
vt 0.594800 0.558300
vt 0.768000 0.599600
vt 0.749700 0.452500
vt 0.698100 0.337300
vt 0.991300 0.987600
vt 0.991500 0.987300
vt 0.993000 0.988600
vt 0.992800 0.988900
vt 0.990500 0.988800
vt 0.991900 0.989800
vt 0.979600 0.986700
vt 0.980300 0.988000
vt 0.979200 0.988600
vt 0.978500 0.987300
vt 0.978300 0.987000
vt 0.979500 0.986400
vt 0.945300 0.631200
vt 0.893000 0.289500
vt 0.928600 0.510100
vt 0.990000 0.990700
vt 0.989700 0.991200
vt 0.981000 0.989300
vt 0.990900 0.990700
vt 0.985100 0.985900
vt 0.990900 0.985100
vt 0.990900 0.986600
vt 0.980400 0.985500
vt 0.981100 0.983500
vt 0.985400 0.983600
vt 0.979600 0.985300
vt 0.980600 0.983600
vt 0.990700 0.983400
vt 0.984900 0.981600
vt 0.990800 0.981800
vt 0.985100 0.987600
vt 0.990400 0.988200
vt 0.990500 0.989900
vt 0.980200 0.986600
vt 0.980700 0.989700
vt 0.980300 0.987800
vt 0.980700 0.981400
vt 0.979200 0.981200
vt 0.980900 0.461000
vt 0.989000 0.991600
vt 0.978600 0.987800
vt 0.981100 0.990100
vt 0.981400 0.991000
vt 0.979900 0.989800
vt 0.979200 0.990000
vt 0.013500 0.985600
vt 0.010200 0.995700
vt 0.011600 0.985100
vt 0.018200 0.987800
vt 0.016800 0.985800
vt 0.013000 0.976800
vt 0.017200 0.978500
vt 0.015700 0.984300
vt 0.013000 0.985400
vt 0.012600 0.995600
vt 0.010100 0.984500
vt 0.019700 0.986600
vt 0.018800 0.985500
vt 0.010900 0.979900
vt 0.021100 0.981300
vt 0.023600 0.983800
vt 0.012300 0.977600
vt 0.013400 0.976600
vt 0.019300 0.979900
vt 0.024000 0.981700
vt 0.009800 0.977100
vt 0.009800 0.984600
vt 0.989700 0.981300
vt 0.983500 0.979600
vt 0.023400 0.994800
vt 0.024300 0.994400
vt 0.024000 0.995000
vt 0.022200 0.995700
vt 0.022200 0.994400
vt 0.019300 0.992100
vt 0.018300 0.993600
vt 0.016200 0.991000
vt 0.018100 0.989800
vt 0.020200 0.991200
vt 0.021200 0.994000
vt 0.020400 0.995400
vt 0.022500 0.991900
vt 0.022400 0.996600
vt 0.019900 0.996100
vt 0.008100 0.979600
vt 0.008700 0.981300
vt 0.007900 0.981800
vt 0.007200 0.979300
vt 0.009500 0.979500
vt 0.010100 0.981000
vt 0.017700 0.994000
vt 0.010200 0.983900
vt 0.009400 0.984700
vt 0.011500 0.983200
vt 0.008500 0.978000
vt 0.009800 0.978600
vt 0.012700 0.986300
vt 0.012200 0.986800
vt 0.013300 0.985400
vt 0.012700 0.982300
vt 0.011300 0.980100
vt 0.010700 0.979100
vt 0.010600 0.978500
vt 0.013100 0.979300
vt 0.013800 0.981600
vt 0.009900 0.978100
vt 0.011400 0.977400
vt 0.015700 0.987200
vt 0.019400 0.988600
vt 0.019500 0.986600
vt 0.017900 0.984000
vt 0.018900 0.985200
vt 0.014400 0.984300
vt 0.015700 0.983500
vt 0.015400 0.981100
vt 0.015500 0.978800
vt 0.016000 0.981100
vt 0.023500 0.992600
vt 0.024500 0.993700
vt 0.009700 0.977900
vt 0.010600 0.977100
vt 0.013300 0.977500
vt 0.016500 0.981400
vt 0.018000 0.981600
vt 0.016800 0.979900
vt 0.018000 0.980100
vt 0.019100 0.981800
vt 0.020900 0.983700
vt 0.012600 0.976100
vt 0.015200 0.978100
vt 0.017400 0.978000
vt 0.016200 0.978000
vt 0.018100 0.978100
vt 0.015100 0.976700
vt 0.018000 0.976400
vt 0.019700 0.980500
vt 0.025200 0.995200
vt 0.007700 0.977100
vt 0.009500 0.975400
vt 0.008000 0.974600
vt 0.024600 0.993100
vt 0.026700 0.994100
vt 0.022400 0.982500
vt 0.020900 0.978400
vt 0.023000 0.981900
vt 0.019700 0.977400
vt 0.018600 0.984800
vt 0.020600 0.983400
vt 0.015400 0.977300
vt 0.017900 0.976700
vt 0.021800 0.982000
vt 0.023000 0.981800
vt 0.020700 0.978300
vt 0.019300 0.977900
vt 0.012800 0.975900
vt 0.990000 0.980800
vt 0.988500 0.980100
vt 0.498200 0.199000
vt 0.526500 0.058300
vt 0.986100 0.979600
vt 0.993300 0.985600
vt 0.991300 0.987500
vt 0.995100 0.988100
vt 0.995300 0.985500
vt 0.996700 0.987300
vt 0.993900 0.986400
vt 0.976400 0.986400
vt 0.977800 0.984700
vt 0.978900 0.985800
vt 0.977800 0.987100
vt 0.975000 0.985400
vt 0.976600 0.983400
vt 0.978800 0.981600
vt 0.978300 0.981000
vt 0.287600 0.111100
vt 0.287700 0.172000
vt 0.300200 0.170600
vt 0.303100 0.104900
vt 0.269200 0.060500
vt 0.335400 0.072500
vt 0.328100 0.047700
vt 0.479900 0.071400
vt 0.478600 0.108000
vt 0.430300 0.092100
vt 0.356600 0.118000
vt 0.366800 0.073900
vt 0.293200 0.218600
vt 0.338300 0.224700
vt 0.346200 0.177700
vt 0.336800 0.239900
vt 0.371800 0.231200
vt 0.992800 0.983400
vt 0.993300 0.983000
vt 0.383000 0.189700
vt 0.414700 0.128600
vt 0.397600 0.122300
vt 0.387100 0.196000
vt 0.397800 0.078300
vt 0.512400 0.096800
vt 0.505000 0.065400
vt 0.555200 0.096000
vt 0.559100 0.189500
vt 0.532900 0.199400
vt 0.520200 0.155300
vt 0.558700 0.157600
vt 0.487000 0.161700
vt 0.994300 0.984500
vt 0.976200 0.983000
vt 0.993600 0.988900
vt 0.994600 0.984100
vt 0.995700 0.985100
vt 0.979600 0.986500
vt 0.978900 0.987600
vt 0.992300 0.989300
vt 0.493600 0.200000
vt 0.529200 0.059800
vt 0.997300 0.987000
vt 0.974500 0.984900
vt 0.986300 0.981000
vt 0.984300 0.984800
vt 0.984900 0.980500
vt 0.062100 0.036300
vt 0.070700 0.043400
vt 0.038300 0.084700
vt 0.026700 0.080000
vt 0.085000 0.238900
vt 0.150300 0.270200
vt 0.146100 0.285200
vt 0.074500 0.247300
vt 0.090300 0.218400
vt 0.034400 0.131400
vt 0.067100 0.134400
vt 0.083600 0.058500
vt 0.135700 0.027900
vt 0.136800 0.046400
vt 0.651700 0.186800
vt 0.635900 0.148400
vt 0.805400 0.233700
vt 0.975700 0.149300
vt 0.956000 0.208100
vt 0.882600 0.229900
vt 0.069100 0.084800
vt 0.142500 0.251600
vt 0.020600 0.135500
vt 0.139100 0.015800
vt 0.214800 0.041000
vt 0.259000 0.102800
vt 0.245800 0.105600
vt 0.208700 0.050100
vt 0.204800 0.242200
vt 0.217100 0.258200
vt 0.201800 0.226100
vt 0.218300 0.155000
vt 0.249000 0.155800
vt 0.197500 0.064200
vt 0.651700 0.111700
vt 0.805300 0.064600
vt 0.880900 0.065400
vt 0.959700 0.096100
vt 0.218300 0.101000
vt 0.261500 0.159500
vt 0.137700 0.080100
vt 0.146200 0.138100
vt 0.085200 0.236900
vt 0.069700 0.255800
vt 0.148000 0.282900
vt 0.146300 0.269600
vt 0.095000 0.215300
vt 0.651800 0.111800
vt 0.805900 0.064300
vt 0.636000 0.150400
vt 0.977200 0.148300
vt 0.883600 0.067600
vt 0.956900 0.089600
vt 0.152800 0.256400
vt 0.204300 0.243400
vt 0.213200 0.251700
vt 0.200700 0.227200
vt 0.652000 0.187100
vt 0.806200 0.234000
vt 0.961200 0.201600
vt 0.882300 0.232600
vt 0.132800 0.146500
vt 0.137000 0.229900
vt 0.144400 0.261400
vt 0.159000 0.243300
vt 0.170800 0.184900
vt 0.219900 0.231600
vt 0.988600 0.985000
vt 0.987900 0.987600
vt 0.983700 0.989000
vt 0.982500 0.988600
vt 0.983500 0.980600
vt 0.980100 0.986400
vt 0.980100 0.983700
vt 0.980600 0.988200
vt 0.985000 0.989000
vt 0.987000 0.989100
vt 0.980600 0.981000
vt 0.988900 0.982200
s 1
usemtl Material.001
f 1/1/1 2/2/2 3/3/3
f 4/4/4 5/5/5 1/1/1
f 1/1/1 3/3/3 4/4/4
f 1/1/1 6/6/6 7/7/7
f 7/7/7 2/2/2 1/1/1
f 8/8/8 9/9/9 2/2/2
f 2/2/2 7/7/7 8/8/8
f 10/10/10 3/3/3 2/2/2
f 2/2/2 9/9/9 10/10/10
f 11/11/11 4/4/4 3/3/3
f 3/3/3 10/10/10 11/11/11
f 12/12/12 13/13/13 7/7/7
f 7/7/7 6/6/6 12/12/12
f 13/13/13 8/8/8 7/7/7
f 13/13/13 12/12/12 14/14/14
f 15/15/15 16/16/16 17/17/17
f 18/18/18 19/19/19 20/20/20
f 20/20/20 17/17/17 18/18/18
f 21/21/21 22/22/22 19/19/19
f 19/19/19 18/18/18 21/21/21
f 23/23/23 24/24/24 25/25/25
f 15/15/15 17/17/17 26/26/26
f 27/27/27 19/19/19 22/22/22
f 22/22/22 28/28/28 27/27/27
f 28/28/28 29/29/29 30/30/30
f 30/30/30 27/27/27 28/28/28
f 27/27/27 31/31/31 20/20/20
f 20/20/20 19/19/19 27/27/27
f 30/30/30 32/32/32 31/31/31
f 31/31/31 27/27/27 30/30/30
f 23/23/23 33/33/33 34/34/34
f 34/34/34 35/35/35 23/23/23
f 35/35/35 36/36/36 24/24/24
f 24/24/24 23/23/23 35/35/35
f 37/37/37 38/38/38 39/39/39
f 39/39/39 40/40/40 37/37/37
f 35/35/35 34/34/34 41/41/41
f 41/41/41 42/42/42 35/35/35
f 21/21/21 43/43/43 44/44/44
f 45/45/45 46/46/46 18/18/18
f 18/18/18 17/17/17 45/45/45
f 5/5/5 47/47/47 6/6/6
f 6/6/6 1/1/1 5/5/5
f 12/12/12 48/48/48 49/49/49
f 49/49/49 14/14/14 12/12/12
f 6/6/6 47/47/47 48/48/48
f 48/48/48 12/12/12 6/6/6
f 50/50/50 51/51/51 21/21/21
f 21/21/21 44/44/44 50/50/50
f 52/52/52 53/53/53 51/51/51
f 51/51/51 50/50/50 52/52/52
f 54/54/54 55/55/55 56/56/56
f 56/56/56 57/57/57 54/54/54
f 58/58/58 55/55/55 54/54/54
f 28/28/28 22/22/22 59/59/59
f 60/60/60 55/55/55 58/58/58
f 61/61/61 60/60/60 58/58/58
f 62/62/62 63/63/58 64/64/54
f 60/60/60 65/65/63 66/66/64
f 66/66/64 55/55/55 60/60/60
f 67/67/65 56/56/56 68/68/66
f 68/68/66 69/69/67 67/67/65
f 70/70/68 69/69/67 71/71/69
f 15/15/15 72/72/70 16/16/16
f 73/73/71 72/72/70 74/74/72
f 74/74/72 75/75/73 73/73/71
f 71/71/69 69/69/67 68/68/66
f 68/68/66 76/76/74 71/71/69
f 77/77/75 78/78/76 76/76/74
f 76/76/74 79/79/77 77/77/75
f 80/80/78 79/79/77 66/66/64
f 66/66/64 65/65/63 80/80/78
f 77/77/75 79/79/77 80/80/78
f 81/81/79 82/82/80 83/83/81
f 84/84/69 85/85/76 86/86/82
f 86/86/82 87/87/68 84/84/69
f 88/88/83 22/22/22 51/51/51
f 62/62/62 81/81/79 83/83/81
f 89/89/84 90/90/85 91/91/86
f 89/89/84 92/92/87 93/93/88
f 93/93/88 94/94/89 89/89/84
f 94/94/89 93/93/88 95/95/90
f 95/95/90 96/96/51 94/94/89
f 92/92/87 91/91/86 97/97/91
f 89/89/84 91/91/86 92/92/87
f 97/97/91 98/98/92 92/92/87
f 97/97/91 99/99/93 98/98/92
f 100/100/94 101/101/95 102/102/96
f 102/102/96 103/103/97 100/100/94
f 96/96/51 104/104/53 105/105/98
f 105/105/98 94/94/89 96/96/51
f 94/94/89 105/105/98 100/100/94
f 100/100/94 89/89/84 94/94/89
f 100/100/94 103/103/97 90/90/85
f 90/90/85 89/89/84 100/100/94
f 106/106/99 101/101/95 100/100/94
f 105/105/98 107/107/100 100/100/94
f 100/100/94 107/107/100 106/106/99
f 98/98/92 108/108/99 93/93/88
f 93/93/88 92/92/87 98/98/92
f 59/59/59 109/109/101 110/110/102
f 110/110/102 28/28/28 59/59/59
f 108/108/99 111/111/103 95/95/90
f 95/95/90 93/93/88 108/108/99
f 112/112/104 49/49/49 48/48/48
f 113/113/105 114/114/106 53/53/53
f 53/53/53 52/52/52 113/113/105
f 115/115/106 107/107/100 105/105/98
f 105/105/98 104/104/53 115/115/106
f 116/116/107 117/117/106 118/118/108
f 59/59/59 88/88/83 116/116/107
f 107/107/100 115/115/106 119/119/107
f 119/119/107 106/106/99 107/107/100
f 118/118/108 109/109/101 116/116/107
f 64/64/54 120/120/57 86/86/82
f 86/86/82 81/81/79 64/64/54
f 67/67/65 69/69/67 70/70/68
f 121/121/109 122/122/110 123/123/111
f 124/124/112 122/122/110 121/121/109
f 121/121/109 125/125/113 124/124/112
f 121/121/109 123/123/111 126/126/114
f 126/126/114 127/127/115 121/121/109
f 8/8/8 126/126/114 123/123/111
f 123/123/111 9/9/9 8/8/8
f 10/10/10 9/9/9 123/123/111
f 123/123/111 122/122/110 10/10/10
f 11/11/11 10/10/10 122/122/110
f 122/122/110 124/124/112 11/11/11
f 128/128/116 127/127/115 126/126/114
f 126/126/114 13/13/13 128/128/116
f 13/13/13 126/126/114 8/8/8
f 13/13/13 129/129/14 128/128/116
f 130/130/117 131/131/118 132/132/119
f 132/132/119 133/133/120 130/130/117
f 134/134/121 130/130/117 133/133/120
f 133/133/120 135/135/122 134/134/121
f 136/136/123 137/137/124 138/138/122
f 138/138/122 139/139/120 136/136/123
f 137/137/124 29/29/29 110/110/102
f 136/136/123 139/139/120 140/140/125
f 140/140/125 141/141/126 136/136/123
f 30/30/30 136/136/123 141/141/126
f 141/141/126 32/32/32 30/30/30
f 134/134/121 43/43/43 46/46/46
f 46/46/46 130/130/117 134/134/121
f 45/45/45 131/131/118 130/130/117
f 130/130/117 46/46/46 45/45/45
f 125/125/113 121/121/109 127/127/115
f 127/127/115 142/142/127 125/125/113
f 128/128/116 129/129/14 143/143/128
f 143/143/128 144/144/129 128/128/116
f 127/127/115 128/128/116 144/144/129
f 144/144/129 142/142/127 127/127/115
f 50/50/50 44/44/44 134/134/121
f 134/134/121 145/145/130 50/50/50
f 52/52/52 50/50/50 145/145/130
f 145/145/130 146/146/131 52/52/52
f 137/137/124 147/147/132 138/138/122
f 148/148/133 145/145/130 135/135/122
f 149/149/134 150/150/135 151/151/136
f 149/149/134 152/152/137 153/153/138
f 153/153/138 154/154/139 149/149/134
f 152/152/137 155/155/130 156/156/140
f 156/156/140 153/153/138 152/152/137
f 154/154/139 157/157/141 150/150/135
f 149/149/134 154/154/139 150/150/135
f 157/157/141 154/154/139 158/158/142
f 157/157/141 158/158/142 159/159/143
f 160/160/144 161/161/145 162/162/146
f 162/162/146 163/98/147 160/160/144
f 155/155/130 152/152/137 164/163/148
f 164/163/148 165/141/131 155/155/130
f 152/152/137 149/149/134 160/160/144
f 160/160/144 164/163/148 152/152/137
f 160/160/144 149/149/134 151/151/136
f 151/151/136 161/161/145 160/160/144
f 166/164/149 160/160/144 163/98/147
f 164/163/148 160/160/144 167/165/150
f 160/160/144 166/164/149 167/165/150
f 158/158/142 154/154/139 153/153/138
f 153/153/138 168/166/149 158/158/142
f 147/147/132 137/137/124 110/110/102
f 110/110/102 109/109/101 147/147/132
f 168/166/149 153/153/138 156/156/140
f 156/156/140 169/167/151 168/166/149
f 170/168/152 144/144/129 143/143/128
f 113/113/105 52/52/52 146/146/131
f 146/146/131 171/169/153 113/113/105
f 172/170/153 165/141/131 164/163/148
f 164/163/148 167/165/150 172/170/153
f 173/171/154 118/118/108 174/172/153
f 147/147/132 173/171/154 175/173/155
f 167/165/150 166/164/149 176/174/154
f 176/174/154 172/170/153 167/165/150
f 118/118/108 173/171/154 109/109/101
f 22/22/22 21/21/21 51/51/51
f 145/145/130 134/134/121 135/135/122
f 22/22/22 88/88/83 59/59/59
f 147/147/132 175/173/155 138/138/122
f 173/171/154 147/147/132 109/109/101
f 109/109/101 59/59/59 116/116/107
f 177/175/156 178/176/157 179/177/158
f 180/178/159 178/176/157 181/179/160
f 182/180/161 183/181/162 184/182/163
f 184/182/163 185/183/164 182/180/161
f 186/184/165 185/183/164 184/182/163
f 185/183/164 186/184/165 187/185/166
f 188/186/166 186/184/165 189/187/167
f 187/185/166 190/188/168 182/180/161
f 182/180/161 185/183/164 187/185/166
f 191/189/169 192/190/168 188/186/166
f 188/186/166 189/187/167 191/189/169
f 179/177/158 193/191/170 194/192/171
f 194/192/171 177/175/156 179/177/158
f 195/193/172 196/194/173 180/178/159
f 180/178/159 181/179/160 195/193/172
f 194/192/171 195/193/172 181/179/160
f 181/179/160 177/175/156 194/192/171
f 181/179/160 178/176/157 177/175/156
f 197/195/173 193/191/170 179/177/158
f 179/177/158 198/196/159 197/195/173
f 198/196/159 179/177/158 178/176/157
f 184/182/163 189/187/167 186/184/165
f 191/189/169 189/187/167 184/182/163
f 184/182/163 183/181/162 191/189/169
f 15/15/15 199/197/174 72/72/70
f 16/16/16 45/45/45 17/17/17
f 38/38/38 200/198/175 36/36/36
f 36/36/36 39/39/39 38/38/38
f 201/199/176 202/200/177 203/201/178
f 203/201/178 204/202/179 205/203/180
f 205/203/180 201/199/176 203/201/178
f 206/204/181 207/205/182 208/206/183
f 209/207/184 210/208/185 211/204/186
f 211/204/186 212/206/187 209/207/184
f 213/209/188 214/210/189 207/205/182
f 207/205/182 206/204/181 213/209/188
f 204/202/179 214/210/189 213/209/188
f 213/209/188 205/203/180 204/202/179
f 215/211/190 216/209/191 211/204/186
f 211/204/186 210/208/185 215/211/190
f 217/212/192 218/213/193 219/210/194
f 219/210/194 220/202/195 217/212/192
f 221/214/196 222/215/197 223/216/193
f 223/216/193 224/217/198 221/214/196
f 225/218/199 226/219/200 227/215/201
f 227/215/201 228/214/202 225/218/199
f 218/213/193 229/220/203 230/205/204
f 230/205/204 219/210/194 218/213/193
f 231/221/205 232/222/206 223/216/193
f 223/216/193 222/215/197 231/221/205
f 226/219/200 233/223/207 234/221/208
f 234/221/208 227/215/201 226/219/200
f 230/205/204 229/220/203 212/206/209
f 228/214/202 235/224/210 236/225/211
f 236/225/211 225/218/199 228/214/202
f 237/226/212 238/227/213 232/222/206
f 232/222/206 231/221/205 237/226/212
f 233/223/207 239/228/214 240/226/215
f 240/226/215 234/221/208 233/223/207
f 239/228/214 233/223/207 241/229/216
f 233/223/207 226/219/200 242/230/217
f 242/230/217 241/229/216 233/223/207
f 243/231/218 225/218/199 236/225/211
f 236/225/211 244/232/219 243/231/218
f 226/219/200 225/218/199 243/231/218
f 243/231/218 242/230/217 226/219/200
f 245/229/220 246/230/221 247/233/222
f 247/233/222 248/234/223 245/229/220
f 247/233/222 246/230/221 249/231/224
f 236/225/211 250/235/225 251/236/226
f 251/236/226 244/232/219 236/225/211
f 252/237/227 238/227/213 237/226/212
f 253/237/228 240/226/215 239/228/214
f 209/207/184 212/206/187 252/237/227
f 254/238/229 255/207/230 253/237/228
f 256/239/231 254/238/229 253/237/228
f 257/240/232 258/241/233 253/237/228
f 259/242/234 260/228/235 245/229/220
f 245/229/220 248/234/223 259/242/234
f 261/243/236 262/242/237 263/234/238
f 263/234/238 264/244/239 261/243/236
f 252/237/227 260/228/235 259/242/234
f 262/242/237 261/243/236 257/240/232
f 257/240/232 253/237/228 262/242/237
f 264/244/239 263/234/238 265/233/240
f 265/233/240 266/245/241 264/244/239
f 267/244/242 268/246/243 269/243/244
f 270/199/245 271/203/246 272/247/247
f 272/247/247 273/248/248 270/199/245
f 215/211/190 272/247/247 271/203/246
f 271/203/246 216/209/191 215/211/190
f 274/249/249 250/235/225 236/225/211
f 236/225/211 235/224/210 274/249/249
f 250/235/225 274/249/249 275/250/250
f 251/236/226 250/235/225 275/250/250
f 276/251/251 277/232/252 278/236/253
f 269/243/244 268/246/243 279/252/254
f 257/240/232 261/243/236 280/252/255
f 280/252/255 281/253/256 257/240/232
f 280/252/255 282/254/257 283/255/258
f 283/255/258 281/253/256 280/252/255
f 257/240/232 284/256/259 285/257/260
f 285/257/260 258/241/233 257/240/232
f 257/240/232 281/253/256 284/256/259
f 253/237/228 258/241/233 256/239/231
f 249/231/224 277/232/252 276/251/251
f 276/251/251 247/233/222 249/231/224
f 286/258/261 276/251/251 278/236/253
f 278/236/253 287/250/262 286/258/261
f 266/245/241 265/233/240 288/259/263
f 289/260/264 290/254/265 291/261/266
f 268/246/243 291/261/266 290/254/265
f 290/254/265 279/252/254 268/246/243
f 291/261/266 292/259/267 276/251/251
f 293/245/268 291/261/266 268/246/243
f 268/246/243 267/244/242 293/245/268
f 291/261/266 293/245/268 292/259/267
f 294/262/269 282/254/257 295/260/270
f 283/255/258 282/254/257 294/262/269
f 291/261/266 276/251/251 296/263/271
f 297/264/272 291/261/266 296/263/271
f 298/262/273 289/260/264 297/264/272
f 297/264/272 289/260/264 291/261/266
f 299/265/274 284/256/259 281/253/256
f 281/253/256 283/255/258 299/265/274
f 299/265/274 283/255/258 294/262/269
f 300/200/275 270/199/245 273/248/248
f 273/248/248 301/266/276 300/200/275
f 224/217/198 302/267/276 303/224/277
f 303/224/277 221/214/196 224/217/198
f 304/201/278 301/266/276 217/212/192
f 217/212/192 220/202/195 304/201/278
f 301/266/276 304/201/278 300/200/275
f 305/249/279 306/268/280 286/258/261
f 286/258/261 287/250/262 305/249/279
f 303/224/277 306/268/280 305/249/279
f 306/268/280 302/267/276 307/269/281
f 308/270/282 309/271/281 301/266/276
f 301/266/276 273/248/248 308/270/282
f 284/256/259 299/265/274 310/272/283
f 310/272/283 285/257/260 284/256/259
f 310/272/283 299/265/274 311/273/153
f 311/273/153 312/274/284 310/272/283
f 313/265/285 298/262/273 314/273/286
f 298/262/273 297/264/272 315/275/287
f 315/275/287 314/273/286 298/262/273
f 296/263/271 276/251/251 286/258/261
f 247/233/222 276/251/251 292/259/267
f 303/224/277 302/267/276 306/268/280
f 316/243/229 317/244/288 318/234/289
f 318/234/289 319/242/290 316/243/229
f 317/244/288 320/245/291 321/233/292
f 321/233/292 318/234/289 317/244/288
f 322/244/293 323/243/294 324/246/295
f 323/243/294 325/252/296 324/246/295
f 326/240/297 327/253/298 328/252/299
f 328/252/299 316/243/300 326/240/297
f 328/252/299 327/253/298 329/255/301
f 329/255/301 330/254/302 328/252/299
f 326/240/297 331/276/303 332/277/260
f 332/277/260 333/256/304 326/240/297
f 326/240/297 333/256/304 327/253/298
f 320/245/291 334/259/305 321/233/292
f 335/260/306 336/261/307 337/254/308
f 324/246/295 325/252/296 337/254/308
f 337/254/308 336/261/307 324/246/295
f 336/261/307 338/251/282 339/259/309
f 340/245/310 322/244/293 324/246/295
f 324/246/295 336/261/307 340/245/310
f 336/261/307 339/259/309 340/245/310
f 341/262/311 342/260/312 330/254/302
f 329/255/301 341/262/311 330/254/302
f 336/261/307 343/278/313 338/251/282
f 344/279/314 343/278/313 336/261/307
f 345/262/315 344/279/314 335/260/306
f 344/279/314 336/261/307 335/260/306
f 346/265/316 329/255/301 327/253/298
f 327/253/298 333/256/304 346/265/316
f 346/265/316 341/262/311 329/255/301
f 333/256/304 332/277/260 347/280/283
f 347/280/283 346/265/316 333/256/304
f 347/280/283 348/281/317 349/282/106
f 349/282/106 346/265/316 347/280/283
f 350/265/318 351/282/319 345/262/315
f 345/262/315 351/282/319 352/283/320
f 352/283/320 344/279/314 345/262/315
f 343/278/313 353/284/321 338/251/282
f 354/248/322 355/247/323 356/270/324
f 339/259/325 308/270/282 215/211/326
f 356/270/324 355/247/323 357/211/292
f 33/33/33 23/23/23 26/26/26
f 26/26/26 17/17/17 33/33/33
f 358/285/327 199/197/174 25/25/25
f 25/25/25 359/286/328 358/285/327
f 33/33/33 20/20/20 31/31/31
f 31/31/31 34/34/34 33/33/33
f 34/34/34 31/31/31 32/32/32
f 32/32/32 41/41/41 34/34/34
f 17/17/17 20/20/20 33/33/33
f 56/56/56 67/67/65 57/57/57
f 56/56/56 55/55/55 66/66/64
f 66/66/64 68/68/66 56/56/56
f 66/66/64 79/79/77 76/76/74
f 76/76/74 68/68/66 66/66/64
f 78/78/76 71/71/69 76/76/74
f 82/82/80 81/81/79 86/86/82
f 86/86/82 85/85/76 82/82/80
f 360/287/329 87/87/68 86/86/82
f 86/86/82 120/120/57 360/287/329
f 82/82/80 361/288/330 83/83/81
f 62/62/62 64/64/54 81/81/79
f 21/21/21 18/18/18 46/46/46
f 46/46/46 43/43/43 21/21/21
f 134/134/121 44/44/44 43/43/43
f 28/28/28 110/110/102 29/29/29
f 137/137/124 136/136/123 30/30/30
f 30/30/30 29/29/29 137/137/124
f 362/289/331 359/286/328 25/25/25
f 25/25/25 24/24/24 362/289/331
f 25/25/25 26/26/26 23/23/23
f 36/36/36 200/198/175 362/289/331
f 362/289/331 24/24/24 36/36/36
f 39/39/39 42/42/42 40/40/40
f 73/73/71 16/16/16 72/72/70
f 39/39/39 35/35/35 42/42/42
f 358/285/327 74/74/72 72/72/70
f 72/72/70 199/197/174 358/285/327
f 36/36/36 35/35/35 39/39/39
f 199/197/174 15/15/15 26/26/26
f 26/26/26 25/25/25 199/197/174
f 363/290/332 364/291/333 16/16/16
f 365/292/334 366/293/335 367/294/336
f 363/290/332 368/295/337 364/291/333
f 369/296/334 370/297/338 371/298/339
f 371/298/339 372/299/340 369/296/334
f 370/297/338 369/296/334 373/300/336
f 373/300/336 374/301/341 370/297/338
f 37/37/37 40/40/40 375/302/342
f 375/302/342 376/303/343 37/37/37
f 370/297/338 42/42/42 41/41/41
f 41/41/41 371/298/339 370/297/338
f 377/304/344 378/305/345 379/306/346
f 379/306/346 380/307/347 377/304/344
f 381/308/348 377/304/344 380/307/347
f 382/309/349 381/308/348 380/307/347
f 383/310/350 381/308/348 382/309/349
f 384/311/350 385/312/351 386/313/352
f 382/309/349 380/307/347 387/314/353
f 387/314/353 388/315/354 382/309/349
f 389/316/355 390/317/356 391/318/357
f 391/318/357 379/306/346 389/316/355
f 392/319/358 393/320/359 390/317/356
f 363/290/332 16/16/16 394/321/360
f 73/73/71 75/75/73 395/322/361
f 395/322/361 394/321/360 73/73/71
f 393/320/359 396/323/362 391/318/357
f 391/318/357 390/317/356 393/320/359
f 397/324/363 398/325/364 396/323/362
f 396/323/362 399/326/365 397/324/363
f 400/327/366 388/315/354 387/314/353
f 387/314/353 398/325/364 400/327/366
f 397/324/363 400/327/366 398/325/364
f 401/328/367 402/329/368 403/330/363
f 404/331/359 405/332/358 406/333/369
f 406/333/369 407/334/370 404/331/359
f 384/311/350 402/329/368 401/328/367
f 385/312/351 401/328/367 406/333/369
f 406/333/369 408/335/345 385/312/351
f 389/316/355 392/319/358 390/317/356
f 363/290/332 394/321/360 409/336/371
f 16/16/16 364/291/333 45/45/45
f 376/303/343 375/302/342 374/301/341
f 374/301/341 410/337/372 376/303/343
f 411/338/340 364/291/333 368/295/337
f 368/295/337 365/292/334 411/338/340
f 412/339/373 413/340/374 366/293/335
f 366/293/335 409/336/371 412/339/373
f 372/299/340 371/298/339 414/341/375
f 414/341/375 415/342/376 372/299/340
f 371/298/339 41/41/41 32/32/32
f 32/32/32 414/341/375 371/298/339
f 364/291/333 411/338/340 416/343/377
f 379/306/346 378/305/345 389/316/355
f 379/306/346 391/318/357 387/314/353
f 387/314/353 380/307/347 379/306/346
f 387/314/353 391/318/357 396/323/362
f 396/323/362 398/325/364 387/314/353
f 399/326/365 396/323/362 393/320/359
f 403/330/363 407/334/370 406/333/369
f 406/333/369 401/328/367 403/330/363
f 417/344/355 408/335/345 406/333/369
f 406/333/369 405/332/358 417/344/355
f 403/330/363 402/329/368 418/345/378
f 384/311/350 401/328/367 385/312/351
f 419/346/379 367/294/336 366/293/335
f 366/293/335 413/340/374 419/346/379
f 366/293/335 365/292/334 368/295/337
f 374/301/341 373/300/336 420/347/380
f 420/347/380 410/337/372 374/301/341
f 375/302/342 40/40/40 42/42/42
f 73/73/71 394/321/360 16/16/16
f 375/302/342 42/42/42 370/297/338
f 412/339/373 409/336/371 394/321/360
f 394/321/360 395/322/361 412/339/373
f 374/301/341 375/302/342 370/297/338
f 409/336/371 366/293/335 368/295/337
f 368/295/337 363/290/332 409/336/371
f 421/348/381 422/349/382 423/350/383
f 424/351/384 425/352/385 426/353/386
f 426/353/386 427/354/387 424/351/384
f 428/355/388 429/356/389 430/357/390
f 430/357/390 431/358/391 428/355/388
f 432/359/392 428/355/388 433/360/393
f 433/360/393 434/361/394 432/359/392
f 435/362/395 425/352/385 436/363/396
f 436/363/396 437/364/397 435/362/395
f 438/365/391 439/366/390 440/367/398
f 441/368/399 442/369/400 443/370/401
f 435/362/395 444/371/402 426/353/386
f 426/353/386 425/352/385 435/362/395
f 432/359/392 445/372/403 429/356/389
f 429/356/389 428/355/388 432/359/392
f 431/358/391 446/373/404 433/360/393
f 433/360/393 428/355/388 431/358/391
f 425/352/385 424/351/384 447/374/405
f 447/374/405 436/363/396 425/352/385
f 448/375/406 449/376/407 450/377/408
f 450/377/408 451/378/409 448/375/406
f 452/379/410 453/380/411 430/357/390
f 430/357/390 429/356/389 452/379/410
f 454/381/412 455/382/413 456/383/414
f 456/383/414 452/379/410 454/381/412
f 457/384/415 437/364/397 436/363/396
f 436/363/396 451/378/409 457/384/415
f 458/385/411 459/386/416 440/367/398
f 440/367/398 439/366/390 458/385/411
f 443/370/401 460/387/417 461/388/418
f 461/388/418 441/368/399 443/370/401
f 450/377/408 462/389/419 457/384/415
f 457/384/415 451/378/409 450/377/408
f 454/381/412 452/379/410 429/356/389
f 429/356/389 445/372/403 454/381/412
f 453/380/411 452/379/410 456/383/414
f 456/383/414 463/390/416 453/380/411
f 451/378/409 436/363/396 447/374/405
f 447/374/405 448/375/406 451/378/409
f 435/362/395 437/364/397 464/391/420
f 464/391/420 444/371/402 435/362/395
f 457/384/415 462/389/419 464/391/420
f 464/391/420 437/364/397 457/384/415
f 433/360/393 446/373/404 427/354/387
f 427/354/387 426/353/386 433/360/393
f 444/371/402 434/361/394 433/360/393
f 433/360/393 426/353/386 444/371/402
f 449/376/407 463/390/416 456/383/414
f 456/383/414 450/377/408 449/376/407
f 440/367/398 459/386/416 460/387/417
f 460/387/417 443/370/401 440/367/398
f 456/383/414 455/382/413 462/389/419
f 462/389/419 450/377/408 456/383/414
f 465/392/421 434/361/394 444/371/402
f 444/371/402 464/391/420 465/392/421
f 462/389/419 455/382/413 465/392/421
f 465/392/421 464/391/420 462/389/419
f 466/351/422 467/354/423 468/353/424
f 468/353/424 469/352/425 466/351/422
f 470/393/426 471/394/427 472/395/428
f 472/395/428 473/396/429 470/393/426
f 474/397/430 475/361/431 476/360/432
f 476/360/432 470/393/426 474/397/430
f 477/362/433 478/364/434 479/363/435
f 479/363/435 469/352/425 477/362/433
f 480/398/436 481/399/437 482/400/438
f 483/401/439 484/402/440 485/403/441
f 477/362/433 469/352/425 468/353/424
f 468/353/424 486/371/442 477/362/433
f 474/397/430 470/393/426 473/396/429
f 473/396/429 487/404/443 474/397/430
f 471/394/427 470/393/426 476/360/432
f 476/360/432 488/373/444 471/394/427
f 469/352/425 479/363/435 489/374/439
f 489/374/439 466/351/422 469/352/425
f 490/375/445 491/378/446 492/377/447
f 492/377/447 493/376/448 490/375/445
f 494/405/449 473/396/429 472/395/428
f 472/395/428 495/406/450 494/405/449
f 496/407/451 494/405/449 497/383/452
f 497/383/452 498/382/453 496/407/451
f 499/384/454 491/378/446 479/363/435
f 479/363/435 478/364/434 499/384/454
f 500/408/455 482/400/438 481/399/437
f 481/399/437 501/409/456 500/408/455
f 484/402/440 483/401/439 502/410/445
f 502/410/445 503/411/457 484/402/440
f 492/377/447 491/378/446 499/384/454
f 499/384/454 504/389/458 492/377/447
f 496/407/451 487/404/443 473/396/429
f 473/396/429 494/405/449 496/407/451
f 495/406/450 505/390/456 497/383/452
f 497/383/452 494/405/449 495/406/450
f 491/378/446 490/375/445 489/374/439
f 489/374/439 479/363/435 491/378/446
f 477/362/433 486/371/442 506/391/459
f 506/391/459 478/364/434 477/362/433
f 499/384/454 478/364/434 506/391/459
f 506/391/459 504/389/458 499/384/454
f 476/360/432 468/353/424 467/354/423
f 467/354/423 488/373/444 476/360/432
f 486/371/442 468/353/424 476/360/432
f 476/360/432 475/361/431 486/371/442
f 493/376/448 492/377/447 497/383/452
f 497/383/452 505/390/456 493/376/448
f 481/399/437 484/402/440 503/411/457
f 503/411/457 501/409/456 481/399/437
f 497/383/452 492/377/447 504/389/458
f 504/389/458 498/382/453 497/383/452
f 507/392/460 506/391/459 486/371/442
f 486/371/442 475/361/431 507/392/460
f 504/389/458 506/391/459 507/392/460
f 507/392/460 498/382/453 504/389/458
f 508/359/461 509/361/461 510/412/461
f 511/412/462 512/413/462 513/359/462
f 514/372/463 515/359/463 516/413/463
f 517/382/464 518/381/464 519/414/464
f 520/414/465 521/412/465 522/382/465
f 523/381/466 524/372/466 525/413/466
f 526/413/467 527/414/467 528/381/467
f 529/392/468 530/382/468 531/412/468
f 532/361/469 533/392/469 534/412/469
f 535/361/470 536/397/470 537/415/470
f 538/415/471 539/416/471 540/361/471
f 541/397/472 542/404/472 543/415/472
f 544/407/473 545/382/473 546/416/473
f 547/416/474 548/417/474 549/407/474
f 550/404/475 551/407/475 552/417/475
f 553/417/476 554/415/476 555/404/476
f 556/392/477 557/361/477 558/416/477
f 559/382/478 560/392/478 561/416/478
f 562/418/479 563/419/480 422/349/382
f 564/420/481 565/421/482 422/349/382
f 422/349/382 566/422/483 423/350/383
f 567/423/484 568/424/485 422/349/382
f 565/421/482 569/425/486 567/423/484
f 567/423/484 422/349/382 565/421/482
f 570/426/487 564/420/481 422/349/382
f 563/419/480 571/427/488 570/426/487
f 570/426/487 422/349/382 563/419/480
f 422/349/382 568/424/485 572/428/489
f 572/428/489 566/422/483 422/349/382
f 573/429/490 562/418/479 422/349/382
f 422/349/382 421/348/381 573/429/490
