<?xml version="1.0" encoding="utf-8"?>
<COLLADA version="1.5.0" xmlns="http://www.collada.org/2008/03/COLLADASchema">
	<asset>
		<contributor>
			<authoring_tool>BrawlCrate</authoring_tool>
		</contributor>
		<created>2022-09-15T18:02:28Z</created>
		<modified>2022-09-15T18:02:28Z</modified>
		<unit meter="0.01" name="centimeter" />
		<up_axis>Y_UP</up_axis>
	</asset>
	<library_images>
		<image id="karonnew-image" name="karonnew">
			<init_from>
				<ref>karonnew.png</ref>
			</init_from>
		</image>
		<image id="lm_0-image" name="lm_0">
			<init_from>
				<ref>lm_0.png</ref>
			</init_from>
		</image>
		<image id="lm_1-image" name="lm_1">
			<init_from>
				<ref>lm_1.png</ref>
			</init_from>
		</image>
	</library_images>
	<library_materials>
		<material id="ka_body">
			<instance_effect url="#ka_body-fx" />
		</material>
		<material id="ka_eye">
			<instance_effect url="#ka_eye-fx" />
		</material>
	</library_materials>
	<library_effects>
		<effect id="ka_body-fx" name="ka_body">
			<profile_COMMON>
				<newparam sid="karonnew-surface">
					<surface type="2D">
						<init_from>
							<ref>karonnew-image</ref>
						</init_from>
					</surface>
				</newparam>
				<newparam sid="karonnew-sampler">
					<sampler2D>
						<source>karonnew-surface</source>
						<instance_image url="#karonnew-image" />
						<wrap_s>MIRROR</wrap_s>
						<wrap_t>MIRROR</wrap_t>
						<minfilter>LINEAR</minfilter>
						<magfilter>LINEAR</magfilter>
					</sampler2D>
				</newparam>
				<newparam sid="lm_0-surface">
					<surface type="2D">
						<init_from>
							<ref>lm_0-image</ref>
						</init_from>
					</surface>
				</newparam>
				<newparam sid="lm_0-sampler">
					<sampler2D>
						<source>lm_0-surface</source>
						<instance_image url="#lm_0-image" />
						<wrap_s>CLAMP</wrap_s>
						<wrap_t>CLAMP</wrap_t>
						<minfilter>LINEAR</minfilter>
						<magfilter>LINEAR</magfilter>
					</sampler2D>
				</newparam>
				<newparam sid="lm_1-surface">
					<surface type="2D">
						<init_from>
							<ref>lm_1-image</ref>
						</init_from>
					</surface>
				</newparam>
				<newparam sid="lm_1-sampler">
					<sampler2D>
						<source>lm_1-surface</source>
						<instance_image url="#lm_1-image" />
						<wrap_s>CLAMP</wrap_s>
						<wrap_t>CLAMP</wrap_t>
						<minfilter>LINEAR</minfilter>
						<magfilter>LINEAR</magfilter>
					</sampler2D>
				</newparam>
				<technique sid="COMMON">
					<phong>
						<diffuse>
							<texture texture="karonnew-sampler" texcoord="TEXCOORD0" />
						</diffuse>
					</phong>
				</technique>
			</profile_COMMON>
		</effect>
		<effect id="ka_eye-fx" name="ka_eye">
			<profile_COMMON>
				<newparam sid="karonnew-surface">
					<surface type="2D">
						<init_from>
							<ref>karonnew-image</ref>
						</init_from>
					</surface>
				</newparam>
				<newparam sid="karonnew-sampler">
					<sampler2D>
						<source>karonnew-surface</source>
						<instance_image url="#karonnew-image" />
						<wrap_s>MIRROR</wrap_s>
						<wrap_t>MIRROR</wrap_t>
						<minfilter>LINEAR</minfilter>
						<magfilter>LINEAR</magfilter>
					</sampler2D>
				</newparam>
				<newparam sid="lm_0-surface">
					<surface type="2D">
						<init_from>
							<ref>lm_0-image</ref>
						</init_from>
					</surface>
				</newparam>
				<newparam sid="lm_0-sampler">
					<sampler2D>
						<source>lm_0-surface</source>
						<instance_image url="#lm_0-image" />
						<wrap_s>CLAMP</wrap_s>
						<wrap_t>CLAMP</wrap_t>
						<minfilter>LINEAR</minfilter>
						<magfilter>LINEAR</magfilter>
					</sampler2D>
				</newparam>
				<newparam sid="lm_1-surface">
					<surface type="2D">
						<init_from>
							<ref>lm_1-image</ref>
						</init_from>
					</surface>
				</newparam>
				<newparam sid="lm_1-sampler">
					<sampler2D>
						<source>lm_1-surface</source>
						<instance_image url="#lm_1-image" />
						<wrap_s>CLAMP</wrap_s>
						<wrap_t>CLAMP</wrap_t>
						<minfilter>LINEAR</minfilter>
						<magfilter>LINEAR</magfilter>
					</sampler2D>
				</newparam>
				<technique sid="COMMON">
					<phong>
						<diffuse>
							<texture texture="karonnew-sampler" texcoord="TEXCOORD0" />
						</diffuse>
					</phong>
				</technique>
			</profile_COMMON>
		</effect>
	</library_effects>
	<library_geometries>
		<geometry id="polygon0" name="polygon0">
			<mesh>
				<source id="polygon0_Positions">
					<float_array id="polygon0_PosArr" count="1347">-10.5851 0.6755008 11.62022 -4.587701 9.3018 12.39819 -2.384215 0.001034743 7.840565 -1.458336 9.729265 4.326913 -2.386064 7.414154 -11.61986 -3.519375 13.29874 -8.092876 -10.5851 7.579399 -16.14158 -10.5851 13.81248 -13.04105 -18.78413 7.414155 -11.61985 -17.04244 13.29875 -8.092876 -19.71186 9.729267 4.326913 -15.58968 13.51548 0.8354524 -10.5851 14.35978 8.21759 -5.580513 13.51548 0.8354523 -14.63183 14.91023 -8.254338 -14.6765 20.37042 -3.663313 -14.62233 14.91023 -4.31909 -10.56907 20.25085 -1.826558 -10.56176 14.91023 -2.884145 -6.373147 20.26814 -6.064585 -6.666207 14.91022 -6.082444 -10.49299 20.24836 -10.46474 -10.49243 14.91022 -9.571052 -14.63941 20.33044 -8.973371 -2.0345 16.20776 -2.845218 -4.075393 18.15237 -7.459784 -5.010733 16.42544 -12.76228 -10.5851 18.15237 -12.34339 -14.70398 16.45243 -12.75204 -17.0948 18.15237 -7.459785 -19.13569 16.20776 -2.845218 -14.58612 18.15237 -0.1551438 -10.5851 16.21216 2.219161 -6.584085 18.15236 -0.1551437 14.62231 14.91024 -4.319088 14.67646 20.37043 -3.663311 14.6318 14.91024 -8.254337 14.63937 20.33045 -8.973368 10.4924 14.91022 -9.57105 10.49295 20.24836 -10.46474 6.666182 14.91021 -6.082441 6.37311 20.26813 -6.064579 10.56173 14.91023 -2.884142 10.56903 20.25086 -1.826554 5.010704 16.42543 -12.76227 4.075361 18.15235 -7.45978 2.034473 16.20774 -2.845213 6.584054 18.15235 -0.1551397 10.58507 16.21216 2.219163 14.58608 18.15238 -0.1551417 19.13566 16.20778 -2.845217 17.09476 18.15238 -7.459785 14.70395 16.45244 -12.75203 10.58506 18.15237 -12.34339 3.519354 13.29873 -8.092873 5.580493 13.51546 0.8354561 15.58966 13.51549 0.8354533 17.04242 13.29876 -8.092877 10.58507 13.81248 -13.04105 -29.93521 55.60891 -1.872832 -24.47482 56.57178 2.705792 -29.93502 55.65066 2.062206 -24.59425 52.77279 4.592173 -29.93492 52.75164 3.535019 -24.5771 48.75289 0.4061303 -29.93504 49.76665 0.3753166 -24.59714 52.58424 -4.044288 -29.93524 52.59526 -3.150416 -24.51504 56.46556 -2.603331 29.93565 55.64605 2.059702 24.47576 56.56924 2.70301 29.93556 55.60157 -1.875306 24.51559 56.4593 -2.60604 29.93462 52.58702 -3.150789 24.59646 52.57695 -4.044294 29.93382 49.76087 0.3769171 24.5756 48.7487 0.4087966 29.9348 52.74807 3.534538 24.5942 52.77152 4.592035 -16.5825 9.301796 12.39819 -18.78598 0.001036696 7.840565 -17.32875 0.001037277 -10.83559 -10.5851 0.3442927 -14.84449 -3.841445 0.001036964 -10.83558 19.71185 9.729289 4.326912 10.58508 14.35978 8.217593 1.458327 9.729241 4.326917 2.386058 7.414135 -11.61986 10.58509 7.579403 -16.14158 3.841458 0.001021688 -10.83558 2.384232 0.001012335 7.840565 4.587695 9.30178 12.3982 10.58511 0.6754983 11.62022 16.58249 9.301808 12.3982 18.786 0.001055778 7.840562 18.78412 7.414178 -11.61986 -32.67292 46.33078 5.54676 -36.49999 46.01047 5.167927 -33.47841 50.14553 7.651155 -37.86544 48.51371 5.92723 -35.53262 56.67112 7.194086 -43.2118 51.43325 6.74013 -40.96405 57.07806 7.079926 28.59266 58.30302 0.2005789 30.55744 57.5274 -0.8156034 28.52785 55.36523 5.714733 30.55686 55.23265 4.74259 28.4827 47.23857 4.026184 30.60328 48.20895 3.50135 30.60308 47.99593 -3.542106 -30.60507 48.00463 -3.544894 -39.2112 46.68361 1.284432 17.32877 0.001057578 -10.83559 10.58511 0.3442957 -14.84449 -30.55617 55.23557 4.744847 -30.60475 48.21275 3.498712 28.42894 47.18859 -4.319781 28.53053 55.51346 -5.938147 30.5566 55.09024 -5.275685 32.67105 46.3278 5.550574 36.49799 46.0061 5.171708 39.20915 46.67575 1.287562 33.31659 49.26146 -6.152327 38.21901 49.13565 -6.781178 -33.31839 49.27279 -6.154048 -38.22089 49.14885 -6.782658 -43.24993 51.63239 -6.001272 -41.44691 58.65097 0.01315664 -43.36521 51.7282 0.9104768 -34.89513 55.70285 -7.760149 -40.39267 55.70527 -7.47718 -30.55646 57.53419 -0.8117449 37.86423 48.50948 5.929173 43.21151 51.42801 6.739679 43.36461 51.71885 0.9098099 40.96543 57.07372 7.075685 35.53389 56.66845 7.190494 33.4778 50.14379 7.652255 41.44828 58.64156 0.00778888 -28.43122 47.19721 -4.323276 -28.48441 47.24137 4.022725 10.67246 23.41342 -6.169807 -10.67251 23.41342 -6.169811 21.43134 52.11723 0.2574271 -21.43187 52.1206 0.256898 -28.52706 55.36687 5.716947 -28.59138 58.30853 0.2048458 -28.53048 55.52323 -5.935828 -30.55663 55.10015 -5.273526 34.89511 55.68994 -7.763019 40.39267 55.69093 -7.480421 43.24884 51.61826 -6.001861 16.72565 75.2066 10.46277 17.96574 80.87831 14.34059 15.50169 77.34118 12.40168 15.17709 77.35217 15.21054 12.38867 75.80371 10.46277 11.73948 75.82571 15.81914 8.497994 70.52189 7.428167 6.135894 67.19848 15.9801 6.510929E-07 67.90382 5.806568 5.665658E-07 66.92867 20.15592 -6.135892 67.19848 15.98011 -8.573143 76.00786 22.51639 -11.73948 75.82571 15.81914 -15.64534 74.79019 16.96844 -15.17709 77.35217 15.21054 -17.96574 80.87831 14.34059 -15.50169 77.34118 12.40168 -16.72565 75.2066 10.46277 -12.38867 75.80371 10.46277 -13.99844 82.74406 -0.7844561 -11.48005 82.6845 1.10436 -7.814379 85.06312 -5.645216 -6.486593 84.82516 -2.676326 1.445772E-06 85.66972 -8.132732 1.43111E-06 85.5844 -4.464117 6.486596 84.82516 -2.676327 6.452995 72.95673 0.1806636 11.48005 82.6845 1.104359 14.6949 79.75367 27.30284 13.32755 83.03641 28.82548 17.69172 82.0381 22.52284 10.5132 89.71348 28.72653 13.19092 89.71751 21.02004 1.853837E-06 94.62796 28.60679 1.767852E-06 94.3541 21.96616 -13.19092 89.71751 21.02004 -7.436983 91.55559 17.46546 -13.73717 87.02531 14.20377 -13.04965 90.12545 11.41587 -17.84123 87.5771 5.731191 -15.24786 90.53288 5.692478 -13.14586 91.69301 0.2534736 -13.68281 101.8247 4.668346 -6.825637 102.4626 1.436197 -10.39501 110.2758 8.762784 -5.55412 111.537 8.615812 -5.485993 111.8684 14.65873 -2.742996 111.5194 12.22184 2.166731E-06 108.4434 16.49354 2.07771E-06 108.5775 8.436761 2.743 111.5194 12.22184 5.554125 111.537 8.615812 5.485998 111.8684 14.65873 10.39501 110.2758 8.762783 10.27427 109.3868 13.05285 13.82632 100.7862 10.9274 13.48583 59.22532 -6.438774 15.791 61.6436 -3.380461 -1.473697E-05 65.75666 -9.187264 2.325555E-06 69.36003 -6.430078 -15.79099 61.6436 -3.380461 -13.89578 59.55663 1.270918 -21.9394 43.31162 -5.137672 -19.54458 41.78316 -0.1625285 -15.79093 27.13108 -13.932 -13.89588 26.24671 -8.912953 -1.52386E-05 22.43919 -20.77522 -1.517381E-05 22.50611 -15.23651 13.89582 26.24671 -8.912952 -9.392467E-07 45.34018 -11.70355 19.54457 41.78316 -0.162528 13.89582 59.55663 1.270916 21.93939 43.31162 -5.137673 17.77643 43.98088 -7.310838 9.024704 53.32582 -0.09918095 12.44937 52.45839 -3.836723 12.33125 56.17018 -2.545724 21.15551 52.5598 -3.993776 21.13864 56.67352 -2.564202 25.42841 52.05754 0.2579299 21.1069 56.7452 2.668742 21.12287 52.76562 4.627517 12.45709 52.65972 3.705752 21.21916 48.80055 0.4174699 12.58524 49.0855 -0.04915799 10.30203 35.82043 -6.511013 10.48349 29.29872 -10.25978 14.09515 29.418 -8.917998 10.58952 23.68906 -10.41462 14.9032 23.70723 -8.928752 10.56718 19.41639 -6.169808 14.90308 23.73945 -3.69532 10.67706 23.72252 -1.791319 10.58133 29.29172 -2.715255 6.198736 23.62473 -6.055353 6.98721 29.16222 -6.518831 -10.4835 29.29872 -10.25978 -10.30203 35.82043 -6.511012 -14.09516 29.41802 -8.918 -14.10321 29.4193 -4.593764 -14.90323 23.70724 -8.928757 -14.90311 23.73946 -3.695325 -10.56722 19.4164 -6.169811 -10.67709 23.72252 -1.791321 -6.198767 23.62472 -6.055353 -10.58135 29.29172 -2.715256 -6.987224 29.16221 -6.518829 9.343575 75.23132 24.99322 15.64535 74.79019 16.96844 8.487969 68.47165 19.37403 14.13078 70.75967 12.65975 11.64391 67.74648 11.94403 15.14015 71.99511 2.193991 8.64061 66.79256 -1.283414 8.157247 73.8877 -7.286027 7.471367E-07 69.22737 -7.465312 1.024071E-06 75.56063 -10.32375 -8.157245 73.8877 -7.286028 -11.16789 75.6718 -8.647772 -7.007853 77.55725 -11.02887 -9.87817 85.40891 -11.53666 1.06505E-06 85.40891 -13.33036 1.242908E-06 89.85734 -10.58053 9.878173 85.40891 -11.53666 8.496867 89.01031 -8.64903 16.05564 88.40949 -2.947578 13.14586 91.69301 0.2534733 17.84124 87.5771 5.731191 15.24786 90.53288 5.692477 13.04966 90.12545 11.41587 -12.45007 52.46198 -3.837614 -9.024903 53.32581 -0.09969869 -12.33078 56.17284 -2.544035 -12.32959 56.23718 1.779731 -21.13802 56.67877 -2.561571 -21.10592 56.74679 2.67142 -25.42896 52.06208 0.2576286 -21.12292 52.76585 4.62742 -21.22065 48.80374 0.4146145 -12.45723 52.65804 3.704998 -12.58668 49.08649 -0.05239568 9.934716 87.8927 5.082042 1.417412E-06 89.40279 5.755569 7.112267 84.5616 20.55798 1.537922E-06 84.66681 29.55157 8.139985 75.26388 25.31387 1.066514E-06 70.293 29.57424 9.737772E-07 67.30302 30.03803 -8.139982 75.26388 25.31387 -9.574733 73.59962 27.24231 -11.02801 75.0734 21.58497 -14.69273 74.28735 23.59269 -14.45022 69.25927 17.69916 1.489234E-06 93.91022 -0.8064187 -8.496864 89.01031 -8.649029 -16.05564 88.40949 -2.947577 -18.07607 82.57489 -4.973999 -15.70374 75.28879 -4.952907 15.69771 74.86786 17.04743 16.71358 75.36064 10.5217 13.94694 76.19052 10.22588 16.0642 70.96647 6.865753 15.35776 76.16857 4.950591 17.77763 76.76061 4.950591 14.54577 74.8752 -1.720623 15.70374 75.28879 -4.952907 9.817288 74.70171 -6.437807 11.16789 75.6718 -8.647772 7.007855 77.55725 -11.02887 7.871653 86.7288 -3.713738 1.186648E-06 86.89983 -7.062764 -7.871649 86.72881 -3.713738 -6.092056 75.58617 -8.544589 -9.817285 74.70171 -6.437807 5.971595 25.32113 -15.53449 4.16829 22.65533 -3.643797 16.24637 35.80872 -6.496909 10.173 29.06113 3.402669 11.81038 38.95306 7.58805 -4.882834E-06 28.57319 5.421981 -6.74346E-06 38.27748 10.34599 -11.8104 38.95306 7.588051 -10.76406 49.34494 7.414272 -15.59191 47.30806 -2.430912 -10.22184 58.46852 -3.13706 9.586237E-07 81.89393 -12.56139 18.07607 82.57489 -4.974 19.49974 82.42958 5.329922 15.79096 27.13108 -13.932 -1.520324E-05 26.97724 -21.04333 -13.48584 30.85503 -15.11244 -17.77638 43.98088 -7.310841 -13.48584 59.22532 -6.43877 16.24142 82.29264 13.19515 13.73717 87.02531 14.20377 7.436986 91.55559 17.46546 1.620714E-06 92.26947 15.17619 -15.14015 71.99511 2.193991 -14.13077 70.75967 12.65975 -11.64391 67.74648 11.94403 -8.487966 68.47165 19.37403 4.291549E-07 63.43537 16.63857 5.48523E-07 66.90618 25.83092 6.457065 89.61761 33.20992 3.332346 86.74373 36.20695 1.790602E-06 90.48691 34.87247 1.58646E-06 83.06484 38.27124 -3.332342 86.74373 36.20695 -6.664689 83.00053 35.2499 -6.45706 89.61761 33.20992 -10.147 86.42786 31.81788 -10.5132 89.71348 28.72653 -13.32755 83.03641 28.82548 4.23035E-07 62.34311 3.303887 -8.640607 66.79257 -1.283414 -4.958987 56.45733 6.830253 -8.654437E-06 48.59763 10.47735 10.76404 49.34494 7.414271 15.5919 47.30806 -2.430913 6.760334 100.8654 13.81708 1.916398E-06 100.8176 16.48524 -6.760329 100.8654 13.81708 -13.82632 100.7862 10.9274 13.48583 30.85503 -15.11244 8.669087 38.00918 -28.70038 14.29049 48.66095 -22.41477 -1.079023E-07 51.12678 -30.48016 7.626688 61.04082 -21.80544 -7.626693 61.04082 -21.80544 -7.112264 84.5616 20.55798 -12.85453 76.11292 17.04743 -15.69771 74.86786 17.04743 -9.934713 87.89271 5.082042 -13.94694 76.19052 10.22588 -15.35776 76.16857 4.950592 -16.0642 70.96648 6.865754 -17.77762 76.76062 4.950592 6.092059 75.58617 -8.544589 9.037474E-07 79.34873 -10.09112 -16.24639 35.80872 -6.496911 -10.17302 29.06113 3.402672 -4.168311 22.65533 -3.643797 12.85453 76.11292 17.04743 11.02802 75.0734 21.58497 14.45022 69.25927 17.69916 14.69273 74.28735 23.59269 6.825641 102.4626 1.436197 13.68281 101.8247 4.668346 10.74398 77.40519 30.6328 6.664692 83.00053 35.2499 9.310501E-07 73.92704 -2.417538 -6.452993 72.95673 0.1806644 9.574736 73.59962 27.24231 10.48392 74.10085 28.28741 6.329911 73.94853 32.04357 1.316874E-06 75.51931 36.37542 -6.329907 73.94853 32.04357 -10.74397 77.40519 30.6328 -10.48391 74.10085 28.28741 -8.497993 70.52189 7.428168 -14.6949 79.75367 27.30284 -17.69171 82.0381 22.52284 10.147 86.42786 31.81788 -9.343574 75.23132 24.99322 8.911043E-07 75.13501 27.84181 8.17906E-07 73.63006 30.97549 8.573146 76.00786 22.51639 18.0881 74.77035 13.74018 -18.0881 74.77035 13.74018 -8.669116 38.00918 -28.70038 -14.29051 48.66095 -22.41477 -1.648529E-06 66.19382 -1.879843 -1.50619E-05 24.88953 -7.328037 4.63024 26.71227 -11.67253 -0.0586152 17.88274 -14.26358 -1.530226E-05 13.5597 -19.77266 -4.630242 26.71226 -11.67253 -1.512674E-05 28.27392 -15.39473 -21.15619 52.56605 -3.994013 12.33037 56.23755 1.777996 14.10319 29.41929 -4.593762 -10.58955 23.68906 -10.41462 -16.24142 82.29264 13.19515 -16.71358 75.36065 10.5217 -19.49973 82.42958 5.329922 -14.54576 74.8752 -1.720623 -10.27427 109.3868 13.05285 8.575703 61.16642 -1.11785 6.337954 59.72885 7.579123 -6.706612E-06 63.03232 -4.577305 -6.337968 59.72885 7.085462 -8.575719 61.16642 -1.117849 4.958968 56.45733 6.830255 10.22182 58.46852 -3.137059 7.814381 85.06312 -5.645216 13.99844 82.74406 -0.7844568 -5.971616 25.32113 -15.53449</float_array>
					<technique_common>
						<accessor source="#polygon0_PosArr" count="449" stride="3">
							<param name="X" type="float" />
							<param name="Y" type="float" />
							<param name="Z" type="float" />
						</accessor>
					</technique_common>
				</source>
				<source id="polygon0_Normals">
					<float_array id="polygon0_NormArr" count="1410">-1.579179E-08 -0.5155635 0.8568118 0.4708864 0.2771609 0.8375242 0.7495726 -0.5927735 0.2946779 0.8579103 0.4876097 0.1621701 0.9056396 0.04998739 -0.4210817 0.782837 0.5597531 -0.2717899 0.010559 0.1549678 -0.9878541 -0.1895752 0.5277706 -0.8279421 -0.8554688 0.1568603 -0.4934692 -0.7637328 0.5991212 -0.2404177 -0.8518065 0.5013431 0.1519164 -0.4088133 0.9088746 0.08221397 2.625596E-07 0.9462892 0.3233028 0.4005129 0.9113159 0.09545851 -0.9229127 -0.05548092 -0.3810424 -0.8444213 0.3767094 0.3808593 -0.6821899 -0.120666 0.7211915 0.06286637 0.2799077 0.9579467 0.3850709 -0.1364743 0.9127197 0.9075929 0.34906 0.2333371 0.9492187 -0.09228552 -0.3007813 0.3581543 0.301147 -0.8837892 0.01171861 -0.1531377 -0.9881591 -0.6578979 0.3488158 -0.6674806 0.9181519 0.2269287 0.3247679 0.367676 0.9245604 -0.1004033 0.5717773 0.2033686 -0.7948 -0.01647934 0.8661497 -0.4995732 -0.5524903 0.1368406 -0.8222046 -0.4090574 0.8982544 -0.1605228 -0.9503784 0.1607669 0.2662964 -0.2985837 0.8093875 0.5057369 1.608008E-07 0.2479253 0.9688109 0.2985842 0.8093874 0.5057369 0.5092163 -0.3027951 0.8056031 0.7963255 -0.5383304 -0.2758177 -0.0312502 -0.4821171 -0.8755491 -0.7924196 -0.4933471 -0.3587033 -0.5075073 -0.3249507 0.7980348 0.6821862 -0.1206667 0.7211338 0.8444194 0.3767089 0.3808638 0.9228535 -0.05548089 -0.3810378 0.6578403 0.3488161 -0.667477 -0.0117137 -0.153137 -0.9881593 -0.3581498 0.3011477 -0.8837909 -0.9492172 -0.09228506 -0.3007251 -0.907594 0.34906 0.2333328 -0.3850755 -0.1364748 0.9127177 -0.0628711 0.279907 0.9579465 -0.5717733 0.2033693 -0.7948027 -0.3676752 0.9244996 -0.1004045 -0.9181535 0.2269287 0.3247634 -0.2985865 0.8093871 0.505736 -4.946899E-06 0.2479246 0.9688111 0.2985814 0.8093871 0.505739 0.950377 0.1607665 0.2663013 0.4090585 0.8982544 -0.1605202 0.5524945 0.136841 -0.8222017 0.01648207 0.86615 -0.4995725 -0.7963243 -0.53833 -0.2758221 -0.5092204 -0.3027956 0.8056003 0.5075032 -0.3249514 0.7980372 0.7924213 -0.4933471 -0.3587607 0.03125446 -0.4821165 -0.8755493 -0.1958024 0.9116211 -0.3613273 0.3034683 0.8764039 0.3739001 -0.1984836 0.717041 0.6681527 0.2570231 -0.03875728 0.9656361 -0.1799278 -0.3967285 0.9001473 0.2352915 -0.9486694 0.2114858 -0.16327 -0.9544067 -0.2498772 0.2688563 -0.4188232 -0.8673717 -0.1775554 -0.01812748 -0.983947 0.3079805 0.6792603 -0.666139 0.1987856 0.7174683 0.6676043 -0.3031651 0.8767699 0.3732885 0.1960476 0.911316 -0.3619368 -0.3077949 0.6788939 -0.6665675 0.1774986 -0.01885977 -0.9839463 -0.2690355 -0.4193116 -0.8670677 0.1629663 -0.9546508 -0.2492052 -0.2355361 -0.9484254 0.2121562 0.1799242 -0.3961792 0.9003921 -0.2569662 -0.03802502 0.965696 -0.4708861 0.2771612 0.8375244 -0.7495729 -0.5927731 0.2946781 -0.4932253 -0.7988282 -0.3442989 -2.391735E-07 -0.5957645 -0.8031613 0.4932249 -0.7988284 -0.344299 0.7637342 0.5991212 -0.2404134 0.8518059 0.5013427 0.151921 0.4088131 0.9088745 0.08221666 -1.622803E-06 0.946289 0.3233035 -0.4005132 0.9113159 0.09545715 -0.857911 0.4875488 0.1621662 -0.7828355 0.5597535 -0.2717934 -0.9056375 0.04998792 -0.4210861 -0.01055404 0.1549685 -0.987854 -0.4932234 -0.798828 -0.344302 -0.7495742 -0.5927735 0.2946738 -0.4708905 0.2771604 0.8375221 -4.379111E-06 -0.5155642 0.8568114 0.470882 0.2771604 0.8375269 0.7495713 -0.5927736 0.2946814 0.8554713 0.1568605 -0.4935259 0.1895794 0.5277712 -0.8279408 0.4826679 -0.7619018 0.4319438 -0.217039 -0.8571777 0.4670419 0.2825357 -0.1966552 0.9389026 -0.3630336 -0.4365845 0.8231827 0.1422154 0.5143433 0.8457025 -0.7330295 -0.2544556 0.6308014 -0.4261448 0.6224365 0.6564959 -0.8062136 0.5916135 -0.007270001 0.002807465 0.9996948 -0.02563472 0.04979809 0.6602173 0.7494511 -0.2954785 0.4534301 0.8408788 -0.6604043 -0.5701907 0.4885808 -0.4435477 -0.626465 0.6409264 -0.1220053 -0.8948365 -0.4294444 0.1217024 -0.8945313 -0.4301152 -0.439087 -0.8972169 -0.04705625 0.4932268 -0.7988281 -0.344297 4.076932E-06 -0.595764 -0.8031617 0.2956578 0.4527588 0.8411853 0.4434232 -0.6270751 0.64044 -0.6710163 -0.5750124 -0.4680843 -0.2802663 0.4348144 -0.8557763 -0.2483444 0.32135 -0.9138204 -0.4828525 -0.7614748 0.432491 0.2168543 -0.8569335 0.4675921 0.4387825 -0.8973997 -0.04644406 -0.2944269 -0.5645143 -0.7711207 0.1313549 -0.5440063 -0.8287343 0.2941863 -0.5640869 -0.7715466 -0.1315952 -0.5433961 -0.829101 -0.8715838 -0.2436524 -0.4253503 -0.6273805 0.7784423 -0.01983382 -0.9782104 -0.2075196 0.0009196278 0.2366905 0.3486938 -0.9068614 -0.2880892 0.562561 -0.7749622 -0.00250263 0.9996948 -0.02490236 0.3629692 -0.4360961 0.8234894 0.7329659 -0.2542112 0.6309266 0.9781495 -0.2077633 0.001045882 0.4263858 0.6227418 0.6560705 -0.1419751 0.5149536 0.8453357 -0.2825396 -0.195923 0.9390235 0.6276244 0.7782595 -0.02044144 0.6707745 -0.5748901 -0.4685697 0.6602804 -0.5706787 0.4881564 -0.003845172 1 -0.003295683 -0.00384498 1 -0.003296371 -0.9992065 -0.03967322 -0.003670578 0.9992065 -0.03997794 -0.003788362 -0.04955746 0.659668 0.7498781 0.8063964 0.5913697 -0.006900363 0.2803309 0.4353027 -0.855531 0.2484092 0.3218994 -0.9136363 -0.2366257 0.3481445 -0.9071065 0.2882144 0.5618898 -0.7753882 0.8715247 -0.2442013 -0.4252856 0.8522339 0.2651996 -0.4509792 0.2014771 0.9756548 0.08653899 -0.3803711 0.7979196 -0.4676516 -0.4921875 0.7524579 0.4377261 -0.4612426 0.8868482 0.02707083 -0.4645385 0.8771514 0.1217371 -0.625183 0.7351199 0.2622935 -0.5474243 0.8194855 -0.1695566 3.877043E-08 0.9394457 0.3426173 4.088025E-08 0.9407961 -0.3389804 0.5474244 0.8194854 -0.1695566 0.2768555 0.9459668 -0.1688072 0.4645386 0.8771513 0.1217371 -0.5623169 0.01929237 0.8266648 0.4921875 0.7524578 0.4377261 -0.201477 0.9756549 0.08653898 0.3803711 0.7979196 -0.4676516 -0.8522339 0.2651997 -0.4509792 0.4612427 0.8868482 0.02707084 -0.8127441 0.535035 -0.23074 0.296875 0.7370533 0.6071323 -0.4326782 0.6522407 -0.6223685 0.1722412 0.7422508 0.6475801 3.609684E-08 0.8103368 -0.5859913 3.050454E-08 0.765709 0.6431585 -0.1722412 0.7422509 0.6475801 -0.472229 0.5470903 0.6911789 -0.296875 0.7370533 0.6071323 0.7911377 -0.1677246 0.5881348 0.7666626 0.1091309 0.6327515 0.9751587 0.1168213 0.1880493 0.6795654 0.6057739 0.4138794 0.567688 0.8231201 -0.01342778 3.474517E-08 0.9605103 0.2782592 3.102389E-08 0.9914551 -0.1302491 -0.567688 0.8231201 -0.01342777 -0.3775024 0.9242554 -0.05682377 -0.7977905 0.5870972 0.1374512 -0.6714478 0.4587403 0.5820313 -0.8555908 0.5002442 0.1331177 -0.946228 0.3209229 0.04022216 -0.5840454 0.6116333 -0.5336304 -0.84021 0.3291626 -0.4309082 -0.08551025 0.4856567 -0.8699341 -0.6387329 0.729126 -0.2457276 0.07885744 0.894104 -0.440857 -0.147705 0.9255371 0.3486938 0.4446411 0.8956909 -0.009582566 2.429135E-08 0.4194947 0.9077759 1.965824E-08 0.8074951 -0.5898438 -0.4446411 0.8956909 -0.009582556 -0.0788574 0.894104 -0.440857 0.1477051 0.9255371 0.3486938 0.6387329 0.7291259 -0.2457276 0.5964355 0.2639771 0.7579956 0.8800659 0.1420288 0.453186 0.4985352 0.3992565 -0.7694759 0.743042 0.6430225 -0.1854694 -4.187516E-09 0.6000712 -0.7999268 6.596581E-09 0.9881108 -0.1536185 -0.743042 0.6430225 -0.1854694 -0.08538817 0.1550514 0.9842113 -0.9547729 0.08696212 -0.2843831 -0.2563477 -0.2825727 0.9243266 -0.7429199 -0.4286364 -0.5140874 -0.08599854 -0.6793779 0.7287049 -1.410549E-08 -0.7321074 -0.681165 7.099792E-10 -0.7770399 0.6294174 0.08599854 -0.6793779 0.7287049 8.609028E-09 -0.2924231 0.9562919 0.2563477 -0.2825727 0.9243266 0.0853882 0.1550514 0.9842113 0.9547729 0.0869621 -0.2843832 0.5707397 0.2400433 -0.7852268 -0.9984741 0.0548706 -0.003967277 -0.3441162 -0.3829346 -0.8572998 -0.3651733 0.6610107 -0.6555176 0.2869873 -0.1325073 -0.9487305 0.3362427 0.8389282 -0.4279785 0.9998779 -0.01574707 -0.003845223 0.2953491 0.7375488 0.6072388 0.3404541 -0.1940918 0.9199829 -0.3579712 -0.1629639 0.9194336 0.2025146 -0.9790649 0.01959228 -0.4710083 -0.882019 0.01495362 0.07934577 0.9967041 -0.01770027 -0.35699 0.2190547 -0.908083 0.6876255 0.2965695 -0.6627163 -0.08965574 -0.2899174 -0.9528201 0.8576072 -0.2815554 -0.4303544 0.03845219 -0.9992676 -0.003356256 0.7402312 -0.2320553 0.6310464 -0.1714525 -0.3257442 0.9298089 -0.1710254 0.2951054 0.9400625 -0.9780273 -0.2084961 0.002863728 -0.9536743 0.3009033 -0.0003102194 0.3569946 0.2190552 -0.9080811 -0.07934547 0.9967041 -0.0177001 -0.6876221 0.29657 -0.6627197 -0.8589476 0.3401491 0.3826905 -0.8576051 -0.2815549 -0.4303588 -0.7402344 -0.2320555 0.6310425 -0.03845238 -0.9992676 -0.003357016 0.1714478 -0.3257447 0.9298095 0.9780273 -0.2084963 0.002868555 0.1710207 0.2951049 0.9400635 0.9536744 0.3009031 -0.0003052278 0.6706543 0.08310471 0.7371258 0.5623169 0.01929232 0.8266648 0.5808105 -0.6998678 0.4157487 0.7497559 -0.6467863 0.1397831 0.5757446 -0.8118644 0.09679744 0.8622437 -0.4309776 -0.2661205 0.4897461 -0.7605346 -0.4263805 0.5534058 -0.2234256 -0.8023536 -2.515829E-08 -0.6479456 -0.7616633 2.215098E-09 -0.01878442 -0.9998336 -0.5534058 -0.2234255 -0.8023536 -0.3555298 -0.5437622 -0.7601929 0.04455563 -0.6690064 -0.7419433 -0.4404907 0.2276611 -0.8684082 -8.488592E-09 0.0931396 -0.9956665 1.873153E-08 0.788269 -0.6153565 0.4404907 0.2276611 -0.8684082 0.296753 0.7947997 -0.529358 0.6696777 0.626892 -0.3981934 0.5840454 0.6116332 -0.5336304 0.8555908 0.5002441 0.1331176 0.946228 0.3209228 0.04022214 0.6714478 0.4587402 0.5820313 0.3439941 -0.3824463 -0.8575439 0.9984741 0.05462645 -0.003967301 0.3653564 0.661377 -0.6550903 0.3747559 0.8540039 0.3608398 -0.3359985 0.8393555 -0.4273682 -0.295105 0.7372437 0.6077881 -0.9998779 -0.01544187 -0.003784164 -0.3404541 -0.1946411 0.9199219 -0.2028198 -0.9790039 0.0189209 0.3579712 -0.1636963 0.9192505 0.4707641 -0.8821411 0.01428222 -0.7261353 -0.6871948 -0.02069088 -3.302722E-08 -0.9998169 -0.01885982 -0.6931152 -0.6188965 -0.3695068 -2.959077E-08 -0.6262818 -0.7796021 -0.4893799 -0.4419556 -0.75177 -1.415476E-08 -0.07910161 -0.9968872 -3.413554E-08 -0.9897461 -0.1429443 0.4893799 -0.4419556 -0.75177 -0.1099244 -0.9570313 -0.2684326 0.6820679 -0.676941 -0.2766723 -0.5321045 -0.7322387 0.4249878 -0.284668 -0.8864746 -0.3648681 1.483258E-08 0.703247 -0.7109986 -0.2967529 0.7947998 -0.529358 -0.6696777 0.6268921 -0.3981934 -0.8693237 0.08563233 -0.4868164 -0.6400146 -0.7158203 -0.2792968 0.6412354 -0.6774293 -0.3604126 0.7094727 -0.576355 0.4055176 -0.7438965 -0.6663818 -0.05035396 0.414917 -0.8962402 -0.1571045 -0.682312 -0.6636353 -0.3066406 0.6749268 -0.7002564 -0.2325439 -0.3656617 -0.8875732 0.2800904 0.6400146 -0.7158204 -0.2792968 -0.2123413 -0.9771118 0.01403813 0.3555298 -0.5437623 -0.7601929 -0.04455569 -0.6690064 -0.7419433 -0.5189819 -0.6295165 0.5782471 -1.255505E-08 -0.6508788 0.7592164 0.5189819 -0.6295166 0.5782471 0.4669189 -0.7820435 0.4127808 0.2123413 -0.9771118 0.01403813 0.2636719 -0.9490161 -0.1727681 0.3711548 -0.9072629 0.1978531 0.8768921 -0.4530391 0.1604751 0.5750732 -0.6316459 0.5199086 0.7297974 -0.1512911 0.6667269 2.635361E-09 -0.6852126 0.7283216 9.472391E-09 -0.2176241 0.9760562 -0.7297974 -0.1512911 0.6667269 -0.6481323 0.3117048 0.6947811 -0.9187622 0.1597162 0.3610137 -0.7617798 0.5088521 0.4008777 -2.573327E-08 -0.4728394 -0.8811646 0.8693237 0.08563227 -0.4868164 0.9926147 -0.09875491 0.0706787 0.7429199 -0.4286364 -0.5140875 -1.200052E-08 -0.04947158 -0.9987838 -0.4984131 0.0995397 -0.8611887 -0.5707397 0.2400433 -0.7852268 -0.4985352 0.3992565 -0.7694759 0.9702759 0.1530761 0.1873779 0.7977905 0.5870972 0.1374511 0.3775025 0.9242554 -0.05682378 3.245651E-08 0.7590333 0.651062 -0.8622437 -0.4309775 -0.2661205 -0.7497559 -0.6467862 0.1397831 -0.5757447 -0.8118643 0.09679743 -0.5808106 -0.6998677 0.4157487 -4.182237E-08 -0.9698036 0.2437235 -3.462404E-08 -0.7720475 0.6356112 0.4603272 0.5623779 0.6868896 0.3386231 0.3452759 0.8753052 2.936997E-08 0.6169434 0.7869873 1.544525E-08 0.1198731 0.9927979 -0.338623 0.3452759 0.8753052 -0.5480347 -0.03155512 0.8358765 -0.4603271 0.562378 0.6868896 -0.6898193 0.2868653 0.6646729 -0.6795654 0.605774 0.4138794 -0.7666626 0.1091309 0.6327515 -4.110703E-08 -0.9832205 -0.182577 -0.4897461 -0.7605346 -0.4263805 -0.3264771 0.4585508 0.8264992 1.310858E-08 0.2085895 0.9779958 0.6481323 0.3117048 0.6947811 0.9187622 0.1597162 0.3610137 0.3466797 -0.05108639 0.9365845 0.002014169 -0.08227535 0.996582 -0.3466797 -0.05108637 0.9365845 -0.8800659 0.1420289 0.453186 0.8113403 -0.3873835 -0.4378082 0.4273071 -0.3303936 -0.841574 0.8500977 0.1669793 -0.499432 -8.479327E-09 0.3031434 -0.9529449 0.4130859 0.751515 -0.5143703 -0.4130859 0.751515 -0.5143703 6.341766E-09 0.9848695 -0.1732244 -0.7966309 0.5814713 -0.1653425 0.6931152 -0.6188965 -0.3695068 0.7095947 -0.5128174 -0.4832153 -0.6412354 -0.6774292 -0.3604126 0.7261353 -0.6871948 -0.02069089 0.7438965 -0.6663818 -0.05035398 0.682312 -0.6636353 -0.3066406 -0.414917 -0.8962402 -0.1571044 -0.6749268 -0.7002563 -0.2325439 -0.466919 -0.7820434 0.4127808 -3.420049E-08 -0.8648682 -0.5019531 -0.8768921 -0.4530391 0.1604752 -0.5750732 -0.6316459 0.5199086 -0.3095093 -0.9428952 0.1232341 -0.7095947 -0.5128174 -0.4832153 -0.6820679 -0.6769409 -0.2766723 0.2846679 -0.8864746 -0.3648681 0.5321045 -0.7322388 0.4249878 0.08551026 0.4856567 -0.8699341 0.84021 0.3291625 -0.4309082 0.6529541 -0.3087158 0.6916504 0.5480347 -0.03155515 0.8358765 2.068053E-08 0.5475919 0.836711 0.472229 0.5470903 0.6911789 0.1099243 -0.9570313 -0.2684326 0.5532227 -0.7263184 0.4078369 0.5004272 -0.4763183 0.7229614 -2.891155E-09 -0.4103393 0.9119263 -0.5004272 -0.4763183 0.7229614 -0.6529541 -0.3087158 0.6916504 -0.5532227 -0.7263183 0.4078369 0.6251832 0.7351198 0.2622935 -0.7911377 -0.1677245 0.5881348 -0.9751587 0.1168213 0.1880493 0.6898193 0.2868652 0.6646729 -0.6706543 0.08310477 0.7371258 4.221053E-08 0.983386 -0.1815283 1.267736E-08 0.3653865 0.9308636 -0.2768554 0.9459668 -0.1688072 0.9170532 -0.3885767 0.08921363 -0.9170532 -0.3885766 0.08921362 0.7966309 0.5814713 -0.1653426 0.9765625 0.06317667 -0.2058036 -0.4273071 -0.3303936 -0.841574 -0.8500977 0.1669793 -0.4994319 -0.8113403 -0.3873835 -0.4378081 -0.9765625 0.06317668 -0.2058036 1.356112E-08 0.2910684 0.9567136 0.4984131 0.0995397 -0.8611887 -0.001159666 -0.7035019 0.7107171 0.9271851 -0.3633429 0.09114588 -0.006774901 -0.7443951 0.6677302 -0.01934816 -0.6827492 -0.7304072 -0.9310913 -0.3552505 0.08302436 -8.69575E-09 0.285174 -0.9584703 -0.2871094 -0.1317749 -0.9487915 -0.3745117 0.8543701 0.3602905 0.8589458 0.3401491 0.3826947 0.0896605 -0.2899169 -0.9528199 -0.9702759 0.1530762 0.1873779 -0.7094727 -0.5763549 0.4055176 -0.9926147 -0.09875485 0.07067873 0.3656616 -0.8875732 0.2800904 -0.5964355 0.2639771 0.7579956 0.5953369 0.7539331 0.2778037 0.5632935 0.5191737 0.642813 -0.002014149 0.9746154 0.2237629 -0.5709229 0.5155306 0.6389637 -0.5943604 0.7487991 0.2933356 0.3264771 0.4585508 0.8264992 0.7617798 0.5088521 0.4008777 -0.5109253 -0.3162698 0.7993392 0.4845581 -0.3486978 0.8022156 0.4326783 0.6522407 -0.6223685 0.8127441 0.5350349 -0.23074 -0.3998413 -0.905458 -0.1423838 0.9368286 -0.05261205 0.3457202 -0.9328613 -0.03384684 0.3586083</float_array>
					<technique_common>
						<accessor source="#polygon0_NormArr" count="470" stride="3">
							<param name="X" type="float" />
							<param name="Y" type="float" />
							<param name="Z" type="float" />
						</accessor>
					</technique_common>
				</source>
				<source id="polygon0_Colors0">
					<float_array id="polygon0_ColorArr0" count="200">0.6039216 0.6039216 0.6039216 0.6039216 1 1 1 1 0.3960785 0.3960785 0.3960785 0.3960785 0.7960785 0.7960785 0.7960785 0.7960785 0.6666667 0.6666667 0.6666667 0.6666667 0.509804 0.509804 0.509804 0.509804 0.9529412 0.9529412 0.9529412 0.9529412 0.6352941 0.6352941 0.6352941 0.6352941 0.8588236 0.8588236 0.8588236 0.8588236 0.8274511 0.8274511 0.8274511 0.8274511 0.5411765 0.5411765 0.5411765 0.5411765 0.572549 0.572549 0.572549 0.572549 0.09411766 0.09411766 0.09411766 0.09411766 0.8901961 0.8901961 0.8901961 0.8901961 0.1882353 0.1882353 0.1882353 0.1882353 0.9843138 0.9843138 0.9843138 0.9843138 0.7450981 0.7450981 0.7450981 0.7450981 0.4431373 0.4431373 0.4431373 0.4431373 0.7137255 0.7137255 0.7137255 0.7137255 0.427451 0.427451 0.427451 0.427451 0.9215687 0.9215687 0.9215687 0.9215687 0.6509804 0.6509804 0.6509804 0.6509804 0.9058824 0.9058824 0.9058824 0.9058824 0.5568628 0.5568628 0.5568628 0.5568628 0.6196079 0.6196079 0.6196079 0.6196079 0.3803922 0.3803922 0.3803922 0.3803922 0.4117647 0.4117647 0.4117647 0.4117647 0.5254902 0.5254902 0.5254902 0.5254902 0.8117648 0.8117648 0.8117648 0.8117648 0.4588236 0.4588236 0.4588236 0.4588236 0.8745099 0.8745099 0.8745099 0.8745099 0.7294118 0.7294118 0.7294118 0.7294118 0.764706 0.764706 0.764706 0.764706 0.937255 0.937255 0.937255 0.937255 0.8431373 0.8431373 0.8431373 0.8431373 0.3647059 0.3647059 0.3647059 0.3647059 0.6980392 0.6980392 0.6980392 0.6980392 0.9686275 0.9686275 0.9686275 0.9686275 0.4901961 0.4901961 0.4901961 0.4901961 0.5882353 0.5882353 0.5882353 0.5882353 0.2705882 0.2705882 0.2705882 0.2705882 0.4745098 0.4745098 0.4745098 0.4745098 0.3019608 0.3019608 0.3019608 0.3019608 0.7803922 0.7803922 0.7803922 0.7803922 0.2862745 0.2862745 0.2862745 0.2862745 0.2196079 0.2196079 0.2196079 0.2196079 0.2039216 0.2039216 0.2039216 0.2039216 0.3333333 0.3333333 0.3333333 0.3333333 0.682353 0.682353 0.682353 0.682353 0.3490196 0.3490196 0.3490196 0.3490196</float_array>
					<technique_common>
						<accessor source="#polygon0_ColorArr0" count="50" stride="4">
							<param name="R" type="float" />
							<param name="G" type="float" />
							<param name="B" type="float" />
							<param name="A" type="float" />
						</accessor>
					</technique_common>
				</source>
				<source id="polygon0_UVs0">
					<float_array id="polygon0_UVArr0" count="686">0.8361816 0.05151367 0.8317871 0.1572266 0.8569336 0.04174805 0.8759766 0.1633301 0.9633789 0.1298828 0.9440918 0.2243652 0.9848633 0.1320801 0.9711914 0.2224121 0.907959 0.215332 0.8500977 0.2150879 0.6254883 0.6599121 0.6259766 0.4819336 0.598877 0.4836426 0.5939941 0.6606445 0.5603027 0.4838867 0.5620117 0.661377 0.5734863 0.4858398 0.5930176 0.6606445 0.6257324 0.4836426 0.659668 0.8723145 0.6484375 0.9228516 0.6589355 0.9941406 0.6064453 0.9755859 0.5627441 0.9931641 0.5690918 0.932373 0.5615234 0.8793945 0.5825195 0.8659668 0.6086426 0.8425293 0.6328125 0.8659668 0.8549805 0.2944336 0.8237305 0.3276367 0.8398438 0.2890625 0.8522949 0.3276367 0.9077148 0.3017578 0.9694824 0.3276367 0.9755859 0.2890625 0.9790039 0.3286133 0.9602051 0.2944336 0.9108887 0.3276367 0.9589844 0.04174805 0.980957 0.04663086 0.4614258 0.6472168 0.4902344 0.6645508 0.4492188 0.6767578 0.4870605 0.6872559 0.4333496 0.7307129 0.5061035 0.729248 0.4702148 0.755127 0.8415527 0.3413086 0.8415527 0.3044434 0.8588867 0.3410645 0.8620605 0.3039551 0.878418 0.3400879 0.8771973 0.3044434 0.878418 0.3044434 0.847168 0.4804688 0.8623047 0.4328613 0.8635254 0.5253906 0.9614258 0.4316406 0.963623 0.5231934 0.9775391 0.4733887 0.5195313 0.8286133 0.5446777 0.9211426 0.4912109 0.8271484 0.4699707 0.8623047 0.4741211 0.8293457 0.4570313 0.8188477 0.3850098 0.7626953 0.3537598 0.7573242 0.3825684 0.7272949 0.3540039 0.7141113 0.3835449 0.7033691 0.354248 0.703125 0.8781738 0.3398438 0.8789063 0.3044434 0.8591309 0.3413086 0.8618164 0.3044434 0.8422852 0.3413086 0.8413086 0.3039551 0.5314941 0.9165039 0.4455566 0.9360352 0.4438477 0.9472656 0.3969727 0.809082 0.4343262 0.8127441 0.3776855 0.8691406 0.4287109 0.8657227 0.4284668 0.9467773 0.4211426 0.7097168 0.4108887 0.7070313 0.4992676 0.692627 0.4577637 0.748291 0.5129395 0.7419434 0.3554688 0.9831543 0.375 0.9931641 0.3532715 0.9606934 0.3984375 0.9694824 0.3972168 0.934082 0.5571289 0.8911133 0.5727539 0.9973145 0.6010742 0.8486328 0.6569824 0.9882813 0.6657715 0.8840332 0.4458008 0.8635254 0.3959961 0.9934082 0.8781738 0.3391113 0.5917969 0.2722168 0.3876953 0.9602051 0.3745117 0.9326172 0.3840332 0.6865234 0.3522949 0.6850586 0.3840332 0.6508789 0.3688965 0.6425781 0.9777832 0.4736328 0.9614258 0.4282227 0.963623 0.5268555 0.8635254 0.5285645 0.847168 0.4807129 0.8623047 0.4301758 0.3535156 0.9416504 2.724121 0.4125977 2.704834 0.4423828 2.715332 0.4116211 2.701416 0.4118652 2.724854 0.4033203 2.691162 0.4035645 2.734131 0.1174316 2.684814 0.1113281 2.734863 0.1005859 2.653809 0.09912109 2.661133 0.4162598 2.688965 0.4199219 2.76001 0.4333496 2.761475 0.4133301 2.779785 0.432373 2.781006 0.4187012 2.789551 0.4418945 2.792725 0.4257813 2.777588 0.1118164 0.7773438 0.3393555 0.7924805 0.3693848 0.7624512 0.3100586 0.777832 0.3234863 0.7429199 0.3156738 0.7731934 0.295166 0.75 0.3000488 0.7404785 0.3156738 0.7290039 0.3464355 0.7165527 0.3300781 0.6984863 0.3476563 0.6958008 0.3305664 0.675293 0.3266602 0.682373 0.2658691 0.6853027 0.2004395 0.6879883 0.1638184 0.6721191 0.1694336 0.6943359 0.1508789 0.7077637 0.1711426 0.6328125 0.1269531 0.6982422 0.1621094 0.7053223 0.2675781 0.4836426 0.4633789 0.4685059 0.4870605 0.5524902 0.5231934 0.5524902 0.5625 0.4689941 0.4870605 0.4816895 0.4667969 0.4345703 0.3012695 0.4526367 0.2792969 0.4550781 0.1032715 0.4831543 0.1164551 0.5500488 0.01977539 0.5500488 0.02050781 0.4836426 0.1162109 0.5576172 0.3117676 0.4528809 0.2785645 0.4814453 0.4675293 0.4348145 0.3012695 0.4633789 0.2993164 0.5861816 -0.004394531 0.59375 0.1252441 0.6213379 0.1230469 0.5959473 0.1469727 0.623291 0.1472168 0.597168 0.3742676 0.623291 0.1464844 0.5969238 0.1462402 0.5947266 0.1254883 0.5620117 0.1486816 0.5634766 0.1259766 0.659668 0.442627 0.6889648 0.4199219 0.6699219 0.3095703 0.7175293 0.1889648 0.7158203 0.166748 0.7492676 0.2302246 0.7626953 0.1933594 0.7861328 0.2595215 0.7868652 0.1875 0.7980957 0.3000488 0.7797852 0.432373 0.7600098 0.4333496 0.6564941 0.470459 0.6516113 0.4604492 0.6394043 0.3686523 0.6333008 0.3701172 0.6345215 0.3374023 0.642334 0.3413086 0.6625977 0.3408203 4.713135 0.09692383 4.715576 0.07568359 4.772217 0.1057129 4.806641 0.104248 4.788086 0.4257813 4.806641 0.4245605 4.80542 0.4360352 4.786865 0.4431152 4.771484 0.4245605 4.772705 0.4416504 4.763428 0.4624023 0.6313477 0.2531738 0.6523438 0.3540039 0.6762695 0.4570313 4.744141 0.4362793 4.723877 0.4406738 4.724121 0.4211426 4.713135 0.4616699 4.704346 0.4208984 4.699951 0.4404297 4.682617 0.434082 4.67627 0.4570313 4.66333 0.4475098 4.656494 0.470459 4.651611 0.4604492 4.679443 0.09277344 4.666748 0.09033203 4.654297 0.4448242 0.2897949 0.5898438 0.09863281 0.5925293 0.2253418 0.6982422 0.0612793 0.6691895 0.0559082 0.7602539 0.004150391 0.670166 0.004150391 0.760498 0.09448242 0.8503418 0.2211914 0.8352051 0.2023926 0.9221191 0.6367188 0.4306641 0.7094727 0.3164063 0.6999512 0.4404297 0.7131348 0.4616699 0.454834 0.1037598 0.5500488 0.07202148 0.470459 0.1459961 0.4626465 0.2993164 0.4833984 0.4633789 0.723877 0.4406738 0.7441406 0.4362793 0.7368164 0.3642578 0.7277832 0.3156738 0.7241211 0.4125977 0.6928711 0.1413574 0.6464844 0.2663574 0.7255859 0.6369629 0.6948242 0.5974121 0.6726074 0.657959 0.6623535 0.5356445 0.7172852 0.5366211 0.7453613 0.5864258 0.7731934 0.6364746 0.7646484 0.5517578 0.744873 0.1245117 0.1049805 0.9326172 0.004150391 0.8503418 0.7568359 0.9804688 0.7973633 0.9230957 0.7021484 0.9089355 0.7629395 0.8188477 0.7043457 0.8088379 0.7202148 0.7023926 0.8217773 0.6911621 0.8293457 0.8435059 0.4187012 0.2895508 0.3837891 0.05664063 0.3105469 0.1623535 0.2219238 0.08447266 0.1828613 0.2736816 0.09741211 0.1767578 0.09448242 0.3701172 -0.002441406 0.2709961 0.01269531 0.5515137 4.749512 0.4245605 4.636963 0.4250488 0.7634277 0.4624023 0.7727051 0.4416504 0.7924805 0.3688965 0.8063965 0.3586426 2.802734 0.1000977 0.7868652 0.4431152 0.7937012 0.4145508 0.8054199 0.4360352 0.8083496 0.4030762 0.8168945 0.4013672 0.8171387 0.3566895 2.659668 0.442627 2.63916 0.418457 2.63623 0.4421387 0.7058105 0.3283691 0.704834 0.4423828 0.02587891 0.02441406 0.2602539 -0.005615234 0.3046875 0.416748 0.2036133 0.4621582 0.3532715 0.5368652 0.2148438 0.5441895 0.5524902 0.5280762 0.4702148 0.1462402 0.361084 0.6013184 0.3608398 0.5759277 0.392334 0.5925293 0.4121094 0.5725098 0.3605957 0.5539551 0.7912598 0.3220215 0.7995605 0.3208008 0.9560547 0.5939941 0.9553223 0.5603027 0.918457 0.6154785 0.8876953 0.5568848 0.8850098 0.6037598 0.0612793 0.9299316 0.06054688 0.9589844 0.1047363 0.9328613 0.1135254 0.9594727 0.7895508 0.4418945 4.636719 0.4306641 0.6362305 0.4421387 0.08398438 0.5939941 0.08886719 0.689209 0.1806641 0.5974121 0.1149902 0.6311035 0.1962891 0.9541016 0.8208008 0.6911621 0.7768555 0.6479492 0.7219238 0.7023926</float_array>
					<technique_common>
						<accessor source="#polygon0_UVArr0" count="343" stride="2">
							<param name="S" type="float" />
							<param name="T" type="float" />
						</accessor>
					</technique_common>
				</source>
				<vertices id="polygon0_Vertices">
					<input semantic="POSITION" source="#polygon0_Positions" />
				</vertices>
				<triangles material="ka_body" count="807">
					<input semantic="VERTEX" source="#polygon0_Vertices" offset="0" />
					<input semantic="NORMAL" source="#polygon0_Normals" offset="1" />
					<input semantic="COLOR" source="#polygon0_Colors0" set="0" offset="2" />
					<input semantic="TEXCOORD" source="#polygon0_UVs0" set="0" offset="3" />
					<p>2 2 2 2 1 1 1 1 0 0 0 0 3 3 3 3 1 1 1 1 2 2 2 2 4 4 4 4 3 3 3 3 2 2 2 2 5 5 5 5 3 3 3 3 4 4 4 4 6 6 6 6 5 5 5 5 4 4 4 4 7 7 7 7 5 5 5 5 6 6 6 6 8 8 8 4 7 7 7 7 6 6 6 6 9 9 0 5 7 7 7 7 8 8 8 4 10 10 9 3 9 9 0 5 8 8 8 4 11 11 10 8 9 9 0 5 10 10 9 3 12 12 1 9 11 11 10 8 10 10 9 3 13 13 11 8 11 11 10 8 12 12 1 9 3 3 3 3 13 13 11 8 12 12 1 9 5 5 5 5 13 13 11 8 3 3 3 3 16 16 12 10 15 15 1 11 14 14 12 10 17 17 13 12 15 15 1 11 16 16 12 10 18 18 12 13 17 17 13 12 16 16 12 10 19 19 2 14 17 17 13 12 18 18 12 13 20 20 12 15 19 19 2 14 18 18 12 13 21 21 7 16 19 19 2 14 20 20 12 15 22 22 14 17 21 21 7 16 20 20 12 15 23 23 15 18 21 21 7 16 22 22 14 17 14 14 12 10 23 23 15 18 22 22 14 17 15 15 1 11 23 23 15 18 14 14 12 10 26 26 18 21 25 25 17 20 24 24 16 19 27 27 19 22 25 25 17 20 26 26 18 21 28 28 20 23 27 27 19 22 26 26 18 21 29 29 21 24 27 27 19 22 28 28 20 23 30 30 22 25 29 29 21 24 28 28 20 23 31 31 18 26 29 29 21 24 30 30 22 25 32 32 3 27 31 31 18 26 30 30 22 25 33 33 23 28 31 31 18 26 32 32 3 27 24 24 16 19 33 33 23 28 32 32 3 27 25 25 17 20 33 33 23 28 24 24 16 19 5 35 5 31 24 24 16 30 13 34 11 29 26 26 18 32 24 24 16 30 5 35 5 31 7 36 7 33 26 26 18 32 5 35 5 31 28 28 20 34 26 26 18 32 7 36 7 33 9 37 0 35 28 28 20 34 7 36 7 33 30 30 22 36 28 28 20 34 9 37 0 35 11 38 10 37 30 30 22 36 9 37 0 35 32 32 3 38 30 30 22 36 11 38 10 37 13 34 11 29 32 32 3 38 11 38 10 37 24 24 16 30 32 32 3 38 13 34 11 29 36 41 12 10 35 40 1 11 34 39 12 10 37 42 15 18 35 40 1 11 36 41 12 10 38 43 12 17 37 42 15 18 36 41 12 10 39 44 24 16 37 42 15 18 38 43 12 17 40 45 14 15 39 44 24 16 38 43 12 17 41 46 25 14 39 44 24 16 40 45 14 15 42 47 12 13 41 46 25 14 40 45 14 15 43 48 22 12 41 46 25 14 42 47 12 13 34 39 12 10 43 48 22 12 42 47 12 13 35 40 1 11 43 48 22 12 34 39 12 10 46 51 7 19 45 50 17 20 44 49 18 21 47 52 0 28 45 50 17 20 46 51 7 19 48 53 13 27 47 52 0 28 46 51 7 19 49 54 18 26 47 52 0 28 48 53 13 27 50 55 22 25 49 54 18 26 48 53 13 27 51 56 4 24 49 54 18 26 50 55 22 25 52 57 20 23 51 56 4 24 50 55 22 25 53 58 26 22 51 56 4 24 52 57 20 23 44 49 18 21 53 58 26 22 52 57 20 23 45 50 17 20 53 58 26 22 44 49 18 21 55 60 27 29 46 51 7 30 54 59 27 31 48 53 13 38 46 51 7 30 55 60 27 29 56 61 0 37 48 53 13 38 55 60 27 29 50 55 22 36 48 53 13 38 56 61 0 37 57 62 0 35 50 55 22 36 56 61 0 37 52 57 20 34 50 55 22 36 57 62 0 35 58 63 7 33 52 57 20 34 57 62 0 35 44 49 18 32 52 57 20 34 58 63 7 33 54 59 27 31 44 49 18 32 58 63 7 33 46 51 7 30 44 49 18 32 54 59 27 31 61 66 28 10 60 65 1 11 59 64 0 10 62 67 8 12 60 65 1 11 61 66 28 10 63 68 0 13 62 67 8 12 61 66 28 10 64 69 29 14 62 67 8 12 63 68 0 13 65 70 0 15 64 69 29 14 63 68 0 13 66 71 5 16 64 69 29 14 65 70 0 15 67 72 0 17 66 71 5 16 65 70 0 15 68 73 1 18 66 71 5 16 67 72 0 17 59 64 0 10 68 73 1 18 67 72 0 17 60 65 1 11 68 73 1 18 59 64 0 10 71 76 1 10 70 75 1 11 69 74 1 10 72 77 1 18 70 75 1 11 71 76 1 10 73 78 0 17 72 77 1 18 71 76 1 10 74 79 0 16 72 77 1 18 73 78 0 17 75 80 0 15 74 79 0 16 73 78 0 17 76 81 29 14 74 79 0 16 75 80 0 15 77 82 0 13 76 81 29 14 75 80 0 15 78 83 30 12 76 81 29 14 77 82 0 13 69 74 1 10 78 83 30 12 77 82 0 13 70 75 1 11 78 83 30 12 69 74 1 10 12 12 1 9 1 1 1 1 3 3 3 3 79 84 1 1 1 1 1 1 12 12 1 9 10 10 9 3 79 84 1 1 12 12 1 9 80 85 5 2 79 84 1 1 10 10 9 3 8 8 8 4 80 85 5 2 10 10 9 3 81 86 5 39 80 85 5 2 8 8 8 4 6 6 6 6 81 86 5 39 8 8 8 4 82 87 5 40 81 86 5 39 6 6 6 6 83 88 2 39 82 87 5 40 6 6 6 6 56 91 0 8 84 90 9 3 57 89 0 5 85 92 1 9 84 90 9 3 56 91 0 8 55 93 27 8 85 92 1 9 56 91 0 8 86 94 16 3 85 92 1 9 55 93 27 8 54 95 27 5 86 94 16 3 55 93 27 8 87 96 21 4 86 94 16 3 54 95 27 5 88 97 6 6 87 96 21 4 54 95 27 5 89 98 2 39 87 96 21 4 88 97 6 6 92 101 0 0 91 100 1 1 90 99 2 2 93 102 1 1 91 100 1 1 92 101 0 0 94 103 5 2 93 102 1 1 92 101 0 0 84 90 9 3 93 102 1 1 94 103 5 2 95 104 8 4 84 90 9 3 94 103 5 2 57 89 0 5 84 90 9 3 95 104 8 4 58 105 7 7 57 89 0 5 95 104 8 4 85 92 1 9 93 102 1 1 84 90 9 3 91 100 1 1 93 102 1 1 85 92 1 9 86 94 16 3 91 100 1 1 85 92 1 9 90 99 2 2 91 100 1 1 86 94 16 3 87 96 21 4 90 99 2 2 86 94 16 3 89 98 2 39 90 99 2 2 87 96 21 4 98 108 32 43 97 107 31 42 96 106 0 41 99 109 21 44 97 107 31 42 98 108 32 43 100 110 28 45 99 109 21 44 98 108 32 43 101 111 28 46 99 109 21 44 100 110 28 45 102 112 22 47 101 111 28 46 100 110 28 45 105 115 15 50 104 114 33 49 103 113 30 48 106 116 34 51 104 114 33 49 105 115 15 50 107 117 19 52 106 116 34 51 105 115 15 50 108 118 35 53 106 116 34 51 107 117 19 52 109 119 2 54 108 118 35 53 107 117 19 52 83 88 2 57 81 86 5 56 82 87 5 55 80 85 5 58 81 86 5 56 83 88 2 57 2 2 2 59 80 85 5 58 83 88 2 57 0 0 0 60 80 85 5 58 2 2 2 59 97 107 31 63 110 120 2 62 96 106 0 61 111 121 24 64 110 120 2 62 97 107 31 63 99 109 21 65 111 121 24 64 97 107 31 63 101 111 28 66 111 121 24 64 99 109 21 65 112 122 5 39 95 104 8 4 94 103 5 2 88 97 6 6 95 104 8 4 112 122 5 39 113 123 5 40 88 97 6 6 112 122 5 39 89 98 2 39 88 97 6 6 113 123 5 40 98 108 32 69 114 124 34 68 100 110 28 67 115 125 25 70 114 124 34 68 98 108 32 69 96 106 0 71 115 125 25 70 98 108 32 69 110 120 2 72 115 125 25 70 96 106 0 71 117 127 4 75 109 119 2 74 116 126 35 73 118 128 16 76 109 119 2 74 117 127 4 75 103 113 30 77 118 128 16 76 117 127 4 75 104 114 33 78 118 128 16 76 103 113 30 77 109 119 2 62 120 130 31 63 119 129 0 61 121 131 24 64 120 130 31 63 109 119 2 62 122 132 11 79 121 131 24 64 109 119 2 62 123 133 36 80 121 131 24 64 122 132 11 79 45 50 17 20 51 56 4 24 53 58 26 22 49 54 18 26 51 56 4 24 45 50 17 20 47 52 0 28 49 54 18 26 45 50 17 20 111 121 24 64 124 134 11 79 110 120 2 62 125 135 36 80 124 134 11 79 111 121 24 64 126 136 34 81 125 135 36 80 111 121 24 64 127 137 1 84 101 111 28 83 102 112 22 82 128 138 13 85 101 111 28 83 127 137 1 84 126 136 34 86 128 138 13 85 127 137 1 84 125 135 36 89 129 139 31 88 124 134 11 87 130 140 28 90 129 139 31 88 125 135 36 89 126 136 34 91 130 140 28 90 125 135 36 89 131 141 33 94 100 110 28 93 114 124 34 92 127 137 1 95 100 110 28 93 131 141 33 94 130 140 28 96 127 137 1 95 131 141 33 94 103 113 30 99 107 117 19 98 105 115 15 97 116 126 35 100 107 117 19 98 103 113 30 99 117 127 4 101 116 126 35 100 103 113 30 99 121 131 24 64 132 142 21 65 120 130 31 63 133 143 28 66 132 142 21 65 121 131 24 64 134 144 13 102 133 143 28 66 121 131 24 64 136 146 28 45 133 143 28 46 135 145 22 47 132 142 21 44 133 143 28 46 136 146 28 45 137 147 4 43 132 142 21 44 136 146 28 45 136 146 28 93 104 114 33 94 106 116 34 92 138 148 1 95 104 114 33 94 136 146 28 93 135 145 22 103 138 148 1 95 136 146 28 93 140 150 19 52 110 120 2 54 139 149 35 104 115 125 25 53 110 120 2 54 140 150 19 52 114 124 34 51 115 125 25 53 140 150 19 52 141 151 12 105 41 46 25 14 43 48 22 12 39 44 24 16 41 46 25 14 141 151 12 105 37 42 15 18 39 44 24 16 141 151 12 105 142 152 12 105 23 23 15 18 15 15 1 11 21 21 7 16 23 23 15 18 142 152 12 105 19 19 2 14 21 21 7 16 142 152 12 105 143 153 12 105 74 79 0 16 76 81 29 14 72 77 1 18 74 79 0 16 143 153 12 105 70 75 1 11 72 77 1 18 143 153 12 105 144 154 14 105 62 67 8 12 64 69 29 14 60 65 1 11 62 67 8 12 144 154 14 105 68 73 1 18 60 65 1 11 144 154 14 105 140 150 19 98 146 156 30 99 145 155 1 97 139 149 35 100 146 156 30 99 140 150 19 98 79 84 1 1 0 0 0 0 1 1 1 1 80 85 5 2 0 0 0 0 79 84 1 1 83 88 2 39 4 4 4 4 2 2 2 2 6 6 6 6 4 4 4 4 83 88 2 39 110 120 2 74 147 157 4 75 139 149 35 73 148 158 32 76 147 157 4 75 110 120 2 74 120 130 31 42 137 147 4 43 119 129 0 41 132 142 21 44 137 147 4 43 120 130 31 42 29 29 21 24 25 25 17 20 27 27 19 22 31 31 18 26 25 25 17 20 29 29 21 24 149 159 16 88 123 133 36 89 122 132 11 87 150 160 28 90 123 133 36 89 149 159 16 88 148 158 32 76 146 156 30 77 147 157 4 75 131 141 33 78 146 156 30 77 148 158 32 76 142 152 12 105 17 17 13 12 19 19 2 14 15 15 1 11 17 17 13 12 142 152 12 105 151 161 9 86 138 148 1 84 134 144 13 85 150 160 28 106 138 148 1 84 151 161 9 86 150 160 28 96 104 114 33 94 138 148 1 95 149 159 16 107 104 114 33 94 150 160 28 96 78 83 30 12 143 153 12 105 76 81 29 14 70 75 1 11 143 153 12 105 78 83 30 12 133 143 28 83 138 148 1 84 135 145 22 82 134 144 13 85 138 148 1 84 133 143 28 83 121 131 24 64 151 161 9 81 134 144 13 102 123 133 36 80 151 161 9 81 121 131 24 64 144 154 14 105 66 71 5 16 68 73 1 18 64 69 29 14 66 71 5 16 144 154 14 105 122 132 11 110 118 128 16 109 149 159 16 108 109 119 2 111 118 128 16 109 122 132 11 110 90 99 2 114 94 103 5 113 92 101 0 112 89 98 2 115 94 103 5 113 90 99 2 114 106 116 34 68 137 147 4 69 136 146 28 67 108 118 35 70 137 147 4 69 106 116 34 68 112 122 5 117 89 98 2 115 113 123 5 116 94 103 5 113 89 98 2 115 112 122 5 117 108 118 35 70 119 129 0 71 137 147 4 69 109 119 2 72 119 129 0 71 108 118 35 70 141 151 12 105 35 40 1 11 37 42 15 18 43 48 22 12 35 40 1 11 141 151 12 105 131 141 33 94 129 139 31 107 130 140 28 96 148 158 32 118 129 139 31 107 131 141 33 94 111 121 24 64 128 138 13 102 126 136 34 81 101 111 28 66 128 138 13 102 111 121 24 64 148 158 32 109 124 134 11 110 129 139 31 108 110 120 2 111 124 134 11 110 148 158 32 109 131 141 33 49 145 155 1 50 146 156 30 48 114 124 34 51 145 155 1 50 131 141 33 49 88 97 6 6 58 105 7 7 95 104 8 4 54 95 27 5 58 105 7 7 88 97 6 6 146 156 30 99 139 149 35 100 147 157 4 101 130 140 28 106 126 136 34 86 127 137 1 84 102 112 22 103 100 110 28 93 127 137 1 95 123 133 36 89 150 160 28 90 151 161 9 91 104 114 33 94 149 159 16 107 118 128 16 118 140 150 19 52 145 155 1 50 114 124 34 51 107 117 19 52 116 126 35 104 109 119 2 54 33 33 23 28 25 25 17 20 31 31 18 26 154 164 9 121 153 163 37 120 152 162 30 119 155 165 9 122 153 163 37 120 154 164 9 121 156 166 24 123 155 165 9 122 154 164 9 121 157 167 18 124 155 165 9 122 156 166 24 123 158 168 38 125 157 167 18 124 156 166 24 123 159 169 39 126 157 167 18 124 158 168 38 125 160 170 38 127 159 169 39 126 158 168 38 125 161 171 39 128 159 169 39 126 160 170 38 127 162 172 39 126 161 171 39 128 160 170 38 127 163 173 18 129 161 171 39 128 162 172 39 126 164 174 18 124 163 173 18 129 162 172 39 126 165 175 22 130 163 173 18 129 164 174 18 124 166 176 9 122 165 175 22 130 164 174 18 124 167 177 37 120 165 175 22 130 166 176 9 122 168 178 9 121 167 177 37 120 166 176 9 122 169 179 30 119 167 177 37 120 168 178 9 121 170 180 24 123 169 179 30 119 168 178 9 121 171 181 27 131 169 179 30 119 170 180 24 123 172 182 27 132 171 181 27 131 170 180 24 123 173 183 40 133 171 181 27 131 172 182 27 132 174 184 27 134 173 183 40 133 172 182 27 132 175 185 35 135 173 183 40 133 174 184 27 134 176 186 27 136 175 185 35 135 174 184 27 134 177 187 27 134 175 185 35 135 176 186 27 136 178 188 38 137 177 187 27 134 176 186 27 136 179 189 27 132 177 187 27 134 178 188 38 137 158 168 38 125 179 189 27 132 178 188 38 137 156 166 24 123 179 189 27 132 158 168 38 125 182 192 1 140 181 191 15 139 180 190 1 138 183 193 6 141 181 191 15 139 182 192 1 140 184 194 8 142 183 193 6 141 182 192 1 140 185 195 1 143 183 193 6 141 184 194 8 142 186 196 33 144 185 195 1 143 184 194 8 142 187 197 8 142 185 195 1 143 186 196 33 144 188 198 32 145 187 197 8 142 186 196 33 144 189 199 3 146 187 197 8 142 188 198 32 145 190 200 31 147 189 199 3 146 188 198 32 145 191 201 1 148 189 199 3 146 190 200 31 147 192 202 34 149 191 201 1 148 190 200 31 147 193 203 30 150 191 201 1 148 192 202 34 149 194 204 15 151 193 203 30 150 192 202 34 149 195 205 1 152 193 203 30 150 194 204 15 151 196 206 1 153 195 205 1 152 194 204 15 151 197 207 1 154 195 205 1 152 196 206 1 153 198 208 1 155 197 207 1 154 196 206 1 153 199 209 8 155 197 207 1 154 198 208 1 155 200 210 16 156 199 209 8 155 198 208 1 155 201 211 18 157 199 209 8 155 200 210 16 156 202 212 8 155 201 211 18 157 200 210 16 156 203 213 1 154 201 211 18 157 202 212 8 155 204 214 1 155 203 213 1 154 202 212 8 155 205 215 1 153 203 213 1 154 204 214 1 155 206 216 30 158 205 215 1 153 204 214 1 155 207 217 22 159 205 215 1 153 206 216 30 158 210 220 21 162 209 219 22 161 208 218 8 160 211 221 36 163 209 219 22 161 210 220 21 162 212 222 22 164 211 221 36 163 210 220 21 162 213 223 17 165 211 221 36 163 212 222 22 164 214 224 22 166 213 223 17 165 212 222 22 164 215 225 41 167 213 223 17 165 214 224 22 166 216 226 37 168 215 225 41 167 214 224 22 166 217 227 2 169 215 225 41 167 216 226 37 168 218 228 11 170 217 227 2 169 216 226 37 168 219 229 42 171 217 227 2 169 218 228 11 170 220 230 42 172 219 229 42 171 218 228 11 170 221 231 6 173 219 229 42 171 220 230 42 172 222 232 2 174 221 231 6 173 220 230 42 172 223 233 17 175 221 231 6 173 222 232 2 174 224 234 22 176 223 233 17 175 222 232 2 174 209 219 22 161 223 233 17 175 224 234 22 176 225 235 43 177 209 219 22 161 224 234 22 176 208 218 8 160 209 219 22 161 225 235 43 177 228 238 12 180 227 237 42 179 226 236 12 178 229 239 39 181 227 237 42 179 228 238 12 180 230 240 1 182 229 239 39 181 228 238 12 180 231 241 12 183 229 239 39 181 230 240 1 182 232 242 1 184 231 241 12 183 230 240 1 182 233 243 13 185 231 241 12 183 232 242 1 184 234 244 5 186 233 243 13 185 232 242 1 184 235 245 17 187 233 243 13 185 234 244 5 186 236 246 12 188 235 245 17 187 234 244 5 186 227 237 42 179 235 245 17 187 236 246 12 188 226 236 12 178 227 237 42 179 236 246 12 188 239 249 12 180 238 248 12 179 237 247 12 178 240 250 39 181 238 248 12 179 239 249 12 180 241 251 8 182 240 250 39 181 239 249 12 180 242 252 12 183 240 250 39 181 241 251 8 182 243 253 1 184 242 252 12 183 241 251 8 182 244 254 30 185 242 252 12 183 243 253 1 184 245 255 44 186 244 254 30 185 243 253 1 184 246 256 45 187 244 254 30 185 245 255 44 186 247 257 14 188 246 256 45 187 245 255 44 186 238 248 12 179 246 256 45 187 247 257 14 188 237 247 12 178 238 248 12 179 247 257 14 188 250 260 12 180 249 259 14 178 248 258 12 179 251 261 38 180 249 259 14 178 250 260 12 180 252 262 22 182 251 261 38 180 250 260 12 180 253 263 1 184 251 261 38 180 252 262 22 182 254 264 42 183 253 263 1 184 252 262 22 182 255 265 30 185 253 263 1 184 254 264 42 183 256 266 46 187 255 265 30 185 254 264 42 183 257 267 47 186 255 265 30 185 256 266 46 187 258 268 12 188 257 267 47 186 256 266 46 187 249 259 14 178 257 267 47 186 258 268 12 188 248 258 12 179 249 259 14 178 258 268 12 188 261 271 18 191 260 270 22 190 259 269 31 189 262 272 3 192 260 270 22 190 261 271 18 191 263 273 43 193 262 272 3 192 261 271 18 191 264 274 48 194 262 272 3 192 263 273 43 193 265 275 11 195 264 274 48 194 263 273 43 193 266 276 18 196 264 274 48 194 265 275 11 195 267 277 7 197 266 276 18 196 265 275 11 195 268 278 32 198 266 276 18 196 267 277 7 197 269 279 18 196 268 278 32 198 267 277 7 197 173 183 40 199 268 278 32 198 269 279 18 196 171 181 27 200 173 183 40 199 269 279 18 196 272 282 1 203 271 281 3 202 270 280 28 201 273 283 33 204 271 281 3 202 272 282 1 203 274 284 1 205 273 283 33 204 272 282 1 203 275 285 1 203 273 283 33 204 274 284 1 205 276 286 1 206 275 285 1 203 274 284 1 205 277 287 1 207 275 285 1 203 276 286 1 206 278 288 30 150 277 287 1 207 276 286 1 206 279 289 1 148 277 287 1 207 278 288 30 150 280 290 34 149 279 289 1 148 278 288 30 150 281 291 31 147 279 289 1 148 280 290 34 149 207 217 22 159 281 291 31 147 280 290 34 149 284 294 12 180 283 293 12 178 282 292 12 179 285 295 27 180 283 293 12 178 284 294 12 180 286 296 1 182 285 295 27 180 284 294 12 180 287 297 1 184 285 295 27 180 286 296 1 182 288 298 12 183 287 297 1 184 286 296 1 182 289 299 22 185 287 297 1 184 288 298 12 183 290 300 19 187 289 299 22 185 288 298 12 183 291 301 25 186 289 299 22 185 290 300 19 187 292 302 12 188 291 301 25 186 290 300 19 187 283 293 12 178 291 301 25 186 292 302 12 188 282 292 12 179 283 293 12 178 292 302 12 188 295 305 19 210 294 304 44 209 293 303 19 208 296 306 19 211 294 304 44 209 295 305 19 210 297 307 27 212 296 306 19 211 295 305 19 210 298 308 7 213 296 306 19 211 297 307 27 212 299 309 13 214 298 308 7 213 297 307 27 212 300 310 27 212 298 308 7 213 299 309 13 214 301 311 8 215 300 310 27 212 299 309 13 214 302 312 7 216 300 310 27 212 301 311 8 215 303 313 6 217 302 312 7 216 301 311 8 215 304 314 8 218 302 312 7 216 303 313 6 217 201 211 18 157 197 207 1 154 199 209 8 155 195 205 1 152 197 207 1 154 201 211 18 157 305 315 43 219 195 205 1 152 201 211 18 157 193 203 30 150 195 205 1 152 305 315 43 219 306 316 1 206 193 203 30 150 305 315 43 219 307 317 15 207 193 203 30 150 306 316 1 206 272 282 1 203 307 317 15 207 306 316 1 206 308 318 1 220 307 317 15 207 272 282 1 203 270 280 28 201 308 318 1 220 272 282 1 203 309 319 28 221 308 318 1 220 270 280 28 201 312 322 7 224 311 321 13 223 310 320 13 222 313 323 22 225 311 321 13 223 312 322 7 224 314 324 7 226 313 323 22 225 312 322 7 224 315 325 20 227 313 323 22 225 314 324 7 226 316 326 7 228 315 325 20 227 314 324 7 226 317 327 28 229 315 325 20 227 316 326 7 228 318 328 7 230 317 327 28 229 316 326 7 228 319 329 28 231 317 327 28 229 318 328 7 230 320 330 3 232 319 329 28 231 318 328 7 230 293 303 19 208 316 326 7 228 314 324 7 226 321 331 19 233 316 326 7 228 293 303 19 208 294 304 44 209 321 331 19 233 293 303 19 208 322 332 19 234 321 331 19 233 294 304 44 209 323 333 19 233 322 332 19 234 294 304 44 209 324 334 7 235 322 332 19 234 323 333 19 233 325 335 7 230 324 334 7 235 323 333 19 233 271 281 3 232 324 334 7 235 325 335 7 230 270 280 28 231 271 281 3 232 325 335 7 230 328 338 12 238 327 337 49 237 326 336 12 236 329 339 18 239 327 337 49 237 328 338 12 238 330 340 28 240 329 339 18 239 328 338 12 238 331 341 28 241 329 339 18 239 330 340 28 240 332 342 6 242 331 341 28 241 330 340 28 240 333 343 28 240 331 341 28 241 332 342 6 242 334 344 22 243 333 343 28 240 332 342 6 242 335 345 42 244 333 343 28 240 334 344 22 243 336 346 12 245 335 345 42 244 334 344 22 243 273 283 33 204 337 347 22 246 271 281 3 202 320 330 3 202 337 347 22 246 273 283 33 204 275 285 1 203 320 330 3 202 273 283 33 204 319 329 28 201 320 330 3 202 275 285 1 203 338 348 1 220 319 329 28 201 275 285 1 203 317 327 28 221 319 329 28 201 338 348 1 220 339 349 1 247 317 327 28 221 338 348 1 220 315 325 20 248 317 327 28 221 339 349 1 247 313 323 22 249 315 325 20 248 339 349 1 247 218 228 11 170 340 350 37 250 220 230 42 172 341 351 49 251 340 350 37 250 218 228 11 170 216 226 37 168 341 351 49 251 218 228 11 170 342 352 36 252 341 351 49 251 216 226 37 168 214 224 22 166 342 352 36 252 216 226 37 168 343 353 32 253 342 352 36 252 214 224 22 166 212 222 22 164 343 353 32 253 214 224 22 166 344 354 30 254 343 353 32 253 212 222 22 164 210 220 21 162 344 354 30 254 212 222 22 164 345 355 3 257 310 320 13 256 311 321 13 255 182 192 1 140 310 320 13 256 345 355 3 257 346 356 3 146 182 192 1 140 345 355 3 257 184 194 8 142 182 192 1 140 346 356 3 146 347 357 32 145 184 194 8 142 346 356 3 146 186 196 33 144 184 194 8 142 347 357 32 145 348 358 27 258 186 196 33 144 347 357 32 145 188 198 32 145 186 196 33 144 348 358 27 258 349 359 48 194 169 179 30 259 171 181 27 200 350 360 3 192 169 179 30 259 349 359 48 194 351 361 43 193 350 360 3 192 349 359 48 194 352 362 18 191 350 360 3 192 351 361 43 193 353 363 11 260 352 362 18 191 351 361 43 193 354 364 7 261 352 362 18 191 353 363 11 260 261 271 18 191 354 364 7 261 353 363 11 260 259 269 31 189 354 364 7 261 261 271 18 191 357 367 1 264 356 366 1 263 355 365 1 262 358 368 1 265 356 366 1 263 357 367 1 264 359 369 1 263 358 368 1 265 357 367 1 264 360 370 1 266 358 368 1 265 359 369 1 263 361 371 1 262 360 370 1 266 359 369 1 263 362 372 15 267 360 370 1 266 361 371 1 262 363 373 6 268 362 372 15 267 361 371 1 262 364 374 15 269 362 372 15 267 363 373 6 268 353 363 11 260 263 273 43 193 261 271 18 191 365 375 19 270 263 273 43 193 353 363 11 260 351 361 43 193 365 375 19 270 353 363 11 260 366 376 11 195 365 375 19 270 351 361 43 193 349 359 48 194 366 376 11 195 351 361 43 193 269 279 18 196 366 376 11 195 349 359 48 194 171 181 27 200 269 279 18 196 349 359 48 194 334 344 22 243 367 377 21 271 336 346 12 245 368 378 6 272 367 377 21 271 334 344 22 243 332 342 6 242 368 378 6 272 334 344 22 243 369 379 34 243 368 378 6 272 332 342 6 242 330 340 28 240 369 379 34 243 332 342 6 242 370 380 42 244 369 379 34 243 330 340 28 240 328 338 12 238 370 380 42 244 330 340 28 240 200 210 16 275 206 216 30 274 204 214 1 273 371 381 38 276 206 216 30 274 200 210 16 275 372 382 43 277 371 381 38 276 200 210 16 275 348 358 27 278 371 381 38 276 372 382 43 277 373 383 38 276 348 358 27 278 372 382 43 277 190 200 31 279 348 358 27 278 373 383 38 276 374 384 22 280 190 200 31 279 373 383 38 276 376 386 18 283 375 385 24 282 341 228 49 281 377 387 1 284 375 385 24 282 376 386 18 283 378 388 1 285 377 387 1 284 376 386 18 283 379 389 1 286 377 387 1 284 378 388 1 285 380 390 1 287 379 389 1 286 378 388 1 285 210 391 21 288 379 389 1 286 380 390 1 287 344 392 30 289 210 391 21 288 380 390 1 287 300 310 27 212 296 306 19 211 298 308 7 213 381 393 19 210 296 306 19 211 300 310 27 212 302 312 7 216 381 393 19 210 300 310 27 212 382 394 7 290 381 393 19 210 302 312 7 216 304 314 8 218 382 394 7 290 302 312 7 216 383 395 13 222 382 394 7 290 304 314 8 218 381 393 19 210 294 304 44 209 296 306 19 211 384 396 19 208 294 304 44 209 381 393 19 210 385 397 7 224 384 396 19 208 381 393 19 210 386 398 7 226 384 396 19 208 385 397 7 224 387 399 22 225 386 398 7 226 385 397 7 224 388 400 20 227 386 398 7 226 387 399 22 225 321 331 19 233 318 328 7 230 316 326 7 228 389 401 7 235 318 328 7 230 321 331 19 233 322 332 19 234 389 401 7 235 321 331 19 233 390 402 27 291 389 401 7 235 322 332 19 234 324 334 7 235 390 402 27 291 322 332 19 234 271 281 3 232 390 402 27 291 324 334 7 235 391 403 12 238 333 343 28 240 335 345 42 244 392 404 36 239 333 343 28 240 391 403 12 238 393 405 26 237 392 404 36 239 391 403 12 238 331 341 28 241 392 404 36 239 393 405 26 237 327 337 49 237 331 341 28 241 393 405 26 237 329 339 18 239 331 341 28 241 327 337 49 237 312 322 7 224 293 303 19 208 314 324 7 226 295 305 19 210 293 303 19 208 312 322 7 224 394 406 7 290 295 305 19 210 312 322 7 224 395 407 7 216 295 305 19 210 394 406 7 290 396 408 8 218 395 407 7 216 394 406 7 290 397 409 6 217 395 407 7 216 396 408 8 218 305 315 43 219 276 286 1 206 274 284 1 205 278 288 30 150 276 286 1 206 305 315 43 219 398 410 1 152 278 288 30 150 305 315 43 219 399 411 15 151 278 288 30 150 398 410 1 152 205 215 1 153 399 411 15 151 398 410 1 152 207 217 22 159 399 411 15 151 205 215 1 153 182 192 1 140 396 408 8 292 310 320 13 256 397 409 6 293 396 408 8 292 182 192 1 140 180 190 1 138 397 409 6 293 182 192 1 140 400 412 1 294 397 409 6 293 180 190 1 138 181 191 15 139 400 412 1 294 180 190 1 138 401 413 1 295 400 412 1 294 181 191 15 139 178 188 38 137 160 170 38 127 158 168 38 125 402 414 38 296 160 170 38 127 178 188 38 137 176 186 27 136 402 414 38 296 178 188 38 137 403 415 38 137 402 414 38 296 176 186 27 136 174 184 27 134 403 415 38 137 176 186 27 136 172 182 27 132 403 415 38 137 174 184 27 134 405 417 33 298 404 416 8 297 397 409 6 293 299 309 13 299 404 416 8 297 405 417 33 298 406 418 1 300 299 309 13 299 405 417 33 298 407 419 1 301 299 309 13 299 406 418 1 300 401 413 1 295 407 419 1 301 406 418 1 300 358 368 1 302 407 419 1 301 401 413 1 295 339 349 1 247 311 321 13 255 313 323 22 249 345 355 3 257 311 321 13 255 339 349 1 247 279 289 1 148 345 355 3 257 339 349 1 247 346 356 3 146 345 355 3 257 279 289 1 148 281 291 31 147 346 356 3 146 279 289 1 148 347 357 32 145 346 356 3 146 281 291 31 147 360 370 1 295 407 419 1 301 358 368 1 302 408 420 1 300 407 419 1 301 360 370 1 295 409 421 1 294 408 420 1 300 360 370 1 295 410 422 33 298 408 420 1 300 409 421 1 294 303 313 6 293 410 422 33 298 409 421 1 294 301 311 8 297 410 422 33 298 303 313 6 293 411 423 38 125 162 172 39 126 160 170 38 127 164 174 18 124 162 172 39 126 411 423 38 125 170 180 24 123 164 174 18 124 411 423 38 125 166 176 9 122 164 174 18 124 170 180 24 123 168 178 9 121 166 176 9 122 170 180 24 123 364 374 15 139 409 421 1 294 360 370 1 295 412 424 1 138 409 421 1 294 364 374 15 139 413 425 1 140 412 424 1 138 364 374 15 139 303 313 6 293 412 424 1 138 413 425 1 140 304 314 8 292 303 313 6 293 413 425 1 140 401 413 1 266 356 366 1 263 358 368 1 265 355 365 1 262 356 366 1 263 401 413 1 266 414 426 15 267 355 365 1 262 401 413 1 266 183 193 6 268 355 365 1 262 414 426 15 267 181 191 15 269 183 193 6 268 414 426 15 267 415 427 31 303 163 173 18 129 165 175 22 130 416 428 18 304 163 173 18 129 415 427 31 303 417 429 4 305 416 428 18 304 415 427 31 303 259 269 31 303 416 428 18 304 417 429 4 305 416 428 18 304 161 171 39 128 163 173 18 129 418 430 18 129 161 171 39 128 416 428 18 304 259 269 31 303 418 430 18 129 416 428 18 304 260 270 22 130 418 430 18 129 259 269 31 303 152 162 30 259 262 272 3 192 264 274 48 194 419 431 22 306 262 272 3 192 152 162 30 259 153 163 37 307 419 431 22 306 152 162 30 259 260 270 22 190 419 431 22 306 153 163 37 307 365 375 19 270 265 275 11 195 263 273 43 193 267 277 7 197 265 275 11 195 365 375 19 270 366 376 11 195 267 277 7 197 365 375 19 270 269 279 18 196 267 277 7 197 366 376 11 195 165 175 22 190 350 360 3 192 352 362 18 191 420 432 22 306 350 360 3 192 165 175 22 190 167 177 37 307 420 432 22 306 165 175 22 190 169 179 30 259 420 432 22 306 167 177 37 307 208 433 8 308 379 389 1 286 210 391 21 288 377 387 1 284 379 389 1 286 208 433 8 308 225 434 43 309 377 387 1 284 208 433 8 308 375 385 24 282 377 387 1 284 225 434 43 309 421 435 21 310 378 388 1 285 376 386 18 283 422 436 1 311 378 388 1 285 421 435 21 310 342 437 36 312 422 436 1 311 421 435 21 310 343 438 32 313 422 436 1 311 342 437 36 312 211 221 36 163 223 233 17 175 209 219 22 161 423 439 5 314 223 233 17 175 211 221 36 163 213 223 17 165 423 439 5 314 211 221 36 163 221 231 6 173 423 439 5 314 213 223 17 165 224 234 22 176 375 440 24 315 225 235 43 177 340 350 37 250 375 440 24 315 224 234 22 176 222 232 2 174 340 350 37 250 224 234 22 176 220 230 42 172 340 350 37 250 222 232 2 174 426 443 36 318 425 442 12 317 424 441 12 316 427 444 15 319 425 442 12 317 426 443 36 318 428 445 12 317 427 444 15 319 426 443 36 318 429 446 12 320 427 444 15 319 428 445 12 317 290 300 19 187 282 292 12 179 292 302 12 188 430 447 48 181 282 292 12 179 290 300 19 187 288 298 12 183 430 447 48 181 290 300 19 187 286 296 1 182 430 447 48 181 288 298 12 183 234 244 5 186 226 236 12 178 236 246 12 188 431 448 36 180 226 236 12 178 234 244 5 186 232 242 1 184 431 448 36 180 234 244 5 186 230 240 1 182 431 448 36 180 232 242 1 184 245 255 44 186 237 247 12 178 247 257 14 188 432 449 25 180 237 247 12 178 245 255 44 186 243 253 1 184 432 449 25 180 245 255 44 186 241 251 8 182 432 449 25 180 243 253 1 184 256 266 46 187 248 258 12 179 258 268 12 188 433 450 11 181 248 258 12 179 256 266 46 187 254 264 42 183 433 450 11 181 256 266 46 187 252 262 22 182 433 450 11 181 254 264 42 183 413 425 1 140 383 395 13 256 304 314 8 292 434 451 3 257 383 395 13 256 413 425 1 140 189 199 3 146 434 451 3 257 413 425 1 140 191 201 1 148 434 451 3 257 189 199 3 146 434 451 3 257 435 452 13 255 383 395 13 256 436 453 1 247 435 452 13 255 434 451 3 257 191 201 1 148 436 453 1 247 434 451 3 257 308 318 1 220 436 453 1 247 191 201 1 148 384 396 19 208 323 333 19 233 294 304 44 209 437 454 7 228 323 333 19 233 384 396 19 208 386 398 7 226 437 454 7 228 384 396 19 208 388 400 20 227 437 454 7 228 386 398 7 226 403 415 38 137 160 170 38 127 402 414 38 296 411 423 38 125 160 170 38 127 403 415 38 137 172 182 27 132 411 423 38 125 403 415 38 137 170 180 24 123 411 423 38 125 172 182 27 132 436 453 1 247 387 399 22 249 435 452 13 255 388 400 20 248 387 399 22 249 436 453 1 247 309 319 28 221 388 400 20 248 436 453 1 247 438 455 30 274 200 210 16 275 198 208 1 273 373 383 38 276 200 210 16 275 438 455 30 274 374 384 22 280 373 383 38 276 438 455 30 274 395 407 7 216 297 307 27 212 295 305 19 210 404 416 8 215 297 307 27 212 395 407 7 216 397 409 6 217 404 416 8 215 395 407 7 216 185 195 1 143 355 365 1 321 183 193 6 141 357 367 1 322 355 365 1 321 185 195 1 143 361 371 1 321 357 367 1 322 185 195 1 143 374 384 22 159 192 202 34 149 190 200 31 147 194 204 15 151 192 202 34 149 374 384 22 159 196 206 1 153 194 204 15 151 374 384 22 159 441 458 12 325 440 457 33 324 439 456 12 323 442 459 33 326 440 457 33 324 441 458 12 325 443 460 12 327 442 459 33 326 441 458 12 325 413 425 1 140 187 197 8 142 189 199 3 146 363 373 6 141 187 197 8 142 413 425 1 140 364 374 15 139 363 373 6 141 413 425 1 140 299 309 13 299 410 422 33 298 301 311 8 297 408 420 1 300 410 422 33 298 299 309 13 299 407 419 1 301 408 420 1 300 299 309 13 299 309 319 28 229 437 454 7 228 388 400 20 227 325 335 7 230 437 454 7 228 309 319 28 229 270 280 28 231 325 335 7 230 309 319 28 229 422 436 1 311 380 390 1 287 378 388 1 285 344 392 30 289 380 390 1 287 422 436 1 311 343 438 32 313 344 392 30 289 422 436 1 311 221 231 6 173 217 227 2 169 219 229 42 171 215 225 41 167 217 227 2 169 221 231 6 173 213 223 17 165 215 225 41 167 221 231 6 173 398 410 1 152 203 213 1 154 205 215 1 153 201 211 18 157 203 213 1 154 398 410 1 152 305 315 43 219 201 211 18 157 398 410 1 152 418 430 18 129 159 169 39 126 161 171 39 128 157 167 18 124 159 169 39 126 418 430 18 129 260 270 22 130 157 167 18 124 418 430 18 129 369 379 34 243 445 462 12 245 444 461 48 271 370 380 42 244 445 462 12 245 369 379 34 243 444 464 48 330 442 459 33 329 367 463 21 328 440 457 33 331 442 459 33 329 444 464 48 330 277 287 1 207 338 348 1 220 275 285 1 203 279 289 1 148 338 348 1 220 277 287 1 207 307 317 15 207 191 201 1 148 193 203 30 150 308 318 1 220 191 201 1 148 307 317 15 207 394 406 7 290 310 320 13 222 396 408 8 218 312 322 7 224 310 320 13 222 394 406 7 290 175 185 35 332 268 278 32 198 173 183 40 199 446 465 40 199 268 278 32 198 175 185 35 332 446 465 40 199 266 276 18 196 268 278 32 198 447 466 27 200 266 276 18 196 446 465 40 199 447 466 27 200 264 274 48 194 266 276 18 196 152 162 30 259 264 274 48 194 447 466 27 200 390 402 27 291 337 347 22 333 320 330 3 232 271 281 3 232 337 347 22 333 390 402 27 291 417 429 4 334 354 364 7 261 259 269 31 189 415 427 31 189 354 364 7 261 417 429 4 334 415 427 31 189 352 362 18 191 354 364 7 261 165 175 22 190 352 362 18 191 415 427 31 189 155 165 9 122 260 270 22 130 153 163 37 120 157 167 18 124 260 270 22 130 155 165 9 122 389 401 7 235 320 330 3 232 318 328 7 230 390 402 27 291 320 330 3 232 389 401 7 235 281 291 31 279 371 381 38 276 348 358 27 278 207 217 22 280 371 381 38 276 281 291 31 279 421 435 21 310 341 228 49 281 342 437 36 312 376 386 18 283 341 228 49 281 421 435 21 310 393 405 26 337 326 336 12 336 327 337 49 335 448 467 12 338 326 336 12 336 393 405 26 337 406 418 1 300 400 412 1 294 401 413 1 295 405 417 33 298 400 412 1 294 406 418 1 300 445 468 12 245 440 457 33 331 444 464 48 271 439 456 12 339 440 457 33 331 445 468 12 245 152 162 30 119 156 166 24 123 154 164 9 121 447 466 27 131 156 166 24 123 152 162 30 119 177 187 27 134 446 465 40 133 175 185 35 135 179 189 27 132 446 465 40 133 177 187 27 134 336 469 12 245 442 459 33 331 443 460 12 339 367 463 21 271 442 459 33 331 336 469 12 245 280 290 34 149 399 411 15 151 207 217 22 159 278 288 30 150 399 411 15 151 280 290 34 149 285 295 27 180 291 301 25 186 283 293 12 178 287 297 1 184 291 301 25 186 285 295 27 180 447 466 27 131 179 189 27 132 156 166 24 123 446 465 40 133 179 189 27 132 447 466 27 131 284 294 12 180 430 447 48 181 286 296 1 182 282 292 12 179 430 447 48 181 284 294 12 180 306 316 1 206 274 284 1 205 272 282 1 203 305 315 43 219 274 284 1 205 306 316 1 206 435 452 13 223 385 397 7 224 383 395 13 222 387 399 22 225 385 397 7 224 435 452 13 223 431 448 36 180 228 238 12 180 226 236 12 178 230 240 1 182 228 238 12 180 431 448 36 180 229 239 39 181 235 245 17 187 227 237 42 179 231 241 12 183 235 245 17 187 229 239 39 181 185 195 1 143 363 373 6 141 361 371 1 321 187 197 8 142 363 373 6 141 185 195 1 143 382 394 7 290 385 397 7 224 381 393 19 210 383 395 13 222 385 397 7 224 382 394 7 290 432 449 25 180 239 249 12 180 237 247 12 178 241 251 8 182 239 249 12 180 432 449 25 180 240 250 39 181 246 256 45 187 238 248 12 179 242 252 12 183 246 256 45 187 240 250 39 181 196 206 1 153 438 455 30 158 198 208 1 155 374 384 22 159 438 455 30 158 196 206 1 153 251 261 38 180 257 267 47 186 249 259 14 178 253 263 1 184 257 267 47 186 251 261 38 180 368 378 6 272 444 461 48 271 367 377 21 271 369 379 34 243 444 461 48 271 368 378 6 272 250 260 12 180 433 450 11 181 252 262 22 182 248 258 12 179 433 450 11 181 250 260 12 180 348 358 27 342 347 357 32 341 281 291 31 340 371 381 38 276 207 217 22 280 206 216 30 274 348 358 27 342 190 200 31 340 188 198 32 341 200 210 16 275 373 383 38 276 372 382 43 277 448 467 12 236 393 405 26 237 391 403 12 238 392 404 36 239 331 341 28 241 333 343 28 240 427 444 15 319 429 446 12 320 425 442 12 317 426 443 36 318 424 441 12 316 428 445 12 317 200 210 16 156 204 214 1 155 202 212 8 155 339 349 1 247 338 348 1 220 279 289 1 148 397 409 6 293 400 412 1 294 405 417 33 298 409 421 1 294 412 424 1 138 303 313 6 293 436 453 1 247 308 318 1 220 309 319 28 221 297 307 27 212 404 416 8 215 299 309 13 214 325 335 7 230 323 333 19 233 437 454 7 228 181 191 15 269 414 426 15 267 401 413 1 266 357 367 1 264 361 371 1 262 359 369 1 263 364 374 15 269 360 370 1 266 362 372 15 267 262 272 3 192 419 431 22 306 260 270 22 190 350 360 3 192 420 432 22 306 169 179 30 259 423 439 5 314 221 231 6 173 223 233 17 175 375 440 24 315 340 350 37 250 341 351 49 251 291 301 25 186 287 297 1 184 289 299 22 185 231 241 12 183 233 243 13 185 235 245 17 187 242 252 12 183 244 254 30 185 246 256 45 187 257 267 47 186 253 263 1 184 255 265 30 185</p>
				</triangles>
			</mesh>
		</geometry>
		<geometry id="polygon1" name="polygon1">
			<mesh>
				<source id="polygon1_Positions">
					<float_array id="polygon1_PosArr" count="24">10.30274 104.0112 13.59963 10.61328 95.61472 12.96096 2.150393 103.8042 16.33595 2.378908 95.40768 15.69728 -10.30273 104.0112 13.59963 -2.150389 103.8042 16.33595 -10.61328 95.61472 12.96096 -2.378905 95.40768 15.69728</float_array>
					<technique_common>
						<accessor source="#polygon1_PosArr" count="8" stride="3">
							<param name="X" type="float" />
							<param name="Y" type="float" />
							<param name="Z" type="float" />
						</accessor>
					</technique_common>
				</source>
				<source id="polygon1_Normals">
					<float_array id="polygon1_NormArr" count="6">0.3125 -0.06249997 0.953125 -0.3125 -0.06249994 0.953125</float_array>
					<technique_common>
						<accessor source="#polygon1_NormArr" count="2" stride="3">
							<param name="X" type="float" />
							<param name="Y" type="float" />
							<param name="Z" type="float" />
						</accessor>
					</technique_common>
				</source>
				<source id="polygon1_Colors0">
					<float_array id="polygon1_ColorArr0" count="24">0.8588236 0.8588236 0.8588236 0.8588236 0.8901961 0.8901961 0.8901961 0.8901961 0.8274511 0.8274511 0.8274511 0.8274511 0.6509804 0.6509804 0.6509804 0.6509804 0.8431373 0.8431373 0.8431373 0.8431373 0.6352941 0.6352941 0.6352941 0.6352941</float_array>
					<technique_common>
						<accessor source="#polygon1_ColorArr0" count="6" stride="4">
							<param name="R" type="float" />
							<param name="G" type="float" />
							<param name="B" type="float" />
							<param name="A" type="float" />
						</accessor>
					</technique_common>
				</source>
				<source id="polygon1_UVs0">
					<float_array id="polygon1_UVArr0" count="16">0.8658142 0.9600525 0.9806519 0.9703064 0.8668518 0.747406 0.9834595 0.7446289 0.8658142 0.7118835 0.8668518 0.92453 0.9806519 0.7016296 0.9834595 0.9273071</float_array>
					<technique_common>
						<accessor source="#polygon1_UVArr0" count="8" stride="2">
							<param name="S" type="float" />
							<param name="T" type="float" />
						</accessor>
					</technique_common>
				</source>
				<vertices id="polygon1_Vertices">
					<input semantic="POSITION" source="#polygon1_Positions" />
				</vertices>
				<triangles material="ka_eye" count="4">
					<input semantic="VERTEX" source="#polygon1_Vertices" offset="0" />
					<input semantic="NORMAL" source="#polygon1_Normals" offset="1" />
					<input semantic="COLOR" source="#polygon1_Colors0" set="0" offset="2" />
					<input semantic="TEXCOORD" source="#polygon1_UVs0" set="0" offset="3" />
					<p>2 0 2 2 1 0 1 1 0 0 0 0 3 0 3 3 1 0 1 1 2 0 2 2 6 1 1 6 5 1 2 5 4 1 4 4 7 1 5 7 5 1 2 5 6 1 1 6</p>
				</triangles>
			</mesh>
		</geometry>
	</library_geometries>
	<library_controllers>
		<controller id="polygon0_Controller">
			<skin source="#polygon0">
				<bind_shape_matrix>1 0 0 0 0 1 0 0 0 0 1 0 0 0 0 1</bind_shape_matrix>
				<source id="polygon0_Joints">
					<Name_array id="polygon0_JointArr" count="18">skl_root leg_l1 leg_l2 ankle_l1 leg_r1 leg_r2 ankle_r1 spin arm_l1 arm_l2 wrist_l1 arm_r1 arm_r2 wrist_r1 face_1 mouth_1 wing_l1 wing_r1</Name_array>
					<technique_common>
						<accessor source="#polygon0_JointArr" count="18">
							<param name="JOINT" type="Name" />
						</accessor>
					</technique_common>
				</source>
				<source id="polygon0_Matrices">
					<float_array id="polygon0_MatArr" count="288">0 0.9529974 0.3032246 -28.48695 0 0.3032246 -0.9529974 -16.78732 -1 0 0 0 0 0 0 1 3.490281E-08 -1.000149 3.098811E-07 30.8585 -5.148157E-06 3.202102E-07 1.000149 6.405395 -1 -3.490962E-08 -5.148926E-06 10.00797 0 0 0 1 -1.744765E-08 -1.000149 -4.057325E-07 21.95842 5.148157E-06 3.954031E-07 -1.000149 -6.40541 1 -1.745234E-08 5.148926E-06 -10.00797 0 0 0 1 -5.130706E-06 -3.954031E-07 1.000149 6.40541 -1.744765E-08 -1.000149 -4.057325E-07 11.67559 1 -1.745233E-08 5.131472E-06 -10.00797 0 0 0 1 -2.268679E-07 -1.000149 -2.453225E-07 30.85849 6.980551E-08 -2.453226E-07 1.000149 6.405364 -1 2.269018E-07 6.981599E-08 -10.00801 0 0 0 1 -2.268679E-07 -1.000149 3.132049E-07 21.95842 -6.980564E-08 -3.132049E-07 -1.000149 -6.405345 1 -2.269018E-07 -6.981599E-08 10.00801 0 0 0 1 8.725701E-08 3.132049E-07 1.000149 6.405345 -2.268679E-07 -1.000149 3.132049E-07 11.67559 1 -2.269018E-07 -8.726997E-08 10.00801 0 0 0 1 0 0.9529974 0.3032246 -30.73695 0 0.3032246 -0.9529974 -16.78732 -1 0 0 0 0 0 0 1 1 0 0 -10.77292 0 0 -1.000149 -0.5604458 0 1.000149 0 -51.89944 0 0 0 1 1 3.665336E-07 8.482639E-06 -20.82718 -8.481373E-06 1.060505E-19 1.000149 0.5606456 3.66479E-07 -1.000149 3.108708E-12 51.89943 0 0 0 1 1 3.665336E-07 8.482639E-06 -30.44818 -8.481373E-06 1.060505E-19 1.000149 0.5606456 3.66479E-07 -1.000149 3.108708E-12 51.89943 0 0 0 1 -1 0 0 -10.773 0 0 -1.000149 -0.5604458 0 -1.000149 0 51.89944 0 0 0 1 -1 -1.047239E-07 4.171503E-06 -20.82599 4.17088E-06 2.601559E-20 1.000149 0.5605537 -1.047083E-07 1.000149 4.367909E-13 -51.89944 0 0 0 1 -1 -1.047239E-07 4.171503E-06 -30.44722 4.17088E-06 2.601559E-20 1.000149 0.5605537 -1.047083E-07 1.000149 4.367909E-13 -51.89944 0 0 0 1 0 -5.681156E-08 1.000149 -0.8901694 0 -1.000149 -5.681156E-08 57.33234 1 0 0 0 0 0 0 1 -1.745138E-08 -0.5474801 0.8370827 35.83463 5.658712E-16 -0.8370827 -0.5474801 66.11182 1 -9.554283E-09 1.460825E-08 6.253637E-07 0 0 0 1 0 0.8047823 -0.5938213 -56.58455 1 0 0 -10.70976 0 -0.5938213 -0.8047823 18.08759 0 0 0 1 0 0.8047823 -0.5938213 -56.58455 1 0 0 10.71 0 -0.5938213 -0.8047823 18.08759 0 0 0 1</float_array>
					<technique_common>
						<accessor source="#polygon0_MatArr" count="18" stride="16">
							<param type="float4x4" />
						</accessor>
					</technique_common>
				</source>
				<source id="polygon0_Weights">
					<float_array id="polygon0_WeightArr" count="1">1</float_array>
					<technique_common>
						<accessor source="#polygon0_WeightArr" count="1">
							<param type="float" />
						</accessor>
					</technique_common>
				</source>
				<joints>
					<input semantic="JOINT" source="#polygon0_Joints" />
					<input semantic="INV_BIND_MATRIX" source="#polygon0_Matrices" />
				</joints>
				<vertex_weights count="449">
					<input semantic="JOINT" offset="0" source="#polygon0_Joints" />
					<input semantic="WEIGHT" offset="1" source="#polygon0_Weights" />
					<vcount>1 1 1 1 1 1 1 1 1 1 1 1 1 1 1 1 1 1 1 1 1 1 1 1 1 1 1 1 1 1 1 1 1 1 1 1 1 1 1 1 1 1 1 1 1 1 1 1 1 1 1 1 1 1 1 1 1 1 1 1 1 1 1 1 1 1 1 1 1 1 1 1 1 1 1 1 1 1 1 1 1 1 1 1 1 1 1 1 1 1 1 1 1 1 1 1 1 1 1 1 1 1 1 1 1 1 1 1 1 1 1 1 1 1 1 1 1 1 1 1 1 1 1 1 1 1 1 1 1 1 1 1 1 1 1 1 1 1 1 1 1 1 1 1 1 1 1 1 1 1 1 1 1 1 1 1 1 1 1 1 1 1 1 1 1 1 1 1 1 1 1 1 1 1 1 1 1 1 1 1 1 1 1 1 1 1 1 1 1 1 1 1 1 1 1 1 1 1 1 1 1 1 1 1 1 1 1 1 1 1 1 1 1 1 1 1 1 1 1 1 1 1 1 1 1 1 1 1 1 1 1 1 1 1 1 1 1 1 1 1 1 1 1 1 1 1 1 1 1 1 1 1 1 1 1 1 1 1 1 1 1 1 1 1 1 1 1 1 1 1 1 1 1 1 1 1 1 1 1 1 1 1 1 1 1 1 1 1 1 1 1 1 1 1 1 1 1 1 1 1 1 1 1 1 1 1 1 1 1 1 1 1 1 1 1 1 1 1 1 1 1 1 1 1 1 1 1 1 1 1 1 1 1 1 1 1 1 1 1 1 1 1 1 1 1 1 1 1 1 1 1 1 1 1 1 1 1 1 1 1 1 1 1 1 1 1 1 1 1 1 1 1 1 1 1 1 1 1 1 1 1 1 1 1 1 1 1 1 1 1 1 1 1 1 1 1 1 1 1 1 1 1 1 1 1 1 1 1 1 1 1 1 1 1 1 1 1 1 1 1 1 1 1 1 1 1 1 1 1 1 1 1 1 1 1 1 1 1 1 1 1 1 1 1 1 1 1 1 1</vcount>
					<v>6 0 6 0 6 0 6 0 6 0 5 0 6 0 5 0 6 0 5 0 6 0 5 0 6 0 5 0 5 0 5 0 5 0 5 0 5 0 5 0 5 0 5 0 5 0 5 0 5 0 5 0 5 0 5 0 5 0 5 0 5 0 5 0 5 0 5 0 2 0 2 0 2 0 2 0 2 0 2 0 2 0 2 0 2 0 2 0 2 0 2 0 2 0 2 0 2 0 2 0 2 0 2 0 2 0 2 0 2 0 2 0 2 0 2 0 2 0 12 0 12 0 12 0 12 0 12 0 12 0 12 0 12 0 12 0 12 0 9 0 9 0 9 0 9 0 9 0 9 0 9 0 9 0 9 0 9 0 6 0 6 0 6 0 6 0 6 0 3 0 3 0 3 0 3 0 3 0 3 0 3 0 3 0 3 0 3 0 3 0 3 0 13 0 13 0 13 0 13 0 13 0 13 0 13 0 9 0 10 0 9 0 10 0 9 0 10 0 10 0 13 0 13 0 3 0 3 0 13 0 13 0 9 0 9 0 10 0 10 0 10 0 10 0 10 0 10 0 13 0 13 0 13 0 13 0 13 0 13 0 13 0 13 0 10 0 10 0 10 0 10 0 10 0 10 0 10 0 12 0 12 0 2 0 5 0 9 0 12 0 12 0 12 0 12 0 13 0 10 0 10 0 10 0 15 0 15 0 15 0 15 0 15 0 15 0 15 0 15 0 15 0 15 0 15 0 15 0 15 0 15 0 15 0 15 0 15 0 15 0 15 0 15 0 15 0 15 0 15 0 15 0 15 0 15 0 15 0 15 0 14 0 14 0 14 0 14 0 14 0 14 0 14 0 14 0 14 0 14 0 14 0 14 0 14 0 14 0 14 0 14 0 14 0 14 0 14 0 14 0 14 0 14 0 14 0 14 0 14 0 14 0 14 0 14 0 7 0 7 0 7 0 7 0 7 0 7 0 7 0 7 0 7 0 7 0 7 0 7 0 7 0 7 0 7 0 7 0 7 0 7 0 8 0 8 0 8 0 8 0 8 0 8 0 8 0 8 0 8 0 8 0 8 0 1 0 1 0 1 0 1 0 1 0 1 0 1 0 1 0 1 0 1 0 1 0 4 0 4 0 4 0 4 0 4 0 4 0 4 0 4 0 4 0 4 0 4 0 15 0 15 0 15 0 15 0 15 0 15 0 15 0 15 0 15 0 15 0 15 0 14 0 14 0 14 0 14 0 14 0 14 0 14 0 14 0 14 0 14 0 14 0 14 0 11 0 11 0 11 0 11 0 11 0 11 0 11 0 11 0 11 0 11 0 11 0 14 0 14 0 14 0 14 0 14 0 14 0 14 0 14 0 14 0 14 0 14 0 14 0 14 0 14 0 14 0 14 0 14 0 14 0 14 0 14 0 14 0 14 0 14 0 14 0 14 0 14 0 14 0 14 0 14 0 14 0 14 0 14 0 14 0 7 0 7 0 7 0 7 0 7 0 7 0 7 0 7 0 7 0 7 0 7 0 14 0 14 0 14 0 7 0 7 0 7 0 7 0 7 0 14 0 14 0 14 0 14 0 15 0 15 0 15 0 15 0 15 0 15 0 14 0 14 0 14 0 14 0 14 0 14 0 14 0 14 0 14 0 14 0 15 0 15 0 7 0 7 0 7 0 7 0 14 0 14 0 14 0 14 0 7 0 7 0 7 0 7 0 7 0 7 0 14 0 14 0 14 0 14 0 14 0 14 0 14 0 14 0 14 0 14 0 7 0 7 0 7 0 14 0 14 0 14 0 14 0 14 0 14 0 14 0 14 0 15 0 15 0 14 0 14 0 14 0 14 0 14 0 14 0 14 0 15 0 14 0 14 0 14 0 15 0 15 0 15 0 15 0 15 0 15 0 7 0 7 0 7 0 0 0 0 0 0 0 0 0 0 0 0 0 11 0 8 0 1 0 4 0 14 0 14 0 14 0 14 0 14 0 7 0 7 0 7 0 7 0 7 0 7 0 7 0 15 0 15 0 7 0</v>
				</vertex_weights>
			</skin>
		</controller>
		<controller id="polygon1_Controller">
			<skin source="#polygon1">
				<bind_shape_matrix>1 0 0 0 0 1 0 0 0 0 1 0 0 0 0 1</bind_shape_matrix>
				<source id="polygon1_Joints">
					<Name_array id="polygon1_JointArr" count="18">skl_root leg_l1 leg_l2 ankle_l1 leg_r1 leg_r2 ankle_r1 spin arm_l1 arm_l2 wrist_l1 arm_r1 arm_r2 wrist_r1 face_1 mouth_1 wing_l1 wing_r1</Name_array>
					<technique_common>
						<accessor source="#polygon1_JointArr" count="18">
							<param name="JOINT" type="Name" />
						</accessor>
					</technique_common>
				</source>
				<source id="polygon1_Matrices">
					<float_array id="polygon1_MatArr" count="288">0 0.9529974 0.3032246 -28.48695 0 0.3032246 -0.9529974 -16.78732 -1 0 0 0 0 0 0 1 3.490281E-08 -1.000149 3.098811E-07 30.8585 -5.148157E-06 3.202102E-07 1.000149 6.405395 -1 -3.490962E-08 -5.148926E-06 10.00797 0 0 0 1 -1.744765E-08 -1.000149 -4.057325E-07 21.95842 5.148157E-06 3.954031E-07 -1.000149 -6.40541 1 -1.745234E-08 5.148926E-06 -10.00797 0 0 0 1 -5.130706E-06 -3.954031E-07 1.000149 6.40541 -1.744765E-08 -1.000149 -4.057325E-07 11.67559 1 -1.745233E-08 5.131472E-06 -10.00797 0 0 0 1 -2.268679E-07 -1.000149 -2.453225E-07 30.85849 6.980551E-08 -2.453226E-07 1.000149 6.405364 -1 2.269018E-07 6.981599E-08 -10.00801 0 0 0 1 -2.268679E-07 -1.000149 3.132049E-07 21.95842 -6.980564E-08 -3.132049E-07 -1.000149 -6.405345 1 -2.269018E-07 -6.981599E-08 10.00801 0 0 0 1 8.725701E-08 3.132049E-07 1.000149 6.405345 -2.268679E-07 -1.000149 3.132049E-07 11.67559 1 -2.269018E-07 -8.726997E-08 10.00801 0 0 0 1 0 0.9529974 0.3032246 -30.73695 0 0.3032246 -0.9529974 -16.78732 -1 0 0 0 0 0 0 1 1 0 0 -10.77292 0 0 -1.000149 -0.5604458 0 1.000149 0 -51.89944 0 0 0 1 1 3.665336E-07 8.482639E-06 -20.82718 -8.481373E-06 1.060505E-19 1.000149 0.5606456 3.66479E-07 -1.000149 3.108708E-12 51.89943 0 0 0 1 1 3.665336E-07 8.482639E-06 -30.44818 -8.481373E-06 1.060505E-19 1.000149 0.5606456 3.66479E-07 -1.000149 3.108708E-12 51.89943 0 0 0 1 -1 0 0 -10.773 0 0 -1.000149 -0.5604458 0 -1.000149 0 51.89944 0 0 0 1 -1 -1.047239E-07 4.171503E-06 -20.82599 4.17088E-06 2.601559E-20 1.000149 0.5605537 -1.047083E-07 1.000149 4.367909E-13 -51.89944 0 0 0 1 -1 -1.047239E-07 4.171503E-06 -30.44722 4.17088E-06 2.601559E-20 1.000149 0.5605537 -1.047083E-07 1.000149 4.367909E-13 -51.89944 0 0 0 1 0 -5.681156E-08 1.000149 -0.8901694 0 -1.000149 -5.681156E-08 57.33234 1 0 0 0 0 0 0 1 -1.745138E-08 -0.5474801 0.8370827 35.83463 5.658712E-16 -0.8370827 -0.5474801 66.11182 1 -9.554283E-09 1.460825E-08 6.253637E-07 0 0 0 1 0 0.8047823 -0.5938213 -56.58455 1 0 0 -10.70976 0 -0.5938213 -0.8047823 18.08759 0 0 0 1 0 0.8047823 -0.5938213 -56.58455 1 0 0 10.71 0 -0.5938213 -0.8047823 18.08759 0 0 0 1</float_array>
					<technique_common>
						<accessor source="#polygon1_MatArr" count="18" stride="16">
							<param type="float4x4" />
						</accessor>
					</technique_common>
				</source>
				<source id="polygon1_Weights">
					<float_array id="polygon1_WeightArr" count="1">1</float_array>
					<technique_common>
						<accessor source="#polygon1_WeightArr" count="1">
							<param type="float" />
						</accessor>
					</technique_common>
				</source>
				<joints>
					<input semantic="JOINT" source="#polygon1_Joints" />
					<input semantic="INV_BIND_MATRIX" source="#polygon1_Matrices" />
				</joints>
				<vertex_weights count="8">
					<input semantic="JOINT" offset="0" source="#polygon1_Joints" />
					<input semantic="WEIGHT" offset="1" source="#polygon1_Weights" />
					<vcount>1 1 1 1 1 1 1 1</vcount>
					<v>14 0 14 0 14 0 14 0 14 0 14 0 14 0 14 0</v>
				</vertex_weights>
			</skin>
		</controller>
	</library_controllers>
	<library_visual_scenes>
		<visual_scene id="RootNode" name="RootNode">
			<node id="skl_root" name="skl_root" sid="skl_root" type="JOINT">
				<translate>0 32.23351 -7.359233</translate>
				<rotate>0 0 1 90</rotate>
				<rotate>0 1 0 -17.65</rotate>
				<rotate>1 0 0 -90</rotate>
				<node id="leg_l1" name="leg_l1" sid="leg_l1" type="JOINT">
					<translate>-1.025242 -1.328291 -10.008</translate>
					<rotate>0 0 1 -162.35</rotate>
					<rotate>0 1 0 2E-06</rotate>
					<rotate>1 0 0 0.000295</rotate>
					<node id="leg_l2" name="leg_l2" sid="leg_l2" type="JOINT">
						<translate>8.900077 0 0</translate>
						<rotate>0 0 1 -4.1E-05</rotate>
						<rotate>0 1 0 -3E-06</rotate>
						<rotate>1 0 0 180</rotate>
						<node id="ankle_l1" name="ankle_l1" sid="ankle_l1" type="JOINT">
							<translate>10.28283 0 0</translate>
							<rotate>0 0 1 -90</rotate>
							<rotate>0 1 0 -1E-06</rotate>
						</node>
					</node>
				</node>
				<node id="leg_r1" name="leg_r1" sid="leg_r1" type="JOINT">
					<translate>-1.025244 -1.328289 10.008</translate>
					<rotate>0 0 1 -162.35</rotate>
					<rotate>0 1 0 -1.3E-05</rotate>
					<rotate>1 0 0 -4E-06</rotate>
					<node id="leg_r2" name="leg_r2" sid="leg_r2" type="JOINT">
						<translate>8.900077 6E-06 0</translate>
						<rotate>0 0 1 3.2E-05</rotate>
						<rotate>1 0 0 180</rotate>
						<node id="ankle_r1" name="ankle_r1" sid="ankle_r1" type="JOINT">
							<translate>10.28283 0 0</translate>
							<rotate>0 0 1 -90</rotate>
							<rotate>0 1 0 -1E-06</rotate>
						</node>
					</node>
				</node>
				<node id="spin" name="spin" sid="spin" type="JOINT">
					<translate>2.250001 0 0</translate>
					<node id="arm_l1" name="arm_l1" sid="arm_l1" type="JOINT">
						<translate>18.54578 -0.518461 -10.77292</translate>
						<rotate>0 1 0 90</rotate>
						<rotate>1 0 0 -17.65</rotate>
						<node id="arm_l2" name="arm_l2" sid="arm_l2" type="JOINT">
							<translate>10.05424 2.3E-05 -4E-06</translate>
							<rotate>0 0 1 -0.000486</rotate>
							<rotate>0 1 0 -2.1E-05</rotate>
							<rotate>1 0 0 -180</rotate>
							<node id="wrist_l1" name="wrist_l1" sid="wrist_l1" type="JOINT">
								<translate>9.621 0 0</translate>
							</node>
						</node>
					</node>
					<node id="arm_r1" name="arm_r1" sid="arm_r1" type="JOINT">
						<translate>18.54578 -0.518461 10.773</translate>
						<rotate>0 1 0 -90</rotate>
						<rotate>1 0 0 17.65</rotate>
						<node id="arm_r2" name="arm_r2" sid="arm_r2" type="JOINT">
							<translate>10.053 2.1E-05 4E-06</translate>
							<rotate>0 0 1 -0.000239</rotate>
							<rotate>0 1 0 -6E-06</rotate>
							<rotate>1 0 0 -180</rotate>
							<node id="wrist_r1" name="wrist_r1" sid="wrist_r1" type="JOINT">
								<translate>9.621231 0 0</translate>
							</node>
						</node>
					</node>
					<node id="face_1" name="face_1" sid="face_1" type="JOINT">
						<translate>24.16235 -0.253548 0</translate>
						<rotate>0 0 1 -72.35</rotate>
						<rotate>1 0 0 180</rotate>
						<node id="mouth_1" name="mouth_1" sid="mouth_1" type="JOINT">
							<translate>5.30637 -17.60554 0</translate>
							<rotate>0 0 1 33.186</rotate>
							<rotate>0 1 0 1E-06</rotate>
						</node>
					</node>
				</node>
				<node id="wing_l1" name="wing_l1" sid="wing_l1" type="JOINT">
					<translate>19.35779 18.41676 -10.70976</translate>
					<rotate>0 0 1 54.07235</rotate>
					<rotate>1 0 0 -90</rotate>
				</node>
				<node id="wing_r1" name="wing_r1" sid="wing_r1" type="JOINT">
					<translate>19.35779 18.41676 10.71</translate>
					<rotate>0 0 1 54.07235</rotate>
					<rotate>1 0 0 -90</rotate>
				</node>
			</node>
			<node id="polygon0" name="polygon0" type="NODE">
				<instance_controller url="#polygon0_Controller">
					<skeleton>#skl_root</skeleton>
					<bind_material>
						<technique_common>
							<instance_material symbol="ka_body" target="#ka_body">
								<bind_vertex_input semantic="TEXCOORD0" input_semantic="TEXCOORD" input_set="0" />
								<bind_vertex_input semantic="TEXCOORD0" input_semantic="TEXCOORD" input_set="0" />
								<bind_vertex_input semantic="TEXCOORD0" input_semantic="TEXCOORD" input_set="0" />
							</instance_material>
						</technique_common>
					</bind_material>
				</instance_controller>
			</node>
			<node id="polygon1" name="polygon1" type="NODE">
				<instance_controller url="#polygon1_Controller">
					<skeleton>#skl_root</skeleton>
					<bind_material>
						<technique_common>
							<instance_material symbol="ka_eye" target="#ka_eye">
								<bind_vertex_input semantic="TEXCOORD0" input_semantic="TEXCOORD" input_set="0" />
								<bind_vertex_input semantic="TEXCOORD0" input_semantic="TEXCOORD" input_set="0" />
								<bind_vertex_input semantic="TEXCOORD0" input_semantic="TEXCOORD" input_set="0" />
							</instance_material>
						</technique_common>
					</bind_material>
				</instance_controller>
			</node>
		</visual_scene>
	</library_visual_scenes>
	<scene>
		<instance_visual_scene url="#RootNode" />
	</scene>
</COLLADA>